manifont-grotesk_book.sfdir
StartChar: exclam
Encoding: 1 33 132
Width: 239
Flags: HMW
HStem: 0 100<74 165 74 165> 700 20G<70 169 169 169>
VStem: 81 77
LayerCount: 3
Back
SplineSet
148 178 m 1
 92 178 l 1
 70 720 l 1
 169 720 l 1
 148 178 l 1
165 0 m 1
 74 0 l 1
 74 100 l 1
 165 100 l 1
 165 0 l 1
EndSplineSet
Fore
SplineSet
143.390625 -11.4501953125 m 5
 97.16015625 -11.44921875 l 1
 64.3076171875 24.2958984375 l 1
 64.330078125 75.099609375 l 1
 96.609375 111.450195312 l 1
 142.83984375 111.44921875 l 1
 176 75 l 1
 175.919921875 24.150390625 l 1
 143.390625 -11.4501953125 l 5
91.380859375 177.884765625 m 1
 69.4287109375 727.202148438 l 1
 170.380859375 727.202148438 l 1
 148.44921875 177.884765625 l 1
 91.380859375 177.884765625 l 1
EndSplineSet
Validated: 1
Layer: 2
EndChar
StartChar: quotedbl
Encoding: 2 34 146
Width: 399
Flags: HMW
HStem: 482 238<92 148 92 92 252 252 252 308>
LayerCount: 3
Back
SplineSet
148 482 m 5
 92 482 l 5
 70 720 l 5
 169 720 l 5
 148 482 l 5
308 482 m 5
 252 482 l 5
 230 720 l 5
 329 720 l 5
 308 482 l 5
EndSplineSet
Fore
SplineSet
146.969726562 479.620117188 m 1
 89.849609375 479.620117188 l 1
 67.41015625 722.379882812 l 1
 168.389648438 722.379882812 l 1
 146.969726562 479.620117188 l 1
310.169921875 479.620117188 m 1
 253.049804688 479.620117188 l 1
 230.610351562 722.379882812 l 1
 331.58984375 722.379882812 l 1
 310.169921875 479.620117188 l 1
EndSplineSet
Validated: 1
Layer: 2
EndChar
StartChar: numbersign
Encoding: 3 35 161
Width: 556
Flags: HMW
HStem: 0 21G<40 129 40 40 220 309 220 220> 205 75<20 98 0 120 209 278 20 188 389 472> 445 75<84 167 64 189 278 347 84 257 458 536> 700 20G<246 336 336 336 426 516 516 516>
LayerCount: 3
Back
Fore
SplineSet
307 -8 m 1
 225 15 l 1
 278 205 l 1
 188 205 l 1
 127 -8 l 1
 44 15 l 1
 98 205 l 1
 0 205 l 1
 0 280 l 1
 120 280 l 1
 167 445 l 1
 64 445 l 1
 64 520 l 1
 189 520 l 1
 249 728.090820312 l 1
 332 704.090820312 l 1
 278 520 l 1
 368 520 l 1
 429 728.090820312 l 1
 512 704 l 1
 458 520 l 1
 556 520 l 1
 556 445 l 1
 437 445 l 1
 389 280 l 1
 492 280 l 1
 492 205 l 1
 368 205 l 1
 307 -8 l 1
257 445 m 1
 209 280 l 1
 300 280 l 1
 347 445 l 1
 257 445 l 1
EndSplineSet
Validated: 1
Layer: 2
EndChar
StartChar: dollar
Encoding: 4 36 168
Width: 556
Flags: HMW
HStem: -100 21G<236 311 236 236> 800 20G<236 311 311 311>
VStem: 40 94 67 92<513 570.5 513 592> 236 75<-100 -14 -100 -11 -100 -11 72 321 435 651 732 820> 418 97<154.5 222>
LayerCount: 3
Back
SplineSet
236 732 m 5xdc
 236 820 l 5
 311 820 l 5
 311 732 l 5
 417 717 484 647 493 514 c 5
 461 512 429 509 397 507 c 5
 389 584 368 636 311 651 c 5
 311 412 l 5
 430 382 515 321 515 199 c 4
 515 72 430 -8 311 -14 c 5
 311 -100 l 5
 236 -100 l 5
 236 -11 l 5
 107 8 49 94 40 220 c 5
 71 223 103 225 134 228 c 5xec
 140 138 176 89 236 72 c 5
 236 340 l 5
 88 382 67 459 67 531 c 4
 67 653 147 719 236 732 c 5xdc
418 194 m 4
 418 250 390 291 334 313 c 4
 326 316 318 318 311 321 c 5
 311 66 l 5
 374 73 418 115 418 194 c 4
159 537 m 4
 159 489 185 455 236 435 c 5
 236 651 l 5
 190 639 159 604 159 537 c 4
236 732 m 1xdc
 236 820 l 1
 311 820 l 1
 311 732 l 1
 417 717 484 647 493 514 c 1
 461 512 429 509 397 507 c 1
 389 584 368 636 311 651 c 1
 311 412 l 1
 430 382 515 321 515 199 c 0
 515 72 430 -8 311 -14 c 1
 311 -100 l 1
 236 -100 l 1
 236 -11 l 1
 107 8 49 94 40 220 c 1
 71 223 103 225 134 228 c 1xec
 140 138 176 89 236 72 c 1
 236 340 l 1
 88 382 67 459 67 531 c 0
 67 653 147 719 236 732 c 1xdc
418 194 m 0
 418 250 390 291 334 313 c 0
 326 316 318 318 311 321 c 1
 311 66 l 1
 374 73 418 115 418 194 c 0
159 537 m 0
 159 489 185 455 236 435 c 1
 236 651 l 1
 190 639 159 604 159 537 c 0
EndSplineSet
Fore
SplineSet
235.946289062 820 m 1xec
 310.905273438 820 l 1
 310.905273438 732.033203125 l 1
 438.25 667.25390625 l 1
 486 534 l 1
 397.038085938 506.987304688 l 1
 372.41015625 602.216796875 l 1
 311.072265625 650.986328125 l 1
 311.072265625 412.015625 l 1
 457.666992188 340.015625 l 1
 515.022460938 198.9765625 l 1
 457.604492188 47.123046875 l 1
 311.072265625 -14.0625 l 1
 311.072265625 -100.028320312 l 1
 236.112304688 -100.028320312 l 1
 236.112304688 -13.060546875 l 1
 93.0927734375 64.31640625 l 1
 46 203 l 1
 134.053710938 227.993164062 l 1
 164.821289062 122.6328125 l 1
 236.112304688 66.9873046875 l 1
 236.112304688 339.974609375 l 1
 96.177734375 424.231445312 l 1
 67.1826171875 531.000976562 l 1
 118.315429688 672.356445312 l 1
 236.112304688 732.033203125 l 1
 235.946289062 820 l 1xec
235.946289062 435.029296875 m 1
 235.946289062 650.986328125 l 1
 180.122070312 614.631835938 l 1
 158.818359375 537.00390625 l 1
 178.30859375 475.543945312 l 1
 235.946289062 435.029296875 l 1
334.001953125 313.041992188 m 1
 322.130859375 317.044921875 l 1
 311.072265625 321.046875 l 1
 311.072265625 65.9833984375 l 1
 388.168945312 102.99609375 l 1
 418.05078125 193.973632812 l 1
 397.038085938 266.298828125 l 1
 334.001953125 313.041992188 l 1
EndSplineSet
Validated: 1
Layer: 2
EndChar
StartChar: percent
Encoding: 5 37 345
Width: 1000
VWidth: 0
HStem: -8 21G<319.222 367.73 662.111 758.016> 705 20G<262.048 357.973 651.344 699.745>
LayerCount: 3
Back
Fore
SplineSet
310.000976562 725 m 1
 415.280273438 681.108398438 l 1
 456.083984375 559.98828125 l 1
 415.280273438 438.869140625 l 1
 310.000976562 394.977539062 l 1
 204.793945312 438.869140625 l 1
 164 559.98828125 l 1
 204.763671875 681.108398438 l 1
 310.000976562 725 l 1
310.000976562 470.020507812 m 1
 357.653320312 491.032226562 l 1
 379.040039062 560.072265625 l 1
 357.653320312 629.111328125 l 1
 310.000976562 650.124023438 l 1
 263.922851562 629.111328125 l 1
 241.043945312 560.072265625 l 1
 262.421875 491.032226562 l 1
 310.000976562 470.020507812 l 1
357 -8 m 1
 289 28 l 1
 662 728.090820312 l 1
 732 691 l 1
 357 -8 l 1
710.063476562 325.020507812 m 1
 815.301757812 281.127929688 l 1
 856.064453125 160.008789062 l 1
 815.301757812 38.8896484375 l 1
 710.063476562 -5.0029296875 l 1
 604.826171875 38.8896484375 l 1
 564.063476562 160.008789062 l 1
 604.794921875 281.127929688 l 1
 710.063476562 325.020507812 l 1
710.063476562 69.95703125 m 1
 757.643554688 90.96875 l 1
 779.01953125 160.008789062 l 1
 757.643554688 229.048828125 l 1
 710.063476562 250.060546875 l 1
 663.995117188 229.048828125 l 1
 641.190429688 160.008789062 l 1
 662.495117188 90.96875 l 1
 710.063476562 69.95703125 l 1
EndSplineSet
Validated: 1
Layer: 2
EndChar
StartChar: ampersand
Encoding: 6 38 185
Width: 633
Flags: HMW
HStem: -15 80<219.5 280 219.5 295> 0 21G<495 613 495 495> 655 80<240 310.5>
VStem: 40 95<139.5 200 139.5 219.5> 81 91<520 575 520 612.5> 373 91<528 582> 455 89<322 347>
LayerCount: 3
Back
SplineSet
613 0 m 5xb4
 495 0 l 5
 477 20 459 39 441 59 c 5
 394 13 332 -15 258 -15 c 4
 109 -15 40 71 40 174 c 4
 40 265 99 318 164 359 c 5
 162 361 81 431 81 550 c 4xb2
 81 675 171 735 276 735 c 4
 421 735 464 637 464 560 c 4
 464 483 417 416 309 352 c 4
 306 350 302 348 299 346 c 5
 343 297 387 249 431 200 c 5
 448 245 455 297 455 347 c 5x6c
 544 347 l 5
 548 270 530 193 495 130 c 5
 533 86 574 43 613 0 c 5xb4
239 414 m 6
 246 406 l 5
 334 459 373 496 373 560 c 4xac
 373 604 345 655 276 655 c 4
 204 655 172 600 172 550 c 4
 172 490 197 460 239 414 c 6
135 174 m 4
 135 105 188 65 251 65 c 4
 309 65 353 86 384 120 c 5
 330 179 275 239 221 298 c 5xb4
 169 263 135 226 135 174 c 4
EndSplineSet
Fore
SplineSet
299.065429688 345.943359375 m 1x32
 299.065429688 345.943359375 l 1
 431.057617188 199.942382812 l 1
 449.443359375 271.600585938 l 1
 455.071289062 346.943359375 l 1
 544 342 l 1
 534.159179688 233.203125 l 1
 495.01171875 129.90234375 l 1
 567 50 l 1
 502 -8 l 1
 494.844726562 -0.0888671875 l 1
 440.896484375 58.861328125 l 1
 359.579101562 4.6220703125 l 1
 257.875 -15.09765625 l 1
 93.0625 40.767578125 l 1
 40 173.927734375 l 1
 77.6259765625 285.166992188 l 1
 163.904296875 358.951171875 l 1
 121.734375 410.563476562 l 1
 80.9404296875 549.977539062 l 1
 139.067382812 689.390625 l 1
 276.051757812 735 l 1
 424.3359375 676.3828125 l 1
 463.993164062 559.982421875 l 1
 427.055664062 451.086914062 l 1
 299.065429688 345.943359375 l 1x32
250.788085938 64.865234375 m 1
 327.530273438 79.58984375 l 1
 383.947265625 119.896484375 l 1
 220.9375 297.916015625 l 1
 158.474609375 242.266601562 l 1
 134.971679688 173.927734375 l 1
 169.272460938 93.4736328125 l 1
 250.788085938 64.865234375 l 1
342.33984375 478.719726562 m 1
 372.774414062 559.81640625 l 1
 350.157226562 623.811523438 l 1
 275.885742188 654.787109375 l 1
 196.872070312 621.059570312 l 1
 171.826171875 549.810546875 l 1
 189.6171875 476.592773438 l 1
 245.868164062 405.810546875 l 1
 245.868164062 405.810546875 l 1
 342.33984375 478.719726562 l 1
EndSplineSet
Validated: 5
Layer: 2
EndChar
StartChar: quotesingle
Encoding: 7 39 147
Width: 239
Flags: HMW
HStem: 482 21G<92 148 92 92> 700 20G<70 169 169 169>
LayerCount: 3
Back
SplineSet
105.19921875 100 m 1xe0
 105.19921875 100.001953125 l 1
 146.619140625 100.001953125 l 1
 175.89453125 70.72265625 l 1
 175.89453125 29.3046875 l 1
 175.89453125 0.02734375 l 1
 155.51953125 -88.607421875 l 1
 93.931640625 -141.970703125 l 1
 70 -103.94921875 l 1
 111.650390625 -70.345703125 l 1
 127.033203125 0.025390625 l 1
 127.033203125 0.025390625 l 1
 105.1953125 0.025390625 l 1
 75.919921875 29.30859375 l 1
 75.919921875 70.7265625 l 1
 105.19921875 100 l 1xe0
148 482 m 5
 92 482 l 5
 70 720 l 5
 169 720 l 5
 148 482 l 5
EndSplineSet
Fore
SplineSet
98.2255859375 722.41796875 m 1xe0
 98.2255859375 722.419921875 l 1
 140.473632812 722.419921875 l 1
 170.333984375 692.5546875 l 1
 170.333984375 650.30859375 l 1
 170.333984375 620.4453125 l 1
 149.551757812 530.038085938 l 1
 86.732421875 475.607421875 l 1
 62.322265625 514.389648438 l 1
 104.805664062 548.665039062 l 1
 120.49609375 620.443359375 l 1
 120.49609375 620.443359375 l 1
 98.220703125 620.443359375 l 1
 68.3603515625 650.3125 l 1
 68.3603515625 692.55859375 l 1
 98.2255859375 722.41796875 l 1xe0
EndSplineSet
Validated: 5
Layer: 2
EndChar
StartChar: parenleft
Encoding: 8 40 186
Width: 311
Flags: HMW
HStem: -100 21G<228 291 228 228> 800 20G<228 291 291 291>
VStem: 50 95<275.5 444.5>
LayerCount: 3
Back
SplineSet
50 360 m 4
 50 529 123 696 228 820 c 5
 291 820 l 5
 195 670 145 541 145 360 c 4
 145 179 195 50 291 -100 c 5
 228 -100 l 5
 123 24 50 191 50 360 c 4
EndSplineSet
Fore
SplineSet
224.30859375 829.200195312 m 1
 274.26953125 800.640625 l 1
 177.436523438 606.458007812 l 1
 139.685546875 359.985351562 l 1
 177.436523438 113.548828125 l 1
 274.26953125 -80.6396484375 l 1
 224.30859375 -109.228515625 l 1
 93.3662109375 108.15625 l 1
 42.73046875 359.985351562 l 1
 93.3662109375 611.875 l 1
 224.30859375 829.200195312 l 1
EndSplineSet
Validated: 1
Layer: 2
EndChar
StartChar: parenright
Encoding: 9 41 187
Width: 311
Flags: HMW
HStem: -100 21G<20 83 20 20> 800 20G<20 83 83 83>
VStem: 166 95<275.5 444.5 275.5 450.5>
LayerCount: 3
Back
SplineSet
261 360 m 4
 261 191 188 24 83 -100 c 5
 20 -100 l 5
 116 50 166 179 166 360 c 4
 166 541 116 670 20 820 c 5
 83 820 l 5
 188 696 261 529 261 360 c 4
EndSplineSet
Fore
SplineSet
81.755859375 -109.228515625 m 1
 30.7197265625 -82.6796875 l 1
 128.596679688 113.513671875 l 1
 166.380859375 359.985351562 l 1
 128.596679688 606.458007812 l 1
 30.7197265625 802.680664062 l 1
 81.755859375 829.200195312 l 1
 212.731445312 611.815429688 l 1
 263.334960938 359.985351562 l 1
 212.731445312 108.15625 l 1
 81.755859375 -109.228515625 l 1
EndSplineSet
Validated: 1
Layer: 2
EndChar
StartChar: asterisk
Encoding: 10 42 192
Width: 417
Flags: HMW
HStem: 423 21G<268 268> 715 20G<168 250 250 250>
LayerCount: 3
Back
Fore
SplineSet
250.830078125 738.120117188 m 5
 238.58984375 617.759765625 l 5
 349.76953125 664.6796875 l 5
 375.26953125 585.120117188 l 5
 256.950195312 559.620117188 l 5
 336.509765625 468.83984375 l 5
 269.190429688 419.879882812 l 5
 207.990234375 523.919921875 l 5
 144.75 420.900390625 l 5
 77.4296875 469.860351562 l 5
 156.990234375 559.620117188 l 5
 41.73046875 587.16015625 l 5
 67.23046875 666.719726562 l 5
 177.389648438 617.759765625 l 5
 167.190429688 738.120117188 l 5
 250.830078125 738.120117188 l 5
EndSplineSet
Validated: 1
Layer: 2
EndChar
StartChar: plus
Encoding: 11 43 144
Width: 556
Flags: HMW
HStem: 114 21G<240 315 240 240> 325 75<50 240 50 240 315 506> 590 20G<240 315 315 315>
VStem: 240 75<114 325 114 325 400 610>
LayerCount: 3
Back
Fore
SplineSet
315.740234375 324.259765625 m 5
 315.740234375 109.040039062 l 5
 239.240234375 109.040039062 l 5
 239.240234375 324.259765625 l 5
 45.4404296875 324.259765625 l 5
 45.4404296875 400.759765625 l 5
 239.240234375 400.759765625 l 5
 239.240234375 614.959960938 l 5
 315.740234375 614.959960938 l 5
 315.740234375 400.759765625 l 5
 510.559570312 400.759765625 l 5
 510.559570312 324.259765625 l 5
 315.740234375 324.259765625 l 5
EndSplineSet
Validated: 1
Layer: 2
EndChar
StartChar: comma
Encoding: 12 44 127
Width: 246
Flags: HMW
HStem: -142 21G<94 94> 0 21G<76 127 76 76 176 176> 80 20G<76 176 176 176>
VStem: 76 100<0 100> 127 49<-32 0>
LayerCount: 3
Back
SplineSet
127 0 m 5xe8
 76 0 l 5
 76 100 l 5
 176 100 l 5
 176 0 l 6
 176 -71 149 -118 94 -142 c 5
 70 -104 l 5
 105 -89 127 -64 127 0 c 5xe8
127 0 m 1xe8
 76 0 l 1
 76 100 l 1
 176 100 l 1
 176 0 l 2
 176 -71 149 -118 94 -142 c 1
 70 -104 l 1
 105 -89 127 -64 127 0 c 1xe8
EndSplineSet
Fore
SplineSet
104.844726562 102.419921875 m 1xe0
 104.844726562 102.421875 l 1
 147.092773438 102.421875 l 1
 176.953125 72.556640625 l 1
 176.953125 30.310546875 l 1
 176.953125 0.447265625 l 1
 156.170898438 -89.9599609375 l 1
 93.3515625 -144.390625 l 1
 68.94140625 -105.608398438 l 1
 111.424804688 -71.3330078125 l 1
 127.115234375 0.4453125 l 1
 127.115234375 0.4453125 l 1
 104.83984375 0.4453125 l 1
 74.9794921875 30.314453125 l 1
 74.9794921875 72.560546875 l 1
 104.844726562 102.419921875 l 1xe0
EndSplineSet
Validated: 5
Layer: 2
EndChar
StartChar: hyphen
Encoding: 13 45 129
Width: 370
Flags: HMW
HStem: 217 86<50 320 50 320>
LayerCount: 3
Back
Fore
SplineSet
322.700195312 216.139648438 m 5
 47.2998046875 216.139648438 l 5
 47.2998046875 303.860351562 l 5
 322.700195312 303.860351562 l 5
 322.700195312 216.139648438 l 5
EndSplineSet
Validated: 1
Layer: 2
EndChar
StartChar: period
Encoding: 14 46 128
Width: 239
Flags: HMW
HStem: 0 100<70 161 70 161>
VStem: 70 91<0 100>
LayerCount: 3
Back
SplineSet
139.390625 -11.2001953125 m 5
 93.16015625 -11.44921875 l 5
 60.3076171875 24.2958984375 l 5
 60.080078125 75.099609375 l 5
 92.609375 111.200195312 l 5
 138.83984375 111.44921875 l 5
 171.692382812 74.9541015625 l 5
 171.919921875 24.150390625 l 5
 139.390625 -11.2001953125 l 5
64.212890625 29.912109375 m 5
 64.3017578125 72.125 l 5
 94.212890625 101.912109375 l 5
 136.426757812 101.823242188 l 5
 166.212890625 71.912109375 l 5
 166.125 29.6982421875 l 5
 136.212890625 -0.087890625 l 5
 94 0 l 5
 64.212890625 29.912109375 l 5
161 0 m 5
 70 0 l 5
 70 100 l 5
 161 100 l 5
 161 0 l 5
161 0 m 1
 70 0 l 1
 70 100 l 1
 161 100 l 1
 161 0 l 1
EndSplineSet
Fore
SplineSet
139.140625 -11.4501953125 m 5
 92.91015625 -11.44921875 l 5
 60.0576171875 24.2958984375 l 5
 60.080078125 75.099609375 l 5
 92.359375 111.450195312 l 5
 138.58984375 111.44921875 l 5
 171.75 75 l 5
 171.669921875 24.150390625 l 5
 139.140625 -11.4501953125 l 5
EndSplineSet
Validated: 1
Layer: 2
EndChar
StartChar: slash
Encoding: 15 47 152
Width: 336
Flags: HMW
HStem: -100 21G<0 89 0 0> 800 20G<246 336 336 336>
LayerCount: 3
Back
Fore
SplineSet
89 -100 m 1
 6 -77 l 1
 246 820 l 1
 329 797 l 1
 89 -100 l 1
EndSplineSet
Validated: 1
Layer: 2
EndChar
StartChar: zero
Encoding: 16 48 117
Width: 556
Flags: HMW
HStem: -15 75<262.5 332.5 262.5 362.5> 660 75<223.5 293>
VStem: 45 90<324.5 443.5 324.5 468.5> 421 90<276.5 396>
LayerCount: 3
Back
SplineSet
45 360 m 4
 45 577 109 735 278 735 c 4
 447 735 511 577 511 360 c 4
 511 143 447 -15 278 -15 c 4
 109 -15 45 143 45 360 c 4
421 360 m 4
 421 432 414 498 398 549 c 5
 203 89 l 5
 222 70 247 60 278 60 c 4
 387 60 421 193 421 360 c 4
135 360 m 4
 135 289 141 223 156 172 c 5
 352 631 l 5
 333 650 308 660 278 660 c 4
 169 660 135 527 135 360 c 4
EndSplineSet
Fore
SplineSet
278.05078125 742.5 m 1
 461.553710938 634.241210938 l 1
 515.76171875 359.950195312 l 1
 461.553710938 85.7021484375 l 1
 278.05078125 -22.513671875 l 1
 94.5791015625 85.7353515625 l 1
 40.3388671875 359.950195312 l 1
 94.5791015625 634.241210938 l 1
 278.05078125 742.5 l 1
153.708984375 168.25 m 1
 353.744140625 636.444335938 l 1
 353.744140625 636.444335938 l 1
 278.135742188 665.999023438 l 1
 163.521484375 576.875976562 l 1
 132.276367188 359.993164062 l 1
 153.708984375 168.25 l 1
 153.708984375 168.25 l 1
400.520507812 552.755859375 m 1
 201.591796875 83.541015625 l 1
 201.591796875 83.541015625 l 1
 277.96484375 53.9873046875 l 1
 392.643554688 143.109375 l 1
 423.82421875 359.993164062 l 1
 400.520507812 552.755859375 l 1
 400.520507812 552.755859375 l 1
EndSplineSet
Validated: 5
Layer: 2
EndChar
StartChar: one
Encoding: 17 49 118
Width: 512
Flags: HMW
HStem: 0 21G<233 328 233 233> 700 20G<254 328 328 328>
VStem: 233 95<0 555 555 555>
LayerCount: 3
Back
SplineSet
328 720 m 5
 328 0 l 5
 233 0 l 5
 233 555 l 5
 206 498 145 450 67 450 c 5
 67 535 l 5
 170 545 239 638 254 720 c 5
 328 720 l 5
EndSplineSet
Fore
SplineSet
327.983398438 -0.080078125 m 1
 232.845703125 -0.080078125 l 1
 232.845703125 554.905273438 l 1
 169.02734375 481.029296875 l 1
 100 460 l 1
 67 534.977539062 l 1
 193.384765625 600.47265625 l 1
 253.857421875 720 l 1
 327.983398438 720 l 1
 327.983398438 -0.080078125 l 1
EndSplineSet
Validated: 1
Layer: 2
EndChar
StartChar: two
Encoding: 18 50 119
Width: 556
Flags: HMW
HStem: 0 85<148 496 148 496> 655 80<231.5 317>
VStem: 50 90<502 512> 405 90<487 560>
LayerCount: 3
Back
SplineSet
148 85 m 5
 496 85 l 5
 496 0 l 5
 36 0 l 5
 33 171 143 229 262 322 c 4
 348 389 405 452 405 522 c 4
 405 598 359 655 275 655 c 4
 188 655 141 590 140 502 c 5
 50 512 l 5
 58 648 142 735 277 735 c 4
 409 735 495 657 495 520 c 4
 495 411 402 318 315 256 c 4
 239 202 157 144 148 85 c 5
EndSplineSet
Fore
SplineSet
495.698242188 85.3935546875 m 6
 495.698242188 -0.35546875 l 5
 35.3994140625 -0.35546875 l 1
 100.022460938 186.725585938 l 1
 269.6484375 328.426757812 l 0
 368.41796875 423.62109375 l 1
 407.825195312 525.134765625 l 1
 373.646484375 622.013671875 l 1
 275.233398438 660.788085938 l 1
 173.47265625 616.434570312 l 1
 137.540039062 504.723632812 l 1
 53.8388671875 536.310546875 l 1
 112.908203125 680.65625 l 1
 277.274414062 742.349609375 l 1
 438.921875 685.112304688 l 1
 499.592773438 523.008789062 l 1
 441.079101562 370.422851562 l 1
 308.963867188 248.352539062 l 0
 204.21484375 167.002929688 l 1
 147.705078125 85.3095703125 l 1
 495.698242188 85.3095703125 l 5
 495.698242188 85.3935546875 l 6
EndSplineSet
Validated: 5
Layer: 2
EndChar
StartChar: three
Encoding: 19 51 120
Width: 556
Flags: HMW
HStem: -15 80<228 317.5 228 342> 356 75<230 272 230 272> 658 77<231 306.5>
VStem: 40 94<189 202> 230 249<356 612 431 612> 384 95<515.5 580.5> 414 92<169.5 250.5>
LayerCount: 3
Back
SplineSet
424 431 m 5xf8
 466 431 l 6
 538 431 578 483 578 548 c 4
 578 613 535 658 466 658 c 4
 384 658 343 596 343 523 c 5
 252 535 l 5
 262 659 345 735 464 735 c 4
 583 735 673 674 673 550 c 4xf4
 673 472 628 424 565 399 c 5
 650 375 700 302 700 207 c 4
 700 77 606 -15 466 -15 c 4
 330 -15 239 65 234 189 c 5
 328 202 l 5
 331 125 378 65 466 65 c 4
 557 65 608 129 608 210 c 4xf2
 608 291 557 356 466 356 c 6
 424 356 l 5
 424 431 l 5xf8
EndSplineSet
Fore
SplineSet
272.026367188 432.497070312 m 5xf0
 356.734375 467.31640625 l 5
 386.331054688 551.821289062 l 5
 355.586914062 632.787109375 l 5
 272.026367188 664 l 5
 177.983398438 623.057617188 l 5
 146.579101562 526.305664062 l 5
 63.8095703125 559.919921875 l 5
 120.04296875 687.950195312 l 5
 269.899414062 742.5 l 5
 422.041992188 695.595703125 l 5
 483.032226562 553.77734375 l 5
 452.106445312 456.514648438 l 5
 372.893554688 399.752929688 l 5
 474.303710938 328.993164062 l 5
 510.587890625 203.885742188 l 5
 444.802734375 40.9658203125 l 5
 271.85546875 -22.513671875 l 5
 103.416015625 34.0771484375 l 5
 44.4296875 164.16015625 l 5
 131.184570312 198.783203125 l 5
 169.052734375 99.4462890625 l 5
 271.85546875 59.046875 l 5
 379.102539062 102.032226562 l 5
 416.694335938 206.947265625 l 5
 379.102539062 312.408203125 l 5
 270.053710938 355.868164062 l 5
 228.991210938 355.868164062 l 5
 228.991210938 432.326171875 l 5
 272.026367188 432.326171875 l 5
 272.026367188 432.497070312 l 5xf0
EndSplineSet
Validated: 1
Layer: 2
EndChar
StartChar: four
Encoding: 20 52 121
Width: 556
Flags: MW
HStem: 0 21G<329 424 329 329> 171 85<121 329 30 30 424 521> 700 20G<345 424 424 424>
VStem: 329 95<0 171 256 565 565 565>
LayerCount: 3
Back
Fore
SplineSet
424 0 m 1
 329 0 l 1
 329 171 l 1
 30 171 l 1
 30 256 l 1
 345 720 l 1
 424 720 l 1
 424 256 l 1
 521 256 l 1
 521 171 l 1
 424 171 l 1
 424 0 l 1
121 256 m 1
 329 256 l 1
 329 565 l 1
 121 256 l 1
EndSplineSet
Validated: 1
Layer: 2
EndChar
StartChar: five
Encoding: 21 53 122
Width: 556
Flags: HMW
HStem: -15 80<224.5 312 224.5 341.5> 395 80<262.5 311> 635 85<190 475 190 190>
VStem: 412 97<189 282.5>
LayerCount: 3
Back
SplineSet
35 187 m 5
 127 195 l 5
 137 118 185 65 264 65 c 4
 360 65 412 143 412 235 c 4
 412 330 359 395 263 395 c 4
 206 395 166 373 133 328 c 5
 50 338 l 5
 119 720 l 5
 475 720 l 5
 475 635 l 5
 190 635 l 5
 151 430 l 5
 191 465 239 475 286 475 c 4
 424 475 509 367 509 235 c 4
 509 96 419 -15 264 -15 c 4
 141 -15 45 61 35 187 c 5
EndSplineSet
Fore
SplineSet
123.9296875 191.796875 m 1
 167.368164062 96.0322265625 l 1
 263.749023438 59.205078125 l 1
 375.866210938 110.702148438 l 1
 414.626953125 232.620117188 l 1
 375.354492188 350.583007812 l 1
 262.729492188 395.829101562 l 1
 185.848632812 377.670898438 l 1
 130.052734375 327.44921875 l 1
 49.34375 337.655273438 l 5
 118.764648438 720.349609375 l 1
 475.0078125 720.349609375 l 1
 475.0078125 634.599609375 l 1
 189.311523438 634.599609375 l 1
 150.337890625 430.548828125 l 1
 216.337890625 468.145507812 l 1
 287.16015625 477.44921875 l 1
 452.569335938 405.575195312 l 1
 513.538085938 232.705078125 l 1
 447.891601562 52.052734375 l 1
 263.665039062 -22.271484375 l 1
 103.61328125 32.5341796875 l 1
 44.400390625 156.149414062 l 1
 123.9296875 191.796875 l 1
EndSplineSet
Validated: 1
Layer: 2
EndChar
StartChar: six
Encoding: 22 54 123
Width: 556
Flags: HMW
HStem: -15 80<231.5 320 231.5 352.5> 387 80<254.5 320> 655 80<220.5 317>
VStem: 35 86 35 100<246.5 270.5 181.5 463> 409 97<181.5 270.5>
LayerCount: 3
Back
SplineSet
487 557 m 5xec
 399 547 l 5
 384 617 346 655 288 655 c 4
 153 655 123 491 121 369 c 5
 160 446 222 467 287 467 c 4
 426 467 506 357 506 232 c 4
 506 101 425 -15 280 -15 c 4
 78 -15 35 158 35 335 c 4
 35 591 122 735 283 735 c 4
 406 735 467 667 487 557 c 5xec
135 226 m 4
 135 137 191 65 272 65 c 4xf4
 368 65 409 137 409 226 c 4
 409 315 368 387 272 387 c 4
 196 387 135 315 135 226 c 4
EndSplineSet
Fore
SplineSet
401.528320312 550.884765625 m 5xec
 361.385742188 632.709960938 l 5
 288.329101562 661.022460938 l 5
 152.282226562 561.822265625 l 5
 117.975585938 369.3046875 l 5
 192.680664062 448.706054688 l 5
 287.22265625 469.237304688 l 5
 452.133789062 397.201171875 l 5
 510.646484375 229.485351562 l 5
 450.834960938 53.4248046875 l 5
 280.1640625 -22.4296875 l 5
 77.91796875 88.37109375 l 5
 30.291015625 334.520507812 l 5
 95.18359375 636.426757812 l 5
 283.311523438 742.499023438 l 5
 426.77734375 693.809570312 l 5
 478.0703125 587.458984375 l 5
 401.528320312 550.884765625 l 5xec
271.9140625 59.216796875 m 5
 378.607421875 107.26953125 l 5
 411.819335938 223.446289062 l 5
 378.672851562 339.623046875 l 5
 271.9140625 387.67578125 l 5
 172.9921875 339.588867188 l 5
 132.178710938 223.446289062 l 5
 171.110351562 107.303710938 l 5
 271.9140625 59.216796875 l 5
EndSplineSet
Validated: 1
Layer: 2
EndChar
StartChar: seven
Encoding: 23 55 124
Width: 556
Flags: HMW
HStem: 0 21G<150 246 150 150> 635 85<50 391 50 491 50 491>
VStem: 150 96<0 0>
LayerCount: 3
Back
SplineSet
391 635 m 5
 50 635 l 5
 50 720 l 5
 491 720 l 5
 491 635 l 5
 345 459 259 234 246 0 c 5
 150 0 l 5
 154 218 255 466 391 635 c 5
EndSplineSet
Fore
SplineSet
49.58984375 635.451171875 m 1
 49.58984375 720.201171875 l 1
 491.328125 720.201171875 l 1
 491.41015625 635.500976562 l 1
 319.553710938 338.783203125 l 1
 245 -8 l 1
 151 12 l 5
 220.088867188 335.338867188 l 1
 391.524414062 635.451171875 l 1
 49.58984375 635.451171875 l 1
EndSplineSet
Validated: 1
Layer: 2
EndChar
StartChar: eight
Encoding: 24 56 125
Width: 556
Flags: HMW
HStem: -15 80<231.5 322.5 231.5 347> 356 75<241 313 241 322.5> 665 70<241 313>
VStem: 45 92<169.5 247.5> 73 88<515.5 580.5 515.5 607> 394 88<515.5 580.5> 419 63 419 92<169.5 247.5 135 250.5>
LayerCount: 3
Back
SplineSet
45 200 m 4xf1
 45 295 96 367 179 399 c 5
 116 424 73 472 73 550 c 4
 73 664 158 735 277 735 c 4
 396 735 482 664 482 550 c 4xea
 482 472 439 424 376 399 c 5
 459 367 511 295 511 200 c 4
 511 70 417 -15 277 -15 c 4
 137 -15 45 70 45 200 c 4xf1
137 210 m 4
 137 129 186 65 277 65 c 4
 368 65 419 129 419 210 c 4
 419 291 368 356 277 356 c 4
 186 356 137 291 137 210 c 4
161 548 m 4xec
 161 483 205 431 277 431 c 4
 349 431 394 483 394 548 c 4
 394 613 349 665 277 665 c 4
 205 665 161 613 161 548 c 4xec
EndSplineSet
Fore
SplineSet
177.09765625 399.752929688 m 5xf0
 98.9375 456.514648438 l 5
 69.0009765625 553.77734375 l 5
 127.578125 691.768554688 l 5
 277.115234375 742.5 l 5
 427.162109375 691.768554688 l 5
 486.25 553.77734375 l 5
 456.282226562 456.514648438 l 5
 378.153320312 399.752929688 l 5
 478.659179688 322.358398438 l 5
 515.76171875 196.741210938 l 5
 449.9765625 37.39453125 l 5
 277.030273438 -22.513671875 l 5
 105.104492188 37.39453125 l 5
 40.3388671875 196.741210938 l 5
 77.0166015625 322.358398438 l 5
 177.09765625 399.752929688 l 5xf0
277.115234375 59.1328125 m 5
 384.362304688 102.116210938 l 5
 421.953125 207.033203125 l 5
 384.362304688 312.493164062 l 5
 277.115234375 355.953125 l 5
 170.846679688 312.493164062 l 5
 134.232421875 207.033203125 l 5
 170.846679688 102.083007812 l 5
 277.115234375 59.1328125 l 5
277.115234375 432.412109375 m 5
 364.301757812 467.23046875 l 5
 396.438476562 551.735351562 l 5
 364.301757812 636.2734375 l 5
 277.115234375 671.059570312 l 5
 190.440429688 636.240234375 l 5
 158.8125 551.735351562 l 5
 190.407226562 467.23046875 l 5
 277.115234375 432.412109375 l 5
EndSplineSet
Validated: 1
Layer: 2
EndChar
StartChar: nine
Encoding: 25 57 126
Width: 556
Flags: HMW
HStem: -15 80<234 330.5 234 345.5> 263 80<221 283.5> 655 80<221 309.5>
VStem: 35 92<454.5 543.5 454.5 562.5> 406 100<454.5 473.5 257 543.5> 420 86
LayerCount: 3
Back
SplineSet
54 163 m 5xf8
 142 173 l 5
 157 103 205 65 263 65 c 4
 398 65 418 233 420 355 c 5
 382 294 321 263 246 263 c 4
 117 263 35 372 35 497 c 4
 35 628 123 735 259 735 c 4
 461 735 506 562 506 385 c 4
 506 129 426 -15 265 -15 c 4
 142 -15 74 53 54 163 c 5xf8
406 499 m 4
 406 588 350 655 269 655 c 4xf4
 173 655 127 588 127 499 c 4
 127 410 173 343 269 343 c 4
 345 343 406 410 406 499 c 4
EndSplineSet
Fore
SplineSet
139.407226562 169.270507812 m 5xf0
 184.716796875 87.4443359375 l 5
 262.8125 59.1318359375 l 5
 393.756835938 160.374023438 l 5
 422.958984375 354.932617188 l 5
 346.610351562 284.239257812 l 5
 245.461914062 261.037109375 l 5
 88.537109375 332.563476562 l 5
 30.2890625 499.770507812 l 5
 92.544921875 671.236328125 l 5
 258.900390625 742.499023438 l 5
 462.135742188 631.698242188 l 5
 510.814453125 385.548828125 l 5
 449.495117188 83.642578125 l 5
 264.938476562 -22.4296875 l 5
 117.932617188 26.259765625 l 5
 62.9287109375 134.579101562 l 5
 139.407226562 169.270507812 l 5xf0
269.020507812 660.852539062 m 5
 159.860351562 615.350585938 l 5
 124.182617188 501.7265625 l 5
 159.860351562 388.1015625 l 5
 269.020507812 342.599609375 l 5
 367.943359375 388.134765625 l 5
 408.756835938 501.7265625 l 5
 369.857421875 615.317382812 l 5
 269.020507812 660.852539062 l 5
EndSplineSet
Validated: 1
Layer: 2
EndChar
StartChar: colon
Encoding: 26 58 142
Width: 239
Flags: HMW
HStem: 82 100<70 161 70 161> 342 100<70 161 70 161>
VStem: 70 91<82 182 342 442>
LayerCount: 3
Back
SplineSet
139.390625 68.2001953125 m 5
 93.16015625 67.94921875 l 5
 60.3076171875 103.696289062 l 5
 60.080078125 154.5 l 5
 92.609375 190.600585938 l 5
 138.83984375 190.850585938 l 5
 171.692382812 155.104492188 l 5
 171.919921875 104.30078125 l 5
 139.390625 68.2001953125 l 5
139.390625 333.399414062 m 5
 93.16015625 333.149414062 l 5
 60.3076171875 368.895507812 l 5
 60.080078125 419.69921875 l 5
 92.609375 455.799804688 l 5
 138.83984375 456.05078125 l 5
 171.692382812 420.303710938 l 5
 171.919921875 369.5 l 5
 139.390625 333.399414062 l 5
EndSplineSet
Fore
SplineSet
139.140625 333.099609375 m 1
 92.91015625 333.100585938 l 1
 60.0576171875 368.845703125 l 1
 60.080078125 419.649414062 l 1
 92.359375 456 l 1
 138.58984375 455.999023438 l 1
 171.75 419.549804688 l 1
 171.669921875 368.700195312 l 1
 139.140625 333.099609375 l 1
139.140625 68.099609375 m 1
 92.91015625 68.1005859375 l 1
 60.0576171875 103.845703125 l 1
 60.080078125 154.649414062 l 1
 92.359375 191 l 1
 138.58984375 190.999023438 l 1
 171.75 154.549804688 l 1
 171.669921875 103.700195312 l 1
 139.140625 68.099609375 l 1
EndSplineSet
Validated: 1
Layer: 2
EndChar
StartChar: semicolon
Encoding: 27 59 154
Width: 231
Flags: HMW
HStem: -142 21G<88 88> 0 21G<70 121 70 70 170 170> 100 242<70 161 70 170 70 170>
VStem: 70 100<0 100> 121 49<-32 0>
LayerCount: 3
Back
SplineSet
358 342 m 5xf0
 267 342 l 5
 267 442 l 5
 358 442 l 5
 358 342 l 5xf0
318 0 m 5
 267 0 l 5
 267 100 l 5
 367 100 l 5
 367 0 l 6
 367 -71 340 -118 285 -142 c 5xe8
 261 -104 l 5
 296 -89 318 -64 318 0 c 5
EndSplineSet
Fore
SplineSet
139.140625 333.099609375 m 5
 92.91015625 333.100585938 l 5
 60.0576171875 368.845703125 l 5
 60.080078125 419.649414062 l 5
 92.359375 456 l 5
 138.58984375 455.999023438 l 5
 171.75 419.549804688 l 5
 171.669921875 368.700195312 l 5
 139.140625 333.099609375 l 5
98.8447265625 98.998046875 m 1
 98.8447265625 99 l 1
 141.092773438 99 l 1
 170.953125 69.134765625 l 1
 170.953125 26.888671875 l 1
 170.953125 -2.974609375 l 1
 150.170898438 -93.3818359375 l 1
 87.3515625 -147.8125 l 1
 79.2119140625 -134.884765625 71.078125 -121.958007812 62.94140625 -109.030273438 c 1
 105.424804688 -74.7548828125 l 1
 121.115234375 -2.9765625 l 1
 121.115234375 -2.9765625 l 1
 98.83984375 -2.9765625 l 1
 68.9794921875 26.892578125 l 1
 68.9794921875 69.138671875 l 1
 98.8447265625 98.998046875 l 1
EndSplineSet
Validated: 5
Layer: 2
EndChar
StartChar: less
Encoding: 28 60 166
Width: 556
Flags: HMW
HStem: 72 21G<473 473> 607 20G<473 473>
LayerCount: 3
Back
Fore
SplineSet
89.1796875 300.030273438 m 5
 89.1796875 398.969726562 l 5
 432.919921875 606.030273438 l 5
 476.780273438 532.58984375 l 5
 169.759765625 352.049804688 l 5
 478.8203125 168.450195312 l 5
 432.919921875 92.9697265625 l 5
 89.1796875 300.030273438 l 5
EndSplineSet
Validated: 1
Layer: 2
EndChar
StartChar: equal
Encoding: 29 61 145
Width: 556
Flags: HMW
HStem: 245 75<50 506 50 506> 405 75<50 506 50 506>
LayerCount: 3
Back
Fore
SplineSet
510.559570312 242.650390625 m 1
 45.4404296875 242.650390625 l 1
 45.4404296875 319.150390625 l 1
 510.559570312 319.150390625 l 1
 510.559570312 242.650390625 l 1
510.559570312 405.849609375 m 1
 45.4404296875 405.849609375 l 1
 45.4404296875 482.349609375 l 1
 510.559570312 482.349609375 l 1
 510.559570312 405.849609375 l 1
EndSplineSet
Validated: 1
Layer: 2
EndChar
StartChar: greater
Encoding: 30 62 167
Width: 556
Flags: HMW
HStem: 72 21G<93 93> 607 20G<93 93>
LayerCount: 3
Back
Fore
SplineSet
476.799804688 398.969726562 m 5
 476.799804688 300.030273438 l 5
 136.120117188 93.990234375 l 5
 89.2001953125 169.469726562 l 5
 396.219726562 352.049804688 l 5
 90.2197265625 531.5703125 l 5
 135.099609375 605.009765625 l 5
 476.799804688 398.969726562 l 5
EndSplineSet
Validated: 1
Layer: 2
EndChar
StartChar: question
Encoding: 31 63 133
Width: 561
Flags: HMW
HStem: 0 100<222 322 222 322> 655 80<234 305>
VStem: 227 95 403 95<496.5 574>
LayerCount: 3
Back
SplineSet
312 176 m 5
 227 176 l 5
 227 203 l 6
 227 284 252 343 318 388 c 4
 362 418 403 466 403 527 c 4
 403 621 341 655 269 655 c 4
 199 655 145 611 135 514 c 5
 49 524 l 5
 61 656 148 735 268 735 c 4
 406 735 498 656 498 533 c 4
 498 435 434 384 373 333 c 4
 325 293 314 260 312 203 c 6
 312 176 l 5
322 0 m 5
 222 0 l 5
 222 100 l 5
 322 100 l 5
 322 0 l 5
EndSplineSet
Fore
SplineSet
297.676757812 -12.5478515625 m 1
 247.284179688 -12.796875 l 1
 211.4765625 22.9482421875 l 1
 211.229492188 73.751953125 l 1
 246.684570312 109.852539062 l 1
 297.077148438 110.1015625 l 1
 332.884765625 74.3564453125 l 1
 333.131835938 23.552734375 l 1
 297.676757812 -12.5478515625 l 1
225.639648438 172.184570312 m 1
 225.639648438 199.740234375 l 1
 246.806640625 307.879882812 l 1
 318.427734375 388.463867188 l 1
 378.68359375 447.521484375 l 1
 405.26171875 530.240234375 l 1
 364.481445312 631.45703125 l 1
 268.588867188 660.790039062 l 1
 177.40625 626.004882812 l 1
 132.084960938 516.97265625 l 1
 55.6201171875 551.612304688 l 1
 114.83203125 685.25 l 1
 267.73828125 742.3515625 l 1
 437.846679688 686.3984375 l 1
 502.387695312 536.364257812 l 1
 461.958007812 416.39453125 l 1
 374.899414062 332.33203125 l 1
 326.251953125 272.576171875 l 1
 312.814453125 199.740234375 l 1
 312.814453125 172.184570312 l 1
 225.639648438 172.184570312 l 1
EndSplineSet
Validated: 1
Layer: 2
EndChar
StartChar: at
Encoding: 32 64 202
Width: 745
Flags: HMW
HStem: -110 75<295.968 406.468 295.968 415.468> 54 71<338.468 384.468 549.468 589.468> 395 71<338.468 386.968 306.968 388.468> 555 75<295.968 450.468>
VStem: 32.9678 85<176.5 343.5 176.5 363.5> 193.968 78<215.5 304.5 215.5 320.5> 460.968 71<215.5 304.5> 622.968 85<239 363.5>
LayerCount: 3
Back
SplineSet
534 455 m 5
 534 199 l 6
 534 192 532 125 571 125 c 4
 612 125 625 198 625 280 c 4
 625 447 532 555 373 555 c 4
 223 555 120 427 120 260 c 4
 120 93 213 -35 383 -35 c 4
 434 -35 490 -20 528 16 c 5
 593 -36 l 5
 542 -88 452 -110 383 -110 c 4
 163 -110 35 53 35 260 c 4
 35 467 163 630 373 630 c 4
 582 630 710 487 710 280 c 4
 710 179 675 54 572 54 c 4
 529 54 485 87 478 128 c 5
 466 106 l 5
 444 75 410 54 363 54 c 4
 255 54 196 138 196 260 c 4
 196 381 255 466 363 466 c 4
 415 466 451 439 474 402 c 5
 474 455 l 5
 534 455 l 5
463 260 m 4
 463 349 414 395 367 395 c 4
 314 395 274 349 274 260 c 4
 274 171 314 125 367 125 c 4
 420 125 463 171 463 260 c 4
EndSplineSet
Fore
SplineSet
539.435546875 157.342773438 m 5
 573.166992188 122.259765625 l 5
 616.340820312 169.9296875 l 5
 628.193359375 280.366210938 l 5
 560.473632812 484.458007812 l 5
 371.176757812 560.857421875 l 5
 184.82421875 474.28515625 l 5
 113.22265625 259.954101562 l 5
 182.260742188 45.623046875 l 5
 381.296875 -40.94921875 l 5
 460.264648438 -28.7021484375 l 5
 529.282226562 11.1005859375 l 5
 569.877929688 -57.21875 l 5
 495.31640625 -99.6328125 l 5
 381.126953125 -117.493164062 l 5
 119.538085938 -7.9580078125 l 5
 26.2177734375 259.954101562 l 5
 118.2734375 527.866210938 l 5
 371.005859375 637.401367188 l 5
 622.8046875 538.080078125 l 5
 714.688476562 280.451171875 l 5
 683.751953125 126.545898438 l 5
 574.102539062 49.8837890625 l 5
 512.368164062 71.953125 l 5
 478.251953125 125.407226562 l 5
 465.834960938 102.954101562 l 5
 422.864257812 64.5546875 l 5
 360.885742188 49.8837890625 l 5
 234.30078125 108.303710938 l 5
 190.447265625 260.0390625 l 5
 234.30078125 411.392578125 l 5
 360.885742188 470.194335938 l 5
 428.57421875 451.697265625 l 5
 474 402 l 5
 474 455 l 5
 534 455 l 5
 534 198 l 5
 539.435546875 157.342773438 l 5
365.135742188 397.6484375 m 5
 297.4375 362.830078125 l 5
 270.306640625 259.954101562 l 5
 297.4375 157.079101562 l 5
 365.135742188 122.259765625 l 5
 434.323242188 157.079101562 l 5
 462.942382812 259.954101562 l 5
 432.090820312 362.830078125 l 5
 365.135742188 397.6484375 l 5
EndSplineSet
Validated: 1
Layer: 2
EndChar
StartChar: B
Encoding: 34 66 91
Width: 674
Flags: HMW
HStem: 0 85<174.74 352.74 174.74 352.74> 325 85<174.74 329.74 174.74 329.74 329.74 339.74> 635 85<174.74 174.74 174.74 317.74>
VStem: 79.7402 95<85 325 410 635> 492.74 98<499 570> 522.74 101<159 250.5 132 256.5>
LayerCount: 3
Back
SplineSet
352 0 m 6xf4
 79 0 l 5
 79 720 l 5
 338 720 l 6
 484 720 590 661 590 533 c 4
 590 465 559 402 480 376 c 5
 566 355 623 293 623 208 c 4
 623 56 515 0 352 0 c 6xf4
174 635 m 5xf8
 174 410 l 5xf4
 329 410 l 6
 412 410 492 433 492 521 c 4
 492 619 411 635 317 635 c 6
 174 635 l 5xf8
174 325 m 5
 174 85 l 5
 352 85 l 6xf8
 450 85 522 110 522 208 c 4
 522 305 432 325 339 325 c 6
 174 325 l 5
EndSplineSet
Fore
SplineSet
78.55859375 -0.28125 m 1xf0
 78.55859375 720.201171875 l 1
 341.805664062 720.201171875 l 1
 526.084960938 680.772460938 l 1
 598.737304688 536.435546875 l 1
 572.89453125 440.323242188 l 1
 480.643554688 376.2890625 l 1
 592.498046875 315.063476562 l 1
 632.586914062 204.916015625 l 1
 556.702148438 40.677734375 l 1
 356.178710938 -0.28125 l 1
 78.55859375 -0.28125 l 1xf0
174.4296875 410.07421875 m 1
 332.534179688 410.07421875 l 1
 447.362304688 434.028320312 l 1
 498.720703125 524.274414062 l 1
 445.44921875 619.877929688 l 1
 320.288085938 634.536132812 l 1
 174.259765625 634.536132812 l 1
 174.4296875 410.07421875 l 1
174.4296875 84.5537109375 m 1
 356.178710938 84.5537109375 l 1
 480.318359375 104.8046875 l 1
 529.5078125 205.000976562 l 1
 471.770507812 301.786132812 l 1
 342.911132812 325.32421875 l 1
 174.598632812 325.32421875 l 1
 174.4296875 84.5537109375 l 1
EndSplineSet
Validated: 1
Layer: 2
EndChar
StartChar: C
Encoding: 35 67 92
Width: 734
Flags: HMW
HStem: -15 80<303 437 303 465> 655 80<308 442>
VStem: 50 100<276.5 443.5 276.5 463.5>
LayerCount: 3
Back
SplineSet
150 360 m 4
 150 193 223 65 383 65 c 4
 491 65 558 132 587 233 c 5
 684 214 l 5
 652 79 547 -15 383 -15 c 4
 163 -15 50 153 50 360 c 4
 50 567 163 735 383 735 c 4
 547 735 653 644 684 505 c 5
 587 486 l 5
 566 586 501 655 383 655 c 4
 233 655 150 527 150 360 c 4
EndSplineSet
Fore
SplineSet
383.485351562 59.046875 m 1
 517.767578125 106.080078125 l 1
 591.513671875 230.420898438 l 1
 674.16015625 184.560546875 l 1
 587.443359375 42.625 l 1
 383.485351562 -22.513671875 l 1
 129.475585938 89.5546875 l 1
 43.7998046875 359.950195312 l 1
 129.475585938 630.415039062 l 1
 383.485351562 742.5 l 1
 587.889648438 678.381835938 l 1
 676.200195312 531.360351562 l 1
 591.513671875 488.543945312 l 1
 524.592773438 613.012695312 l 1
 383.485351562 660.9375 l 1
 207.25390625 574.3671875 l 1
 145.7734375 360.03515625 l 1
 203.39453125 145.627929688 l 1
 383.485351562 59.046875 l 1
EndSplineSet
Validated: 1
Layer: 2
EndChar
StartChar: D
Encoding: 36 68 93
Width: 709
Flags: HMW
HStem: 0 84<178.75 308.75 308.75 318.75> 635 85<178.75 178.75 178.75 305.75>
VStem: 83.75 95<84 635 84 720 84 720> 564.75 98<269.5 465>
LayerCount: 3
Back
SplineSet
315 0 m 6
 80 0 l 5
 80 720 l 5
 304 720 l 6
 536 720 659 594 659 362 c 4
 659 137 547 0 315 0 c 6
175 635 m 5
 175 84 l 5
 305 84 l 6
 481 84 561 176 561 363 c 4
 561 567 460 635 302 635 c 6
 175 635 l 5
EndSplineSet
Fore
SplineSet
80 0 m 1
 80 720 l 1
 306 720 l 1
 576.282226562 633.374023438 l 1
 668.624023438 362.084960938 l 1
 581.926757812 91.3662109375 l 1
 319 0 l 1
 80 0 l 1
175 84 m 1
 309 84 l 1
 505.435546875 149.224609375 l 1
 568.690429688 363.021484375 l 1
 497.005859375 579.776367188 l 1
 306 635 l 1
 175 635 l 1
 175 84 l 1
EndSplineSet
Validated: 1
Layer: 2
EndChar
StartChar: E
Encoding: 37 69 94
Width: 657
Flags: HMW
HStem: 0 85<175 587 175 587> 325 85<175 527 175 527> 635 85<175 577 175 175>
VStem: 80 95<85 325 410 635>
LayerCount: 3
Back
Fore
SplineSet
587 0 m 1
 80 0 l 1
 80 720 l 1
 577 720 l 1
 577 635 l 1
 175 635 l 1
 175 410 l 1
 527 410 l 1
 527 325 l 1
 175 325 l 1
 175 85 l 1
 587 85 l 1
 587 0 l 1
EndSplineSet
Validated: 1
Layer: 2
EndChar
StartChar: F
Encoding: 38 70 95
Width: 611
Flags: MW
HStem: 0 21G<80 175 80 80> 325 85<175 511 175 511> 635 85<175 561 175 175>
VStem: 80 95<0 325 410 635>
LayerCount: 3
Back
Fore
SplineSet
175 0 m 1
 80 0 l 1
 80 720 l 1
 561 720 l 1
 561 635 l 1
 175 635 l 1
 175 410 l 1
 511 410 l 1
 511 325 l 1
 175 325 l 1
 175 0 l 1
EndSplineSet
Validated: 1
Layer: 2
EndChar
StartChar: G
Encoding: 39 71 96
Width: 760
Flags: HMW
HStem: -15 80<326 440.5 326 465.5> 281 84<395 608 395 700> 655 80<316 441.5>
VStem: 50 100<276.5 443.5 276.5 463.5> 608 92<146 281 281 281>
LayerCount: 3
Back
SplineSet
150 360 m 4
 150 193 246 65 406 65 c 4
 475 65 571 92 608 146 c 5
 608 281 l 5
 395 281 l 5
 395 365 l 5
 700 365 l 5
 700 112 l 5
 649 40 528 -15 403 -15 c 4
 183 -15 50 153 50 360 c 4
 50 567 173 735 393 735 c 4
 557 735 659 659 690 520 c 5
 595 497 l 5
 562 614 492 655 391 655 c 4
 241 655 150 527 150 360 c 4
EndSplineSet
Fore
SplineSet
406.573242188 59.1328125 m 1
 608 152 l 1
 608 152 l 1
 607.647460938 281.409179688 l 1
 395.34765625 281.409179688 l 1
 395.34765625 365.053710938 l 1
 699.45703125 365.053710938 l 1
 699.45703125 107.015625 l 1
 699.45703125 107.015625 l 1
 403.512695312 -22.513671875 l 1
 139.340820312 89.5546875 l 1
 43.5 359.950195312 l 1
 134.268554688 630.415039062 l 1
 393.306640625 742.5 l 1
 595.616210938 686.02734375 l 1
 679.98046875 549.719726562 l 1
 599.379882812 499.771484375 l 1
 521.315429688 625.098632812 l 1
 391.265625 660.9375 l 1
 210.952148438 574.3671875 l 1
 145.388671875 360.03515625 l 1
 214 146.985351562 l 1
 406.573242188 59.1328125 l 1
EndSplineSet
Validated: 5
Layer: 2
EndChar
StartChar: H
Encoding: 40 72 97
Width: 722
Flags: MW
HStem: 0 21G<80 175 80 80 547 547 547 642> 325 85<175 547 175 547> 700 20G<80 175 175 175 547 642 642 642>
VStem: 80 95<0 325 410 720> 547 95<0 325 325 325 410 720 0 720>
LayerCount: 3
Back
Fore
SplineSet
175 0 m 1
 80 0 l 1
 80 720 l 1
 175 720 l 1
 175 410 l 1
 547 410 l 1
 547 720 l 1
 642 720 l 1
 642 0 l 1
 547 0 l 1
 547 325 l 1
 175 325 l 1
 175 0 l 1
EndSplineSet
Validated: 1
Layer: 2
EndChar
StartChar: I
Encoding: 41 73 98
Width: 255
Flags: MW
HStem: 0 21G<80 175 80 80> 700 20G<80 175 175 175>
VStem: 80 95<0 720>
LayerCount: 3
Back
Fore
SplineSet
175 0 m 1
 80 0 l 1
 80 720 l 1
 175 720 l 1
 175 0 l 1
EndSplineSet
Validated: 1
Layer: 2
EndChar
StartChar: J
Encoding: 42 74 99
Width: 516
Flags: HMW
HStem: -15 80<179.272 269.772 179.272 290.772> 700 20G<338.772 433.772 433.772 433.772>
VStem: 18.7725 86<193 205> 338.772 95<223 228 228 720>
LayerCount: 3
Back
SplineSet
21 193 m 5
 107 205 l 5
 109 132 139 65 224 65 c 4
 320 65 341 140 341 223 c 6
 341 720 l 5
 436 720 l 5
 436 228 l 6
 436 71 362 -15 224 -15 c 4
 93 -15 18 65 21 193 c 5
EndSplineSet
Fore
SplineSet
102.4375 202.087890625 m 1
 130.322265625 102.78515625 l 1
 221.67578125 59.291015625 l 1
 318.046875 108.109375 l 1
 341 223.903320312 l 1
 341 720 l 1
 436 720 l 1
 436 219 l 1
 382.599609375 41.5078125 l 1
 221.67578125 -22.35546875 l 1
 66.908203125 34.7548828125 l 1
 18.662109375 178.58984375 l 1
 102.4375 202.087890625 l 1
EndSplineSet
Validated: 1
Layer: 2
EndChar
StartChar: K
Encoding: 43 75 100
Width: 698
Flags: HMW
HStem: 0 21G<80 175 80 80 533 533 533 658> 700 20G<80 175 175 175 516 638 638 638>
VStem: 80 95<0 238 352 720>
LayerCount: 3
Back
Fore
SplineSet
175 0 m 1
 80 0 l 1
 80 720 l 1
 175 720 l 1
 175 352 l 1
 524 728.090820312 l 1
 589 668 l 1
 339 409 l 1
 618 51 l 1
 539 -8 l 1
 274 342 l 1
 175 238 l 1
 175 0 l 1
EndSplineSet
Validated: 1
Layer: 2
EndChar
StartChar: L
Encoding: 44 76 101
Width: 608
Flags: MW
HStem: 0 85<175 578 175 578> 700 20G<80 175 175 175>
VStem: 80 95<85 720 85 720 85 720>
LayerCount: 3
Back
Fore
SplineSet
578 0 m 1
 80 0 l 1
 80 720 l 1
 175 720 l 1
 175 85 l 1
 578 85 l 1
 578 0 l 1
EndSplineSet
Validated: 1
Layer: 2
EndChar
StartChar: M
Encoding: 45 77 102
Width: 863
Flags: HMW
HStem: 0 21G<80 175 80 80 389 389 389 474 688 688 688 783> 700 20G<80 219 219 219 652 783 783 783>
VStem: 80 95<0 598> 688 95<0 598 598 598>
LayerCount: 3
Back
Fore
SplineSet
175 0 m 1
 80 0 l 1
 80 720 l 1
 219 720 l 1
 433 123 l 1
 652 720 l 1
 783 720 l 1
 783 0 l 1
 688 0 l 1
 688 598 l 1
 474 0 l 1
 389 0 l 1
 175 598 l 1
 175 0 l 1
EndSplineSet
Validated: 1
Layer: 2
EndChar
StartChar: N
Encoding: 46 78 103
Width: 724
Flags: HMW
HStem: 0 21G<80 171 80 80 547 547 547 644> 700 20G<80 177 177 177 553 644 644 644>
VStem: 80 91<0 566> 553 91<154 720 0 720>
LayerCount: 3
Back
Fore
SplineSet
171 0 m 1
 80 0 l 1
 80 720 l 1
 177 720 l 1
 553 154 l 1
 553 720 l 1
 644 720 l 1
 644 0 l 1
 547 0 l 1
 171 566 l 1
 171 0 l 1
EndSplineSet
Validated: 1
Layer: 2
EndChar
StartChar: O
Encoding: 47 79 104
Width: 785
Flags: HMW
HStem: -15 80<313 467.5 313 502.5> 655 80<318 467.5>
VStem: 50 100<276.5 443.5 276.5 463.5> 635 100<276.5 443.5>
LayerCount: 3
Back
SplineSet
50 360 m 4
 50 567 173 735 393 735 c 4
 612 735 735 567 735 360 c 4
 735 153 612 -15 393 -15 c 4
 173 -15 50 153 50 360 c 4
150 360 m 4
 150 193 233 65 393 65 c 4
 542 65 635 193 635 360 c 4
 635 527 542 655 393 655 c 4
 243 655 150 527 150 360 c 4
EndSplineSet
Fore
SplineSet
392.956054688 742.5 m 1
 651.184570312 630.415039062 l 1
 741.911132812 359.950195312 l 1
 651.184570312 89.5625 l 1
 392.956054688 -22.513671875 l 1
 133.885742188 89.5625 l 1
 43.1494140625 359.950195312 l 1
 133.916992188 630.415039062 l 1
 392.956054688 742.5 l 1
392.956054688 59.1328125 m 1
 573.322265625 145.703125 l 1
 639.766601562 360.03515625 l 1
 573.322265625 574.3671875 l 1
 392.956054688 660.9375 l 1
 211.588867188 574.3671875 l 1
 145.038085938 360.03515625 l 1
 207.793945312 145.703125 l 1
 392.956054688 59.1328125 l 1
EndSplineSet
Validated: 1
Layer: 2
EndChar
StartChar: P
Encoding: 48 80 105
Width: 657
Flags: HMW
HStem: 0 21G<83.2305 178.23 83.2305 83.2305> 290 85<178.23 341.23 178.23 343.23> 635 85<178.23 178.23 178.23 333.23 333.23 341.23>
VStem: 83.2305 95<0 290 375 635> 512.23 98<462.5 560>
LayerCount: 3
Back
SplineSet
175 0 m 5
 80 0 l 5
 80 720 l 5
 330 720 l 6
 475 720 607 674 607 509 c 4
 607 364 517 290 338 290 c 6
 175 290 l 5
 175 0 l 5
175 635 m 5
 175 375 l 5
 340 375 l 6
 453 375 509 419 509 506 c 4
 509 614 433 635 338 635 c 6
 175 635 l 5
EndSplineSet
Fore
SplineSet
80 0 m 1
 80 720 l 1
 334 720 l 1
 529.75 682.685546875 l 1
 615.553710938 511.94140625 l 1
 546.802734375 344.811523438 l 1
 341 290 l 1
 175 290 l 1
 175 0 l 1
 80 0 l 1
175 375.352539062 m 1
 343.3125 375.352539062 l 1
 472.650390625 408.896484375 l 1
 515.622070312 508.96484375 l 1
 464.76171875 613.049804688 l 1
 341 641 l 1
 175 641 l 1
 175 375.352539062 l 1
EndSplineSet
Validated: 1
Layer: 2
EndChar
StartChar: Q
Encoding: 49 81 106
Width: 785
Flags: HMW
HStem: -59 21G<645 645> -15 80<313 415 313 426.5> 655 80<318 467.5>
VStem: 50 100<276.5 443.5 276.5 463.5> 635 100<320 443.5>
LayerCount: 3
Back
SplineSet
393.040039062 742.940429688 m 5
 651.227539062 630.854492188 l 5
 741.911132812 360.390625 l 5
 716.5234375 205.380859375 l 5
 642.913085938 80.9208984375 l 5
 719.458007812 -6.765625 l 5
 650.05859375 -66.9794921875 l 5
 570.452148438 22.7470703125 l 5
 489.017578125 -10.345703125 l 5
 393.040039062 -22.0732421875 l 5
 133.896484375 89.9951171875 l 5
 43.1494140625 360.390625 l 5
 133.896484375 630.854492188 l 5
 393.040039062 742.940429688 l 5
504.11328125 239.111328125 m 5
 578.616210938 153.381835938 l 5
 624.161132812 246.24609375 l 5
 639.852539062 360.475585938 l 5
 573.450195312 574.807617188 l 5
 393.125 661.377929688 l 5
 211.727539062 574.807617188 l 5
 145.208007812 360.475585938 l 5
 207.962890625 146.178710938 l 5
 393.125 59.5732421875 l 5
 456.422851562 67.7373046875 l 5
 511.427734375 91.2109375 l 5
 434.969726562 178.896484375 l 5
 504.11328125 239.111328125 l 5
50 360 m 4
 50 567 173 735 393 735 c 4
 612 735 735 567 735 360 c 4
 735 252 701 154 638 86 c 5
 713 0 l 5
 645 -59 l 5
 567 29 l 5
 519 1 460 -15 393 -15 c 4
 173 -15 50 153 50 360 c 4
434 182 m 5
 502 241 l 5
 575 157 l 5
 614 209 635 280 635 360 c 4
 635 527 542 655 393 655 c 4
 243 655 150 527 150 360 c 4
 150 193 233 65 393 65 c 4
 437 65 476 76 509 96 c 5
 434 182 l 5
EndSplineSet
Fore
SplineSet
392.956054688 742.5 m 1
 651.184570312 630.415039062 l 1
 741.911132812 359.950195312 l 1
 651.184570312 89.5625 l 1
 650.619541563 89.3172665908 l 1
 729 0 l 1
 660 -61 l 1
 561.25550894 50.5315474559 l 1
 392.956054688 -22.513671875 l 1
 133.885742188 89.5625 l 1
 43.1494140625 359.950195312 l 1
 133.916992188 630.415039062 l 1
 392.956054688 742.5 l 1
580.583457188 169.125827855 m 1
 639.766601562 360.03515625 l 1
 573.322265625 574.3671875 l 1
 392.956054688 660.9375 l 1
 211.588867188 574.3671875 l 1
 145.038085938 360.03515625 l 1
 207.793945312 145.703125 l 1
 392.956054688 59.1328125 l 1
 505.986532661 113.384014814 l 1
 445 184 l 1
 514 245 l 1
 580.583457188 169.125827855 l 1
EndSplineSet
Validated: 1
Layer: 2
EndChar
StartChar: R
Encoding: 50 82 107
Width: 683
Flags: HMW
HStem: 0 21G<80 80 80 175 553 553 553 667> 290 85<175 268 175 330> 635 85<175 175 175 320 320 328>
VStem: 80 95<0 290 0 375 375 635> 499 98<462.5 555>
LayerCount: 3
Back
SplineSet
80.1669921875 720 m 5
 320.137695312 720 l 5
 512.936523438 674.482421875 l 5
 597.046875 508.961914062 l 5
 551.46875 378.586914062 l 5
 415.025390625 314.93359375 l 5
 506.370117188 256.317382812 l 5
 569.948242188 166.932617188 l 5
 649 31 l 5
 561 -15 l 5
 484.982421875 120.90625 l 5
 397.504882812 242.559570312 l 5
 267.94140625 289.919921875 l 5
 174.971679688 289.919921875 l 5
 174.971679688 -0.080078125 l 5
 80 -0.080078125 l 5
 80.1669921875 720 l 5
175.137695312 375.051757812 m 5
 330.143554688 375.051757812 l 5
 456.904296875 407.9375 l 5
 498.990234375 506.043945312 l 5
 449.12890625 607.27734375 l 5
 327.975585938 635.034179688 l 5
 174.971679688 635.034179688 l 5
 175.137695312 375.051757812 l 5
80 0 m 5
 80 720 l 5
 320 720 l 6
 465 720 597 669 597 509 c 4
 597 399 536 336 415 315 c 5
 488 294 534 229 570 167 c 6
 667 0 l 5
 553 0 l 5
 485 121 l 6
 430 220 379 290 268 290 c 6
 175 290 l 5
 175 0 l 5
 80 0 l 5
175 635 m 5
 175 375 l 5
 330 375 l 6
 443 375 499 419 499 506 c 4
 499 604 423 635 328 635 c 6
 175 635 l 5
EndSplineSet
Fore
SplineSet
175 375.352539062 m 1
 343.3125 375.352539062 l 1
 472.650390625 408.896484375 l 1
 515.622070312 508.96484375 l 1
 464.76171875 613.049804688 l 1
 341 641 l 1
 175 641 l 1
 175 375.352539062 l 1
80 0 m 1
 80 720 l 1
 334 720 l 1
 529.75 682.685546875 l 1
 615.553710938 511.94140625 l 1
 546.802734375 344.811523438 l 1
 479 327 l 1
 645 38 l 1
 557 -8 l 1
 383 302 l 1
 336 290 l 1
 175 290 l 1
 175 0 l 1
 80 0 l 1
EndSplineSet
Validated: 1
Layer: 2
EndChar
StartChar: S
Encoding: 51 83 108
Width: 665
Flags: HMW
HStem: -15 80<289.5 398 289.5 413.5> 510 225 655 80<290.5 381.5>
VStem: 50 94<230 238> 77 92<518.5 579 518.5 599.5> 513 102<155.5 217>
LayerCount: 3
Back
SplineSet
50 230 m 5xd4
 144 238 l 5
 152 123 233 65 346 65 c 4
 450 65 513 117 513 194 c 4
 513 240 490 278 434 300 c 4
 396 315 268 345 225 359 c 4xd4
 96 401 77 463 77 531 c 4
 77 668 203 735 324 735 c 4
 484 735 583 664 593 514 c 5
 497 507 l 5
 488 599 435 655 328 655 c 4
 253 655 169 621 169 537 c 4
 169 500 189 469 230 454 c 4
 263 441 369 411 438 392 c 4
 543 362 615 309 615 199 c 4
 615 52 477 -15 350 -15 c 4xac
 169 -15 61 67 50 230 c 5xd4
EndSplineSet
Fore
SplineSet
139.908203125 235.608398438 m 1xb4
 202.823242188 103.391601562 l 1
 345.982421875 59.1318359375 l 1
 470.9609375 95.4814453125 l 1
 516.334960938 190.702148438 l 1
 495.990234375 255.067382812 l 1
 432.200195312 299.87109375 l 1
 222.576171875 359.014648438 l 1
 97.8408203125 436.791015625 l 1
 71.7841796875 534.469726562 l 1
 151.463867188 690.8828125 l 1
 323.698242188 742.499023438 l 1
 518.237304688 687.18359375 l 1
 584.828125 542.579101562 l 1
 500.345703125 509.9765625 l 1
 451.623046875 620.666992188 l 1
 327.952148438 660.9375 l 1
 218.228515625 632.879882812 l 1
 165.848632812 540.592773438 l 1
 182.791992188 488.73046875 l 1
 233.49609375 454.141601562 l 0
 440.130859375 392.608398438 l 1
 570.595703125 324.82421875 l 1
 620.689453125 195.805664062 l 1
 534.099609375 30.4619140625 l 1
 350.234375 -22.4296875 l 1
 132.232421875 40.1572265625 l 1
 56.46875 199.859375 l 1
 139.908203125 235.608398438 l 1xb4
EndSplineSet
Validated: 1
Layer: 2
EndChar
StartChar: T
Encoding: 52 84 109
Width: 619
Flags: MW
HStem: 0 21G<262 357 262 262> 635 85<20 262 20 599 357 357 357 599>
VStem: 262 95<0 635>
LayerCount: 3
Back
Fore
SplineSet
357 0 m 1
 262 0 l 1
 262 635 l 1
 20 635 l 1
 20 720 l 1
 599 720 l 1
 599 635 l 1
 357 635 l 1
 357 0 l 1
EndSplineSet
Validated: 1
Layer: 2
EndChar
StartChar: U
Encoding: 53 85 110
Width: 723
Flags: HMW
HStem: -15 85<296.5 429.5 296.5 460.5> 700 20G<80 175 175 175 548 643 643 643>
VStem: 80 95<302 720> 548 95<297 302 302 720>
LayerCount: 3
Back
SplineSet
594 297 m 6
 594 720 l 5
 689 720 l 5
 689 302 l 6
 689 117 605 -15 408 -15 c 4
 213 -15 126 117 126 302 c 6
 126 720 l 5
 221 720 l 5
 221 297 l 6
 221 159 276 70 409 70 c 4
 542 70 594 159 594 297 c 6
EndSplineSet
Fore
SplineSet
548.663085938 720.349609375 m 2
 642.704101562 720.349609375 l 1
 642.704101562 301 l 1
 580.728515625 68.5537109375 l 1
 362.08984375 -22.35546875 l 1
 143.630859375 68.5537109375 l 1
 79.369140625 302.888671875 l 1
 79.369140625 720.349609375 l 1
 175.325195312 720.349609375 l 1
 175.325195312 295.897460938 l 1
 216.34765625 127.322265625 l 1
 363.110351562 64.3095703125 l 1
 508.405273438 127.288085938 l 1
 548.833007812 297.78515625 l 1
 548.662109375 720.349609375 l 1
 548.663085938 720.349609375 l 2
EndSplineSet
Validated: 5
Layer: 2
EndChar
StartChar: V
Encoding: 54 86 111
Width: 675
Flags: HMW
HStem: 0 21G<288 385 288 288> 700 20G<10 113 113 113 568 665 665 665>
LayerCount: 3
Back
Fore
SplineSet
385 0 m 1
 288 0 l 1
 19 695 l 1
 109 728.090820312 l 1
 337 109 l 1
 571 728.090820312 l 1
 657 695 l 1
 385 0 l 1
EndSplineSet
Validated: 1
Layer: 2
EndChar
StartChar: W
Encoding: 55 87 112
Width: 940
Flags: HMW
HStem: 0 21G<198 293 198 198 647 647 647 742> 700 20G<10 107 107 107 413 527 527 527 834 930 930 930>
LayerCount: 3
Back
Fore
SplineSet
293 0 m 1
 198 0 l 1
 14 706 l 1
 106 728.090820312 l 1
 250 115 l 1
 413 720 l 1
 527 720 l 1
 695 115 l 1
 836 728.090820312 l 1
 926 706 l 1
 742 0 l 1
 647 0 l 1
 470 628 l 1
 293 0 l 1
EndSplineSet
Validated: 1
Layer: 2
EndChar
StartChar: X
Encoding: 56 88 113
Width: 697
Flags: HMW
HStem: 0 21G<20 134 20 20 559 559 559 677> 700 20G<53 166 166 166 554 657 657 657>
LayerCount: 3
Back
Fore
SplineSet
127 -8 m 1
 54 46.75 l 1
 297 373 l 1
 84 676 l 1
 161 728.090820312 l 1
 353 444 l 1
 559 728.090820312 l 1
 625 676 l 1
 406 378 l 1
 644 46.75 l 1
 565 -8 l 1
 348 303 l 1
 127 -8 l 1
EndSplineSet
Validated: 1
Layer: 2
EndChar
StartChar: Z
Encoding: 58 90 115
Width: 672
Flags: MW
HStem: 0 85<169 612 60 60> 635 85<80 488 80 602 80 602>
LayerCount: 3
Back
Fore
SplineSet
612 0 m 1
 60 0 l 1
 60 85 l 1
 488 635 l 1
 80 635 l 1
 80 720 l 1
 602 720 l 1
 602 635 l 1
 169 85 l 1
 612 85 l 1
 612 0 l 1
EndSplineSet
Validated: 1
Layer: 2
EndChar
StartChar: bracketleft
Encoding: 59 91 150
Width: 337
Flags: MW
HStem: -100 85<175 297 175 297> 735 85<175 297 175 175>
VStem: 80 95<-15 735 -15 820 -15 820> 80 217<-100 -15 735 820>
LayerCount: 3
Back
Fore
SplineSet
297 -100 m 1xd0
 80 -100 l 1
 80 820 l 1
 297 820 l 1xd0
 297 735 l 1
 175 735 l 1xe0
 175 -15 l 1
 297 -15 l 1
 297 -100 l 1xd0
EndSplineSet
Validated: 1
Layer: 2
EndChar
StartChar: backslash
Encoding: 60 92 153
Width: 336
Flags: HMW
HStem: -100 21G<247 336 247 247> 800 20G<0 90 90 90>
LayerCount: 3
Back
Fore
SplineSet
330 -78 m 1
 247 -100 l 1
 6 798 l 1
 90 820 l 1
 330 -78 l 1
EndSplineSet
Validated: 1
Layer: 2
EndChar
StartChar: bracketright
Encoding: 61 93 151
Width: 337
Flags: MW
HStem: -100 85<40 162 40 257 40 162> 735 85<40 162 40 257>
VStem: 40 217<-100 -15 -15 -15 735 820> 162 95<-15 735 735 735>
LayerCount: 3
Back
Fore
SplineSet
257 -100 m 1xe0
 40 -100 l 1
 40 -15 l 1xe0
 162 -15 l 1
 162 735 l 1xd0
 40 735 l 1
 40 820 l 1
 257 820 l 1
 257 -100 l 1xe0
EndSplineSet
Validated: 1
Layer: 2
EndChar
StartChar: asciicircum
Encoding: 62 94 170
Width: 556
Flags: HMW
HStem: 470 21G<90 188 90 90 364 364> 700 20G<229 326 326 326>
LayerCount: 3
Back
SplineSet
233 728.090820312 m 5
 321 728.090820312 l 5
 444 510 l 5
 364 470 l 5
 277 641 l 5
 188 470 l 5
 110 506 l 5
 233 728.090820312 l 5
EndSplineSet
Fore
SplineSet
254 750 m 5
 119.379882812 506.840820312 l 5
 169.379882812 478.840820312 l 5
 277.02116478 641.33128809 l 5
 384 479.840820312 l 5
 434 507.840820312 l 5
 296 750 l 5
 254 750 l 5
EndSplineSet
Validated: 9
Layer: 2
EndChar
StartChar: underscore
Encoding: 63 95 141
Width: 696
Flags: HMW
HStem: 0 75<70 626 70 626>
LayerCount: 3
Back
Fore
SplineSet
631.559570312 -0.75 m 1
 64.4404296875 -0.75 l 1
 64.4404296875 75.75 l 1
 631.559570312 75.75 l 1
 631.559570312 -0.75 l 1
EndSplineSet
Validated: 1
Layer: 2
EndChar
StartChar: grave
Encoding: 64 96 195
Width: 284
Flags: HMW
HStem: 533 21G<163 234 163 163> 700 20G<40 158 158 158>
LayerCount: 3
Back
Fore
SplineSet
136.139648438 773.171875 m 1
 225 560 l 1
 175 532 l 1
 46.3798828125 726.159179688 l 1
 136.139648438 773.171875 l 1
EndSplineSet
Validated: 1
Layer: 2
EndChar
StartChar: a
Encoding: 65 97 64
Width: 545
Flags: HMW
HStem: -15 72<203 244> 0 21G<409 500 409 409> 463 72<229.5 296.5>
VStem: 36 94<108 176.5 108 193> 382 90<140 263 263 263 332 334>
LayerCount: 3
Back
SplineSet
-1297.71386719 64 m 5xb8
 -1349.71386719 6 -1410.71386719 -15 -1472.71386719 -15 c 4
 -1568.71386719 -15 -1649.71386719 31 -1649.71386719 137 c 4
 -1649.71386719 249 -1561.71386719 294 -1445.71386719 305 c 4
 -1390.71386719 310 -1329.71386719 320 -1303.71386719 332 c 5
 -1303.71386719 352 l 6
 -1303.71386719 433 -1354.71386719 463 -1423.71386719 463 c 4x78
 -1488.71386719 463 -1530.71386719 427 -1548.71386719 359 c 5
 -1633.71386719 378 l 5
 -1607.71386719 498 -1514.71386719 535 -1414.71386719 535 c 4
 -1275.71386719 535 -1213.71386719 465 -1213.71386719 334 c 6
 -1213.71386719 106 l 6
 -1213.71386719 53 -1203.71386719 19 -1185.71386719 0 c 5
 -1276.71386719 0 l 5
 -1291.71386719 14 -1294.71386719 39 -1297.71386719 64 c 5xb8
-1303.71386719 140 m 5
 -1303.71386719 263 l 5
 -1326.71386719 252 -1384.71386719 241 -1435.71386719 233 c 4
 -1490.71386719 224 -1555.71386719 212 -1555.71386719 141 c 4
 -1555.71386719 75 -1506.71386719 57 -1458.71386719 57 c 4xb8
 -1391.71386719 57 -1330.71386719 105 -1303.71386719 140 c 5
EndSplineSet
Fore
SplineSet
83.0498046875 16.38671875 m 1x38
 29.490234375 134.477539062 l 1
 89.1630859375 258.784179688 l 1
 382.41015625 348.740234375 l 1
 382.41015625 348.740234375 l 1
 347.499023438 441.418945312 l 1
 259.971679688 467.018554688 l 1
 178.3046875 439.981445312 l 1
 132.484375 360.962890625 l 1
 61.1103515625 404.840820312 l 1
 129.157226562 506.319335938 l 1
 269.158203125 540.500976562 l 1
 424.775390625 488.110351562 l 1
 472.125 335.448242188 l 1
 472 0 l 1
 388 0 l 1
 388.391601562 60.14453125 l 1
 303.06640625 -2.4677734375 l 1
 209.958984375 -20.56640625 l 1
 83.0498046875 16.38671875 l 1x38
382.41015625 269.180664062 m 1
 382.41015625 269.180664062 l 1
 165.568359375 209.150390625 l 1
 125.424804688 138.475585938 l 1
 156.57421875 70.3935546875 l 1
 224.336914062 52.830078125 l 1
 318.719726562 81.7890625 l 1
 382.357421875 137.5390625 l 1
 382.41015625 269.180664062 l 1
EndSplineSet
Validated: 5
Layer: 2
EndChar
StartChar: b
Encoding: 66 98 65
Width: 550
Flags: HMW
HStem: -15 75<257.5 326.5 252.5 364> 0 60 460 75<261 326.5> 700 20G<65 155 155 155>
VStem: 65 90<465 720 465 720 465 720> 425 90<194 326>
LayerCount: 3
Back
SplineSet
65 720 m 5x7c
 155 720 l 5
 155 465 l 5
 185 507 230 535 292 535 c 4
 436 535 515 422 515 260 c 4
 515 98 436 -15 292 -15 c 4xbc
 223 -15 175 21 145 71 c 5
 145 0 l 5
 65 0 l 5
 65 720 l 5x7c
144 260 m 4
 144 128 218 60 287 60 c 4
 366 60 425 128 425 260 c 4
 425 392 366 460 287 460 c 4
 208 460 144 392 144 260 c 4
EndSplineSet
Fore
SplineSet
155 720 m 1x3c
 155 465 l 1
 211.5546875 519.397460938 l 1
 292.086914062 538.626953125 l 1
 460.919921875 460.34765625 l 1
 519.592773438 258.134765625 l 1
 460.919921875 55.9228515625 l 1
 292.086914062 -22.35546875 l 1
 202.190429688 2.384765625 l 1
 145 70 l 1
 145 0 l 1
 65 0 l 1
 65 720 l 1
 155 720 l 1x3c
286.899414062 54.103515625 m 1
 387.48046875 105.592773438 l 1
 427.655273438 258.05078125 l 1
 387.48046875 410.551757812 l 1
 286.899414062 462.08203125 l 1
 183.724609375 410.551757812 l 1
 140.955078125 258.05078125 l 1
 187.583984375 105.592773438 l 1
 286.899414062 54.103515625 l 1
EndSplineSet
Validated: 1
Layer: 2
EndChar
StartChar: c
Encoding: 67 99 66
Width: 524
Flags: HMW
HStem: -15 75<233.5 303.5 233.5 329> 460 75<233.5 303.5>
VStem: 35 90<189 331 189 346>
LayerCount: 3
Back
SplineSet
125 260 m 4
 125 118 194 60 273 60 c 4
 334 60 383 95 402 177 c 5
 489 157 l 5
 461 48 385 -15 273 -15 c 4
 129 -15 35 88 35 260 c 4
 35 432 129 535 273 535 c 4
 385 535 461 471 489 362 c 5
 402 342 l 5
 383 425 334 460 273 460 c 4
 194 460 125 402 125 260 c 4
EndSplineSet
Fore
SplineSet
273.384765625 55.9765625 m 1
 355.116210938 84.2548828125 l 1
 404.955078125 175.299804688 l 1
 481.41015625 134.540039062 l 1
 415.639648438 25.5205078125 l 1
 273.384765625 -20.482421875 l 1
 96.833984375 53.9697265625 l 1
 30.5703125 260.008789062 l 1
 96.8974609375 466.047851562 l 1
 273.384765625 540.5 l 1
 415.639648438 493.944335938 l 1
 482.4296875 382.399414062 l 1
 404.955078125 343.612304688 l 1
 355.1796875 435.591796875 l 1
 273.384765625 464.041015625 l 1
 167.66796875 416.336914062 l 1
 122.422851562 260.008789062 l 1
 167.66796875 103.680664062 l 1
 273.384765625 55.9765625 l 1
EndSplineSet
Validated: 1
Layer: 2
EndChar
StartChar: d
Encoding: 68 100 67
Width: 550
Flags: HMW
HStem: -15 75<223.5 292.5> 0 60 460 75<223.5 289 186 302.5> 700 20G<395 485 485 485>
VStem: 35 90<194 326 194 341> 406 79<194 326>
LayerCount: 3
Back
SplineSet
395 720 m 5xbc
 485 720 l 5
 485 0 l 5
 405 0 l 5
 405 71 l 5
 375 21 327 -15 258 -15 c 4
 114 -15 35 98 35 260 c 4
 35 422 114 535 258 535 c 4
 320 535 365 507 395 465 c 5
 395 720 l 5xbc
406 260 m 4
 406 392 342 460 263 460 c 4
 184 460 125 392 125 260 c 4x7c
 125 128 184 60 263 60 c 4
 332 60 406 128 406 260 c 4
EndSplineSet
Fore
SplineSet
485 720 m 1x3c
 485 0 l 1
 405 0 l 1
 405 71 l 1
 343.4765625 1.533203125 l 1
 255.264648438 -22.705078125 l 1
 86.3994140625 55.5732421875 l 1
 27.7587890625 257.78515625 l 1
 86.3994140625 459.998046875 l 1
 255.264648438 538.27734375 l 1
 338.625 517.46484375 l 1
 395 465.920898438 l 1
 395 720 l 1
 485 720 l 1x3c
260.452148438 461.818359375 m 1
 159.796875 410.287109375 l 1
 119.611328125 257.78515625 l 1
 159.796875 105.327148438 l 1
 260.452148438 53.8388671875 l 1
 359.7578125 105.327148438 l 1
 406.311523438 257.78515625 l 1
 363.584960938 410.287109375 l 1
 260.452148438 461.818359375 l 1
EndSplineSet
Validated: 1
Layer: 2
EndChar
StartChar: e
Encoding: 69 101 68
Width: 544
Flags: HMW
HStem: -15 75<240.5 308.5 240.5 329.5> 237 72<128 413 128 508 125 413> 460 75<242 315>
VStem: 35 90<237 237 237 346> 413 96<309 309>
LayerCount: 3
Back
SplineSet
508 237 m 5
 125 237 l 5
 133 112 203 60 278 60 c 4
 339 60 399 98 417 176 c 5
 502 158 l 5
 472 42 386 -15 273 -15 c 4
 129 -15 35 88 35 260 c 4
 35 432 129 535 273 535 c 4
 430 535 509 421 509 270 c 4
 509 267 509 244 508 237 c 5
273 460 m 4
 211 460 144 415 128 309 c 5
 413 309 l 5
 409 397 357 460 273 460 c 4
EndSplineSet
Fore
SplineSet
122 237 m 1
 174.46484375 98.9150390625 l 1
 278.149414062 56.44140625 l 1
 365.399414062 85.7744140625 l 1
 419.926757812 174.744140625 l 1
 490 131 l 1
 421.6171875 23.7744140625 l 1
 273.046875 -20.1025390625 l 1
 96.6025390625 54.349609375 l 1
 30.3173828125 260.388671875 l 1
 96.6025390625 466.427734375 l 1
 273.046875 540.879882812 l 1
 453.446289062 463.494140625 l 1
 513 273 l 0
 512.77734375 236.919921875 l 1
 122.000976562 236.915039062 l 1
 122 237 l 1
125 309 m 1
 416 309 l 1
 374.999023438 421.139648438 l 1
 272.961914062 464.505859375 l 1
 181.481445312 428.028320312 l 1
 125 309 l 1
EndSplineSet
Validated: 5
Layer: 2
EndChar
StartChar: f
Encoding: 70 102 69
Width: 303
Flags: HMW
HStem: 0 21G<88 175 88 88> 451 69<10 88 10 88 175 276> 633 78<221.5 254.5 188 257>
VStem: 88 87<0 451 520 541 541 543>
LayerCount: 3
Back
SplineSet
175 0 m 5
 88 0 l 5
 88 451 l 5
 10 451 l 5
 10 520 l 5
 88 520 l 5
 88 541 l 6
 88 651 138 711 238 711 c 4
 271 711 306 703 323 695 c 5
 306 623 l 5
 292 629 265 633 249 633 c 4
 194 633 175 600 175 543 c 6
 175 520 l 5
 276 520 l 5
 276 451 l 5
 175 451 l 5
 175 0 l 5
EndSplineSet
Fore
SplineSet
88 0 m 1
 88 451 l 1
 10 451 l 1
 10 520 l 1
 88 520 l 1
 88 545 l 1
 124.8203125 673.46875 l 1
 239.561523438 718.110351562 l 1
 321 703 l 1
 308.961914062 628.298828125 l 1
 308.961914062 628.298828125 l 1
 250.7890625 638.504882812 l 1
 191.977539062 614.393554688 l 1
 175 547 l 1
 175 520 l 1
 276 520 l 1
 276 451 l 1
 175 451 l 1
 175 0 l 1
 88 0 l 1
EndSplineSet
Validated: 5
Layer: 2
EndChar
StartChar: g
Encoding: 71 103 70
Width: 558
Flags: HMW
HStem: -210 76<236 314.5 236 356.5> -15 75<231.5 297> 460 60 460 75<231.5 300.5 194 305.5>
VStem: 43 90<194 326 194 341> 63 85<-46 -46 -46 -33> 403 90<18 40 40 55 55 55>
LayerCount: 3
Back
SplineSet
533 40 m 6xea
 533 -89 488 -210 305 -210 c 4
 207 -210 103 -157 103 -33 c 5
 188 -46 l 5xe6
 191 -102 245 -134 307 -134 c 4
 402 -134 446 -79 443 18 c 6
 443 55 l 5
 413 13 368 -15 306 -15 c 4
 162 -15 83 98 83 260 c 4
 83 422 162 535 306 535 c 4xda
 375 535 423 499 453 449 c 5
 453 520 l 5
 533 520 l 5
 533 40 l 6xea
454 260 m 4
 454 392 380 460 311 460 c 4
 232 460 173 392 173 260 c 4xea
 173 128 232 60 311 60 c 4
 390 60 454 128 454 260 c 4
EndSplineSet
Fore
SplineSet
260.900390625 -217.545898438 m 1xda
 120.368164062 -174.689453125 l 1
 75 -79 l 1
 147 -46 l 1
 179.763671875 -116.515625 l 1
 263.025390625 -139.98046875 l 1
 369.922851562 -99.548828125 l 1
 401.741210938 16.83984375 l 0
 402 55 l 1
 342.446289062 0.6650390625 l 1
 261.919921875 -18.53125 l 1
 93.09765625 59.748046875 l 1
 34.5 261.959960938 l 1
 93.09765625 464.171875 l 1
 261.919921875 542.451171875 l 1
 353.086914062 516.42578125 l 1
 412 450 l 1
 412 520 l 1
 492 520 l 1
 492 34 l 1
 447.178710938 -139.384765625 l 1
 260.900390625 -217.545898438 l 1xda
267.0234375 465.907226562 m 1
 166.517578125 414.375976562 l 1
 126.352539062 261.875 l 1
 166.517578125 109.416015625 l 1
 267.0234375 57.927734375 l 1
 370.198242188 109.416015625 l 1
 412.967773438 261.875 l 1
 366.403320312 414.375976562 l 1
 267.0234375 465.907226562 l 1
EndSplineSet
Validated: 1
Layer: 2
EndChar
StartChar: h
Encoding: 72 104 71
Width: 555
Flags: HMW
HStem: 0 21G<65.7109 155.711 65.7109 65.7109 400.711 400.711 400.711 490.711> 459 76<275.711 332.711> 700 20G<65.7109 155.711 155.711 155.711>
VStem: 65.7109 90<0 283 449 720> 400.711 90<0 315 315 319 0 360>
LayerCount: 3
Back
SplineSet
155 0 m 5
 65 0 l 5
 65 720 l 5
 155 720 l 5
 155 449 l 5
 184 506 239 535 311 535 c 4
 455 535 490 443 490 319 c 6
 490 0 l 5
 400 0 l 5
 400 315 l 6
 400 405 371 459 293 459 c 4
 211 459 155 397 155 283 c 6
 155 0 l 5
EndSplineSet
Fore
SplineSet
62 0 m 1
 62 720 l 1
 152.518554688 720 l 1
 152.518554688 449 l 1
 215.657226562 516.44921875 l 1
 311.64453125 538.477539062 l 1
 457.982421875 475.719726562 l 1
 492.16015625 316.407226562 l 1
 491.767578125 0 l 1
 402 0 l 1
 402.051757812 315.69140625 l 1
 377.6953125 421.91796875 l 1
 293.314453125 460.913085938 l 1
 191.66015625 414.740234375 l 1
 152.64453125 283 l 1
 152.64453125 0 l 1
 62 0 l 1
EndSplineSet
Validated: 1
Layer: 2
EndChar
StartChar: i
Encoding: 73 105 72
Width: 220
Flags: HMW
HStem: 0 21G<65 155 65 65> 500 20G<65 155 155 155> 619 101<65 155 65 155>
VStem: 65 90<0 520 619 720>
LayerCount: 3
Back
Fore
SplineSet
133.280273438 606.940429688 m 5
 87.0498046875 606.94140625 l 5
 54.197265625 642.686523438 l 5
 54.2197265625 693.490234375 l 5
 86.4990234375 729.840820312 l 5
 132.729492188 729.83984375 l 5
 165.889648438 693.390625 l 5
 165.809570312 642.541015625 l 5
 133.280273438 606.940429688 l 5
155 0 m 1
 65 0 l 1
 65 520 l 1
 155 520 l 1
 155 0 l 1
EndSplineSet
Validated: 1
Layer: 2
EndChar
StartChar: j
Encoding: 74 106 73
Width: 220
Flags: HMW
HStem: -210 79<1 31 -3 69> 500 20G<65 155 155 155> 619 101<65 155 65 155>
VStem: 65 90<-26 520 619 720>
LayerCount: 3
Back
SplineSet
109.727539062 722 m 1
 147.184570312 705.923828125 l 1
 161.65234375 668.953125 l 1
 147.184570312 631.973632812 l 1
 109.727539062 615.897460938 l 1
 71.4677734375 631.973632812 l 1
 57 668.953125 l 1
 71.4677734375 705.923828125 l 1
 109.727539062 722 l 1
-52 -200 m 5
 -34 -125 l 5
 -17 -130 -8 -131 2 -131 c 4
 60 -131 65 -79 65 -26 c 6
 65 520 l 5
 155 520 l 5
 155 -28 l 6
 155 -134 125 -210 13 -210 c 4
 -11 -210 -30 -206 -52 -200 c 5
EndSplineSet
Fore
SplineSet
133.280273438 606.940429688 m 5
 87.0498046875 606.94140625 l 5
 54.197265625 642.686523438 l 5
 54.2197265625 693.490234375 l 5
 86.4990234375 729.840820312 l 5
 132.729492188 729.83984375 l 5
 165.889648438 693.390625 l 5
 165.809570312 642.541015625 l 5
 133.280273438 606.940429688 l 5
-34.15234375 -124.903320312 m 1
 12 -132 l 2
 55.201171875 -98.322265625 l 1
 64.98828125 12.1337890625 l 2
 64.98828125 520 l 1
 154.956054688 520 l 1
 154.5390625 -29.8408203125 l 1
 125.9453125 -158.731445312 l 1
 12.9541015625 -210.002929688 l 1
 -52 -199.997070312 l 1
 -34.15625 -124.870117188 l 1
 -34.15234375 -124.903320312 l 1
EndSplineSet
Validated: 1
Layer: 2
EndChar
StartChar: k
Encoding: 75 107 74
Width: 506
Flags: HMW
HStem: 0 21G<65 65 65 155 381 381 381 486> 225 75<155 187 187 197 155 187> 437 83<414.5 463 445 463 445 463> 700 20G<65 155 155 155>
VStem: 65 90<0 225 300 720>
LayerCount: 3
Back
SplineSet
65 0 m 5
 65 720 l 5
 155 720 l 5
 155 300 l 5
 187 300 l 6
 217 300 250 307 275 348 c 4
 292 376 321 452 330 468 c 4
 358 517 387 520 445 520 c 6
 463 520 l 5
 463 437 l 5
 438 437 l 6
 391 437 388 410 373 372 c 4
 349 312 321 279 282 269 c 5
 282 265 l 5
 320 256 359 224 390 173 c 6
 486 0 l 5
 381 0 l 5
 296 160 l 6
 269 207 237 225 197 225 c 6
 155 225 l 5
 155 0 l 5
 65 0 l 5
EndSplineSet
Fore
SplineSet
282 269 m 1
 282 265 l 1
 342.291015625 232.337890625 l 1
 394.680664062 169.317382812 l 1
 467 37 l 1
 386 -8 l 1
 298.661132812 156.048828125 l 1
 253.116210938 207.172851562 l 1
 197.622070312 225 l 1
 154.7578125 225 l 1
 154.7578125 0 l 1
 65 0 l 1
 65.083984375 720 l 1
 108.958984375 720.04296875 l 1
 154.842773438 720.04296875 l 1
 154.842773438 300 l 1
 187.501953125 300 l 1
 234.36328125 307.69140625 l 1
 277.3984375 347.876953125 l 1
 333.530273438 470.26171875 l 1
 380.690429688 515.551757812 l 1
 469.098632812 523.290039062 l 1
 469.098632812 523.290039062 l 1
 469.098632812 438.666992188 l 1
 443.66796875 438.666992188 l 1
 398.231445312 420.041015625 l 1
 377.416015625 372.329101562 l 1
 336.688476562 300.708984375 l 1
 282 269 l 1
EndSplineSet
Validated: 5
Layer: 2
EndChar
StartChar: l
Encoding: 76 108 75
Width: 220
Flags: HMW
HStem: 0 21G<65 155 65 65> 715 20G<155 155>
VStem: 65 90<0 695 695 695>
LayerCount: 3
Back
Fore
SplineSet
155 0 m 5
 65 0 l 5
 65 720 l 5
 155 720 l 5
 155 0 l 5
EndSplineSet
Validated: 1
Layer: 2
EndChar
StartChar: m
Encoding: 77 109 76
Width: 839
Flags: HMW
HStem: 0 21G<65.3623 155.362 65.3623 65.3623 375.362 375.362 375.362 465.362 684.362 684.362 684.362 774.362> 459 61 459 76<268.862 313.862 578.862 630.862>
VStem: 65.3623 90<0 269> 375.362 90<0 301 0 337 0 376> 684.362 90<0 327 327 356 0 361.5>
LayerCount: 3
Back
SplineSet
155 0 m 5xdc
 65 0 l 5
 65 520 l 5
 146 520 l 5
 146 446 l 5
 182 510 234 535 303 535 c 4
 379 535 430 500 451 439 c 5
 484 508 546 535 611 535 c 4
 718 535 774 472 774 356 c 6
 774 0 l 5
 684 0 l 5
 684 327 l 6
 684 396 669 459 592 459 c 4
 501 459 465 386 465 301 c 6xdc
 465 0 l 5
 375 0 l 5
 375 337 l 6
 375 415 344 459 283 459 c 4xbc
 176 459 155 364 155 269 c 6
 155 0 l 5xdc
EndSplineSet
Fore
SplineSet
60.318359375 0 m 1xbc
 60.5205078125 520 l 1
 141.520507812 520 l 1
 141.520507812 446 l 1
 208.995117188 519.471679688 l 1
 303.41796875 539.8828125 l 1
 398.166015625 514.716796875 l 1
 450.716796875 439 l 1
 521.986328125 517.8125 l 1
 615.836914062 540.350585938 l 1
 739.775390625 493.446289062 l 1
 780 362 l 1
 780 0 l 1
 690 0 l 1
 690 329.930664062 l 1
 672.791992188 421.876953125 l 1
 596.439453125 462.786132812 l 1
 496.889648438 414.733398438 l 1
 464.716796875 301 l 1
 464.716796875 0 l 1
 374.716796875 0 l 1
 374.716796875 340.112304688 l 1
 351.598632812 430.390625 l 1
 281.2734375 462.786132812 l 1
 175.078125 402.231445312 l 1
 150.520507812 269 l 1
 150.520507812 0 l 1
 60.318359375 0 l 1xbc
EndSplineSet
Validated: 1
Layer: 2
EndChar
StartChar: n
Encoding: 78 110 77
Width: 555
Flags: HMW
HStem: 0 21G<68.835 158.835 68.835 68.835 403.835 403.835 403.835 493.835> 459 61 459 76<278.835 335.835>
VStem: 68.835 90<0 283> 403.835 90<0 315 315 319 0 360>
LayerCount: 3
Back
SplineSet
155 0 m 5xb8
 65 0 l 5
 65 520 l 5
 146 520 l 5
 146 445 l 5
 184 509 239 535 311 535 c 4
 455 535 490 443 490 319 c 6
 490 0 l 5
 400 0 l 5
 400 315 l 6
 400 405 371 459 293 459 c 4xd8
 211 459 155 397 155 283 c 6
 155 0 l 5xb8
EndSplineSet
Fore
SplineSet
62.5224609375 0 m 1xb8
 62.5224609375 520 l 1
 143.522460938 520 l 1
 143.522460938 445 l 1
 214.392578125 518.918945312 l 1
 311.592773438 540.350585938 l 1
 457.930664062 477.592773438 l 1
 492 319 l 1
 492 0 l 1
 402 0 l 1
 402 319 l 1
 377.583007812 423.791015625 l 1
 293.278320312 462.786132812 l 1
 191.549804688 416.61328125 l 1
 152.522460938 283 l 1
 152.522460938 0 l 1
 60.5849609375 0 l 2
 62.5224609375 0 l 1xb8
EndSplineSet
Validated: 5
Layer: 2
EndChar
StartChar: o
Encoding: 79 111 78
Width: 556
Flags: HMW
HStem: -15 75<238.5 317.5 238.5 350> 460 75<238.5 317.5>
VStem: 35 90<189 331 189 346> 431 90<189 331>
LayerCount: 3
Back
SplineSet
35 260 m 4
 35 432 134 535 278 535 c 4
 422 535 521 432 521 260 c 4
 521 88 422 -15 278 -15 c 4
 134 -15 35 88 35 260 c 4
125 260 m 4
 125 118 199 60 278 60 c 4
 357 60 431 118 431 260 c 4
 431 402 357 460 278 460 c 4
 199 460 125 402 125 260 c 4
EndSplineSet
Fore
SplineSet
277.971679688 540.5 m 1
 457.07421875 466.047851562 l 1
 525.889648438 260.008789062 l 1
 457.010742188 54.00390625 l 1
 277.971679688 -20.482421875 l 1
 98.9765625 53.9697265625 l 1
 30.1396484375 260.008789062 l 1
 98.9443359375 466.047851562 l 1
 277.971679688 540.5 l 1
277.971679688 55.9765625 m 1
 386.282226562 103.637695312 l 1
 434.12109375 259.923828125 l 1
 386.282226562 416.251953125 l 1
 277.971679688 463.956054688 l 1
 169.780273438 416.251953125 l 1
 121.9921875 259.923828125 l 1
 169.747070312 103.637695312 l 1
 277.971679688 55.9765625 l 1
EndSplineSet
Validated: 1
Layer: 2
EndChar
StartChar: p
Encoding: 80 112 79
Width: 550
Flags: HMW
HStem: -200 21G<67.7334 157.733 67.7334 67.7334> -15 75<263.733 329.233 250.233 366.733> 460 60 460 75<260.233 329.233>
VStem: 67.7334 79<194 326 194 520> 427.733 90<194 326>
LayerCount: 3
Back
SplineSet
155 -200 m 5xdc
 65 -200 l 5
 65 520 l 5
 145 520 l 5
 145 449 l 5
 175 499 223 535 292 535 c 4
 436 535 515 422 515 260 c 4
 515 98 436 -15 292 -15 c 4
 230 -15 185 13 155 55 c 5
 155 -200 l 5xdc
144 260 m 4
 144 128 208 60 287 60 c 4
 366 60 425 128 425 260 c 4xec
 425 392 366 460 287 460 c 4
 218 460 144 392 144 260 c 4
EndSplineSet
Fore
SplineSet
65 -200 m 1xdc
 65 520 l 1
 145 520 l 1
 145 449 l 1
 206.607421875 518.111328125 l 1
 294.734375 542.349609375 l 1
 463.715820312 464.071289062 l 1
 522.41015625 261.859375 l 1
 463.715820312 59.6474609375 l 1
 294.734375 -18.6318359375 l 1
 211.407226562 2.1455078125 l 1
 155 55 l 1
 155 -200 l 1
 65 -200 l 1xdc
289.631835938 57.8271484375 m 1
 390.244140625 109.315429688 l 1
 430.387695312 261.774414062 l 1
 390.244140625 414.275390625 l 1
 289.631835938 465.806640625 l 1
 190.327148438 414.275390625 l 1
 143.772460938 261.774414062 l 1
 186.499023438 109.315429688 l 1
 289.631835938 57.8271484375 l 1
EndSplineSet
Validated: 1
Layer: 2
EndChar
StartChar: q
Encoding: 81 113 80
Width: 550
Flags: HMW
HStem: -200 21G<392.176 482.176 392.176 392.176> -15 75<220.676 286.176> 460 60 460 75<220.676 289.676 183.176 294.676>
VStem: 32.1758 90<194 326 194 341> 392.176 90<-200 55 55 55>
LayerCount: 3
Back
SplineSet
485 -200 m 5xec
 395 -200 l 5
 395 55 l 5
 365 13 320 -15 258 -15 c 4
 114 -15 35 98 35 260 c 4
 35 422 114 535 258 535 c 4xdc
 327 535 375 499 405 449 c 5
 405 520 l 5
 485 520 l 5
 485 -200 l 5xec
406 260 m 4
 406 392 332 460 263 460 c 4
 184 460 125 392 125 260 c 4
 125 128 184 60 263 60 c 4
 342 60 406 128 406 260 c 4
EndSplineSet
Fore
SplineSet
395 -200 m 1xdc
 395 55 l 1
 335.69140625 0.5634765625 l 1
 255.180664062 -18.6318359375 l 1
 86.28515625 59.6474609375 l 1
 27.6748046875 261.859375 l 1
 86.28515625 464.071289062 l 1
 255.180664062 542.349609375 l 1
 345.044921875 517.609375 l 1
 405 449 l 1
 405 520 l 1
 485 520 l 1
 485 -200 l 1
 395 -200 l 1xdc
260.283203125 465.890625 m 1
 159.819335938 414.360351562 l 1
 119.698242188 261.859375 l 1
 159.819335938 109.401367188 l 1
 260.283203125 57.912109375 l 1
 363.458984375 109.401367188 l 1
 406.227539062 261.859375 l 1
 359.663085938 414.360351562 l 1
 260.283203125 465.890625 l 1
EndSplineSet
Validated: 1
Layer: 2
EndChar
StartChar: r
Encoding: 82 114 81
Width: 385
Flags: HMW
HStem: 0 21G<66.2979 156.298 66.2979 66.2979> 450 70 450 85<256.798 300.798>
VStem: 66.2979 90<0 281>
LayerCount: 3
Back
SplineSet
155 0 m 5xb0
 65 0 l 5
 65 520 l 5
 146 520 l 5
 146 430 l 5
 179 500 223 535 288 535 c 4
 328 535 356 526 380 507 c 5
 353 428 l 5
 333 442 315 450 284 450 c 4xd0
 198 450 155 382 155 281 c 6
 155 0 l 5xb0
EndSplineSet
Fore
SplineSet
65 5.0869140625 m 1xb0
 65 520 l 1
 146 520 l 1
 146 430 l 1
 205.986328125 513.727539062 l 1
 291.909179688 540.348632812 l 1
 370 516 l 1
 345.686523438 436.30859375 l 1
 345.686523438 436.30859375 l 0
 285.428710938 453.368164062 l 0
 187.903320312 406.379882812 l 1
 155 281 l 1
 155 0 l 1
 65 5.0869140625 l 1xb0
EndSplineSet
Validated: 5
Layer: 2
EndChar
StartChar: s
Encoding: 83 115 82
Width: 493
Flags: HMW
HStem: -15 75<208 276.5 208 300> 460 75<201.5 272.5>
VStem: 40 86<373.5 412 373.5 435.5> 368 90<106 155>
LayerCount: 3
Back
SplineSet
35 150 m 5
 122 163 l 5
 130 108 165 60 251 60 c 4
 302 60 368 77 368 135 c 4
 368 175 350 196 297 210 c 6
 170 244 l 6
 101 263 40 295 40 381 c 4
 40 490 134 535 241 535 c 4
 365 535 430 474 438 385 c 5
 352 373 l 5
 344 430 306 460 239 460 c 4
 164 460 126 433 126 391 c 4
 126 356 159 339 190 331 c 6
 330 293 l 6
 395 275 458 240 458 143 c 4
 458 28 352 -15 248 -15 c 4
 121 -15 43 45 35 150 c 5
EndSplineSet
Fore
SplineSet
119.426757812 161.098632812 m 1
 155.391601562 87.53125 l 1
 250.997070312 56.0634765625 l 1
 330.146484375 72.12890625 l 1
 370.321289062 132.522460938 l 1
 354.36328125 180.668945312 l 1
 294 211 l 0
 165.859375 244.896484375 l 1
 75.626953125 287.94140625 l 1
 35.6533203125 383.416992188 l 1
 97.2607421875 503.674804688 l 1
 240.706054688 540.501953125 l 1
 385.502929688 498.061523438 l 1
 429.541015625 410.961914062 l 1
 353.822265625 375.251953125 l 1
 318.791992188 441.419921875 l 1
 237.283203125 463.650390625 l 1
 152.447265625 444.821289062 l 1
 123.508789062 393.537109375 l 1
 145.602539062 352 l 1
 213 325 l 0
 334.2265625 292.227539062 l 1
 421.828125 247.21875 l 1
 462.258789062 140.516601562 l 1
 394.931640625 15.9541015625 l 1
 247.936523438 -20.6513671875 l 1
 93.8798828125 23.3193359375 l 1
 42.9609375 125.361328125 l 1
 119.426757812 161.098632812 l 1
EndSplineSet
Validated: 1
Layer: 2
EndChar
StartChar: t
Encoding: 84 116 83
Width: 322
Flags: HMW
HStem: -10 80<207.597 225.597> 451 69<20.0967 94.0967 20.0967 94.0967 184.097 273.097> 680 20G<184.097 184.097>
VStem: 94.0967 90<152 451 520 657 657 657>
LayerCount: 3
Back
SplineSet
272 76 m 5
 282 0 l 5
 262 -6 235 -10 216 -10 c 4
 107 -10 94 50 94 152 c 6
 94 451 l 5
 20 451 l 5
 20 520 l 5
 94 520 l 5
 94 657 l 5
 184 700 l 5
 184 520 l 5
 273 520 l 5
 273 451 l 5
 184 451 l 5
 184 147 l 6
 184 102 184 70 231 70 c 4
 241 70 256 71 272 76 c 5
EndSplineSet
Fore
SplineSet
285.784179688 -6.974609375 m 1
 217.001953125 -16.5859375 l 1
 114.528320312 26.4404296875 l 1
 94 152 l 1
 94 451 l 1
 20 451 l 1
 20 520 l 1
 94 520 l 1
 94 700 l 1
 184 700 l 1
 184 520 l 1
 273 520 l 1
 273 451 l 1
 184 451 l 1
 184 152 l 0
 191.75390625 86.5361328125 l 1
 235.118164062 64.5673828125 l 1
 275.420898438 70.60546875 l 1
 285.801757812 -6.9580078125 l 1
 285.784179688 -6.974609375 l 1
EndSplineSet
Validated: 1
Layer: 2
EndChar
StartChar: u
Encoding: 85 117 84
Width: 555
Flags: HMW
HStem: -15 76<220.059 277.059> 0 61 500 20G<62.0586 152.059 152.059 152.059 397.059 487.059 487.059 487.059>
VStem: 62.0586 90<201 205 205 520> 397.059 90<237 520 0 520>
LayerCount: 3
Back
SplineSet
400 520 m 5xb8
 490 520 l 5
 490 0 l 5
 409 0 l 5
 409 75 l 5
 371 18 316 -15 244 -15 c 4
 100 -15 65 77 65 201 c 6
 65 520 l 5
 155 520 l 5
 155 205 l 6
 155 115 184 61 262 61 c 4x78
 344 61 400 123 400 237 c 6
 400 520 l 5xb8
EndSplineSet
Fore
SplineSet
491.4765625 520 m 1x38
 491.4765625 0 l 1
 410.4765625 0 l 1
 410.4765625 75 l 1
 339.522460938 3.7451171875 l 1
 242.323242188 -20.3232421875 l 1
 95.9541015625 42.3916015625 l 1
 62 202 l 1
 62 520 l 1
 152 520 l 1
 152 202.673828125 l 1
 176.458984375 96.1845703125 l 1
 260.806640625 57.15625 l 1
 362.4921875 103.329101562 l 1
 401.4765625 238.088867188 l 1
 401.4765625 520 l 1
 491.4765625 520 l 1x38
EndSplineSet
Validated: 1
Layer: 2
EndChar
StartChar: v
Encoding: 86 118 85
Width: 495
Flags: HMW
HStem: 0 21G<207 289 207 207> 500 20G<10 102 102 102 395 485 485 485>
LayerCount: 3
Back
Fore
SplineSet
289 0 m 1
 207 0 l 1
 18 500 l 1
 98 528 l 1
 247 104 l 1
 398 528 l 1
 478 500 l 1
 289 0 l 1
EndSplineSet
Validated: 1
Layer: 2
EndChar
StartChar: w
Encoding: 87 119 86
Width: 731
Flags: HMW
HStem: 0 21G<167 260 167 167 468 468 468 559> 500 20G<10 101 101 101 321 412 412 412 636 721 721 721>
LayerCount: 3
Back
Fore
SplineSet
260 0 m 1
 167 0 l 1
 16 504 l 1
 99 528 l 5
 214 108 l 1
 321 520 l 1
 412 520 l 1
 517 119 l 1
 639 528 l 1
 716 504 l 1
 559 0 l 1
 468 0 l 1
 368 399 l 1
 260 0 l 1
EndSplineSet
Validated: 1
Layer: 2
EndChar
StartChar: x
Encoding: 88 120 87
Width: 517
Flags: HMW
HStem: 0 21G<20 124 20 20 391 391 391 497> 500 20G<32 140 140 140 381 483 483 483>
LayerCount: 3
Back
Fore
SplineSet
119 -8 m 1
 49 40.75 l 1
 205 266 l 1
 59 481 l 1
 134 528 l 1
 260 332 l 1
 387 528 l 1
 456 481 l 5
 307 269 l 1
 468 41 l 1
 396 -8 l 1
 257 200 l 1
 119 -8 l 1
EndSplineSet
Validated: 1
Layer: 2
EndChar
StartChar: y
Encoding: 89 121 88
Width: 500
Flags: HMW
HStem: -210 79<109.5 121.5 94.5 160.5> 500 20G<10 103 103 103 402 490 490 490>
LayerCount: 3
Back
SplineSet
61 -200 m 5
 51 -122 l 5
 68 -128 87 -131 102 -131 c 4
 141 -131 167 -110 189 -58 c 6
 212 5 l 5
 10 520 l 5
 103 520 l 5
 254 115 l 5
 402 520 l 5
 490 520 l 5
 276 -56 l 6
 242 -147 203 -210 118 -210 c 4
 101 -210 80 -207 61 -200 c 5
EndSplineSet
Fore
SplineSet
106 -132 m 5
 152.963867188 -112.497070312 l 1
 191.5 -51.4365234375 l 1
 212.116210938 5.037109375 l 1
 19 498 l 1
 100 528 l 1
 254.056640625 115.017578125 l 1
 405 528 l 1
 482 498 l 1
 275.240234375 -57.53125 l 1
 216.19140625 -167.111328125 l 1
 117.978515625 -210.002929688 l 1
 60.9462890625 -200.080078125 l 1
 77 -127 l 1
 106 -132 l 5
EndSplineSet
Validated: 1
Layer: 2
EndChar
StartChar: z
Encoding: 90 122 89
Width: 499
Flags: MW
HStem: 0 75<141 459 40 40> 445 75<59 347 59 453 59 453>
LayerCount: 3
Back
Fore
SplineSet
459 0 m 1
 40 0 l 1
 40 75 l 1
 347 445 l 1
 59 445 l 1
 59 520 l 1
 453 520 l 1
 453 445 l 1
 141 75 l 1
 459 75 l 1
 459 0 l 1
EndSplineSet
Validated: 1
Layer: 2
EndChar
StartChar: braceleft
Encoding: 91 123 182
Width: 319
Flags: HMW
HStem: -110 69<243 244> 755 69<214 243 243 244 176 279>
VStem: 20 160 90 90<72 237 237 257 477 642 642 650> 90 189<-100 237>
LayerCount: 3
Back
SplineSet
279 814 m 5xe0
 279 755 l 5
 243 755 l 6
 185 755 180 703 180 650 c 6
 180 457 l 6
 180 394 140 370 110 357 c 5xc8
 140 344 180 320 180 257 c 6
 180 64 l 6xe0
 180 11 185 -41 243 -41 c 6
 279 -41 l 5
 279 -100 l 5xc8
 268 -105 256 -110 232 -110 c 4
 120 -110 90 -34 90 72 c 6
 90 237 l 6xd0
 90 304 55 327 20 327 c 5
 20 387 l 5
 55 387 90 410 90 477 c 6
 90 642 l 6
 90 748 120 824 232 824 c 4
 256 824 268 819 279 814 c 5xe0
EndSplineSet
Fore
SplineSet
233.094726562 755.513671875 m 4xe0
 190.551757812 729.454101562 l 5
 180.6015625 614.13671875 l 4
 179.920898438 456.907226562 l 5
 154.688476562 387.583007812 l 5
 109.125976562 356.8046875 l 5
 156.912109375 323.047851562 l 5
 180.567382812 250.875976562 l 5
 181.33203125 52.06640625 l 4
 190.490234375 -15.8798828125 l 5
 246.813476562 -49.1328125 l 5
 268.329101562 -48.966796875 l 5
 281.663085938 -109.34765625 l 5
 231.895507812 -118.65234375 l 5
 118.444335938 -67.1728515625 l 5
 88.857421875 70.1474609375 l 5
 88.26171875 236.392578125 l 5
 66.5244140625 306.073242188 l 5
 17.4091796875 326.357421875 l 5
 17.4091796875 387.591796875 l 5
 66.5244140625 407.868164062 l 5
 88.8505859375 483.314453125 l 5
 89.7099609375 651.533203125 l 5
 118.440429688 781.036132812 l 5
 233.69140625 833.333007812 l 5
 281.659179688 823.211914062 l 5
 270.369140625 760.913085938 l 5
 233.094726562 755.513671875 l 4xe0
EndSplineSet
Validated: 1
Layer: 2
EndChar
StartChar: bar
Encoding: 92 124 148
Width: 255
Flags: MW
HStem: -100 21G<80 175 80 80> 800 20G<80 175 175 175>
VStem: 80 95<-100 820>
LayerCount: 3
Back
Fore
SplineSet
175 -100 m 1
 80 -100 l 1
 80 820 l 1
 175 820 l 1
 175 -100 l 1
EndSplineSet
Validated: 1
Layer: 2
EndChar
StartChar: braceright
Encoding: 93 125 181
Width: 319
Flags: HMW
HStem: -110 69<75 76 76 105 40 143> 755 69<40 143 75 76>
VStem: 40 189<-100 72 -41 72> 139 90<64 72 72 237 457 477 477 642> 139 160<64 387 257 387 327 650>
LayerCount: 3
Back
SplineSet
40 755 m 5xe0
 40 814 l 5
 51 819 63 824 87 824 c 4
 199 824 229 748 229 642 c 6
 229 477 l 6xe0
 229 410 264 387 299 387 c 5
 299 327 l 5xc8
 264 327 229 304 229 237 c 6
 229 72 l 6
 229 -34 199 -110 87 -110 c 4
 63 -110 51 -105 40 -100 c 5
 40 -41 l 5xe0
 76 -41 l 6
 134 -41 139 11 139 64 c 6
 139 257 l 6
 139 320 179 344 209 357 c 5
 179 370 139 394 139 457 c 6
 139 650 l 6xd0
 139 703 134 755 76 755 c 6
 40 755 l 5xe0
EndSplineSet
Fore
SplineSet
37.41015625 822.924804688 m 5xe0
 87.09375 832.229492188 l 5
 200.533203125 780.75 l 5
 230.045898438 643.428710938 l 5
 230.641601562 477.184570312 l 5
 252.387695312 407.581054688 l 5
 301.578125 387.3046875 l 5
 301.578125 326.069335938 l 5
 252.387695312 305.78515625 l 5
 230.051757812 230.262695312 l 5
 229.193359375 62.0439453125 l 5
 200.53515625 -67.4599609375 l 5
 85.2939453125 -119.755859375 l 5
 37.412109375 -109.635742188 l 5
 51.6904296875 -46.904296875 l 5
 86.0400390625 -42.1923828125 l 4
 128.552734375 -16.1328125 l 5
 138.534179688 99.185546875 l 4
 139.21484375 256.415039062 l 5
 164.416015625 325.73828125 l 5
 210.01171875 356.517578125 l 5
 162.162109375 390.272460938 l 5
 138.569335938 462.446289062 l 5
 137.8046875 661.255859375 l 4
 128.6171875 729.166992188 l 5
 72.3251953125 762.455078125 l 5
 52.7099609375 762.455078125 l 5
 37.4765625 822.924804688 l 5
 37.41015625 822.924804688 l 5xe0
EndSplineSet
Validated: 1
Layer: 2
EndChar
StartChar: asciitilde
Encoding: 94 126 194
Width: 526
Flags: HMW
HStem: 270 90<326.5 385> 360 90<141 199.5>
LayerCount: 3
Back
SplineSet
30 290 m 5x80
 30 390 l 5
 68 430 117 450 165 450 c 4
 254 450 292 360 361 360 c 4
 419 360 458 390 496 430 c 5
 496 330 l 5
 458 290 409 270 361 270 c 4
 272 270 234 360 165 360 c 4x40
 107 360 68 330 30 290 c 5x80
EndSplineSet
Fore
SplineSet
25.33984375 391.565429688 m 5x00
 90.328125 437.491210938 l 5
 163.034179688 452.799804688 l 5
 270.568359375 406.874023438 l 5
 362.983398438 360.947265625 l 5
 439.484375 381.359375 l 5
 458.83984375 395.680664062 l 5
 500.677734375 330.415039062 l 5
 435.626953125 284.48828125 l 5
 362.983398438 269.1796875 l 5
 255.482421875 315.063476562 l 5
 163.034179688 360.947265625 l 5
 86.533203125 340.578125 l 5
 66.1396484375 325.299804688 l 5
 25.33984375 391.565429688 l 5x00
EndSplineSet
Validated: 1
Layer: 2
EndChar
StartChar: exclamdown
Encoding: 95 161 240
Width: 239
Flags: HMW
HStem: -200 21G<70 169 70 70> 420 100<74 165 74 165>
VStem: 80 78
LayerCount: 3
Back
Fore
SplineSet
143.48046875 407.999023438 m 5
 97.25 408 l 5
 64.3974609375 443.745117188 l 5
 64.419921875 494.548828125 l 5
 96.69921875 530.899414062 l 5
 142.9296875 530.8984375 l 5
 176.08984375 494.44921875 l 5
 176.009765625 443.599609375 l 5
 143.48046875 407.999023438 l 5
90.4296875 345.6328125 m 1
 147.549804688 345.6328125 l 1
 169.990234375 -207.20703125 l 1
 69.009765625 -207.20703125 l 1
 90.4296875 345.6328125 l 1
EndSplineSet
Validated: 1
Layer: 2
EndChar
StartChar: cent
Encoding: 96 162 334
Width: 524
Flags: HMW
HStem: -115 21G<236.102 236.102 236.102 311.102> 615 20G<236.102 311.102 311.102 311.102>
VStem: 35.1016 90<200.5 319.5 200.5 338> 236.102 75<-115 -12 -115 -12 65 454 532 635>
LayerCount: 3
Back
SplineSet
236 -115 m 5
 236 -12 l 5
 113 4 35 103 35 260 c 4
 35 416 113 516 236 532 c 5
 236 635 l 5
 311 635 l 5
 311 532 l 5
 402 519 464 458 489 362 c 5
 402 342 l 5
 387 407 354 442 311 454 c 5
 311 65 l 5
 354 77 387 113 402 177 c 5
 489 157 l 5
 464 61 402 0 311 -12 c 5
 311 -115 l 5
 236 -115 l 5
125 260 m 4
 125 141 173 80 236 64 c 5
 236 455 l 5
 173 439 125 379 125 260 c 4
EndSplineSet
Fore
SplineSet
236 -22.9423828125 m 1
 83.4501953125 63.5390625 l 1
 26.9326171875 260.036132812 l 1
 83.515625 456.142578125 l 1
 236 543.013671875 l 1
 236 635 l 1
 311 635 l 1
 311 544 l 1
 432.291992188 486.973632812 l 1
 499.198242188 366.130859375 l 1
 408.630859375 345.310546875 l 1
 370.739257812 425.278320312 l 1
 311 462 l 1
 311 57 l 1
 373.040039062 96.7734375 l 1
 408.630859375 173.633789062 l 1
 499.198242188 152.813476562 l 1
 432.291992188 32.1357421875 l 1
 311 -23.5595703125 l 5
 311 -115 l 5
 236 -115 l 1
 236 -22.9423828125 l 1
236 56.087890625 m 1
 236 462.856445312 l 1
 153.641601562 401.577148438 l 1
 120.53515625 259.94921875 l 1
 153.674804688 117.844726562 l 1
 236 56.087890625 l 1
EndSplineSet
Validated: 1
Layer: 2
EndChar
StartChar: currency
Encoding: 97 164 205
Width: 556
Flags: HMW
HStem: 137 21G<109 109 449 449> 175 75<260 297.5> 470 75<260 297.5 260 306.5> 564 20G<109 109 449 449>
VStem: 103 77<341 379> 378 77<341 379 341 397>
LayerCount: 3
Back
SplineSet
449 137 m 5
 380 206 l 5
 351 186 316 175 279 175 c 4
 241 175 206 186 177 206 c 5
 109 137 l 5
 56 190 l 5
 127 262 l 5
 111 289 103 322 103 360 c 4
 103 398 112 431 127 458 c 5
 56 531 l 5
 109 584 l 5
 178 514 l 5
 206 534 241 545 279 545 c 4
 316 545 351 534 380 514 c 5
 449 584 l 5
 502 531 l 5
 430 458 l 5
 446 431 455 398 455 360 c 4
 455 322 446 289 431 262 c 5
 502 190 l 5
 449 137 l 5
180 360 m 4
 180 286 224 250 279 250 c 4
 334 250 378 286 378 360 c 4
 378 434 334 470 279 470 c 4
 228 470 180 434 180 360 c 4
EndSplineSet
Fore
SplineSet
382.122070312 203.01953125 m 1
 276.493164062 171.764648438 l 1
 174.943359375 203.028320312 l 1
 105.627929688 132.607421875 l 1
 51.537109375 186.69921875 l 1
 123.999023438 260.095703125 l 1
 100.204101562 365.1484375 l 1
 124.002929688 460.045898438 l 1
 51.541015625 534.462890625 l 1
 105.631835938 588.469726562 l 1
 175.96875 517.11328125 l 1
 281.594726562 548.360351562 l 1
 382.126953125 517.10546875 l 1
 452.461914062 588.459960938 l 1
 506.552734375 534.455078125 l 1
 433.15625 460.037109375 l 1
 458.217773438 356.184570312 l 1
 434.267578125 260.086914062 l 1
 506.729492188 186.689453125 l 1
 452.638671875 132.598632812 l 1
 382.125976562 203.01953125 l 1
 382.122070312 203.01953125 l 1
279.04296875 247.924804688 m 1
 350.581054688 275.727539062 l 1
 380.081054688 360.104492188 l 1
 350.64453125 444.515625 l 1
 279.04296875 472.284179688 l 1
 209.004882812 444.482421875 l 1
 178.005859375 360.104492188 l 1
 207.506835938 275.727539062 l 1
 279.04296875 247.924804688 l 1
EndSplineSet
Validated: 1
Layer: 2
EndChar
StartChar: yen
Encoding: 98 165 335
Width: 675
Flags: HMW
HStem: 0 21G<290 385 290 290> 700 20G<10 125 125 125 555 665 665 665>
VStem: 290 95<0 108 183 238>
LayerCount: 3
Back
Fore
SplineSet
385 0 m 1
 290 0 l 1
 290 108 l 1
 140 108 l 1
 140 183 l 1
 290 183 l 1
 290 238 l 1
 140 238 l 1
 140 313 l 1
 283 313 l 1
 39 676 l 1
 120 728.090820312 l 1
 342 383 l 1
 560 728.090820312 l 1
 636 676 l 1
 391 313 l 1
 535 313 l 1
 535 238 l 1
 385 238 l 1
 385 183 l 1
 535 183 l 1
 535 108 l 1
 385 108 l 1
 385 0 l 1
EndSplineSet
Validated: 1
Layer: 2
EndChar
StartChar: brokenbar
Encoding: 99 166 149
Width: 255
Flags: MW
HStem: -100 21G<80 175 80 80> 800 20G<80 175 175 175>
VStem: 80 95<-100 325 410 820>
LayerCount: 3
Back
Fore
SplineSet
175 -100 m 1
 80 -100 l 1
 80 325 l 1
 175 325 l 1
 175 -100 l 1
80 410 m 1
 80 820 l 1
 175 820 l 1
 175 410 l 1
 80 410 l 1
EndSplineSet
Validated: 1
Layer: 2
EndChar
StartChar: section
Encoding: 100 167 203
Width: 493
Flags: HMW
HStem: -15 75<208 276.5 208 300> 660 75<201.5 272.5>
VStem: 40 86<368.5 399.5 573.5 612> 368 90<104 151.5 325.5 350>
LayerCount: 3
Back
SplineSet
35 150 m 5
 122 163 l 5
 130 108 165 60 251 60 c 4
 302 60 368 75 368 133 c 4
 368 170 350 181 297 195 c 6
 170 229 l 6
 101 248 40 290 40 376 c 4
 40 423 72 462 100 477 c 5
 63 496 40 534 40 581 c 4
 40 690 134 735 241 735 c 4
 365 735 430 674 438 585 c 5
 352 573 l 5
 344 630 306 660 239 660 c 4
 164 660 126 633 126 591 c 4
 126 556 159 545 190 536 c 6
 330 495 l 6
 403 474 458 434 458 347 c 4
 458 304 433 263 409 247 c 5
 437 228 458 191 458 143 c 4
 458 28 352 -15 248 -15 c 4
 121 -15 43 45 35 150 c 5
126 386 m 4
 126 351 159 324 190 316 c 4
 332 277 335 276 337 276 c 4
 355 287 368 305 368 330 c 4
 368 370 350 401 297 415 c 6
 177 447 l 5
 143 436 126 414 126 386 c 4
EndSplineSet
Fore
SplineSet
121.966796875 162.921875 m 1
 157.268554688 90.796875 l 1
 251.041015625 59.9453125 l 1
 328.564453125 74.6953125 l 1
 367.94140625 132.904296875 l 1
 352.275390625 172.551757812 l 1
 296.900390625 194.939453125 l 1
 169.911132812 228.958984375 l 1
 79.015625 277.3203125 l 1
 39.8359375 375.9609375 l 1
 59.34765625 438.420898438 l 1
 99.8701171875 476.935546875 l 1
 56.033203125 518.458984375 l 1
 39.8359375 580.995117188 l 1
 100.235351562 698.862304688 l 1
 240.868164062 735 l 1
 382.866210938 693.392578125 l 1
 425 610 l 1
 351.848632812 572.990234375 l 1
 317.46484375 637.861328125 l 1
 238.8671875 659.95703125 l 1
 154.33984375 641.196289062 l 1
 125.96875 590.916992188 l 1
 146.35546875 553.720703125 l 1
 190.005859375 535.96875 l 1
 330.169921875 494.9453125 l 1
 421.482421875 445.7421875 l 1
 458.076171875 346.943359375 l 1
 442.567382812 286.826171875 l 1
 409.047851562 246.969726562 l 1
 444.068359375 205.821289062 l 1
 458.076171875 142.91015625 l 1
 392.080078125 20.7900390625 l 1
 248.0390625 -15.09765625 l 1
 96.900390625 28.0107421875 l 1
 48 125 l 1
 121.966796875 162.921875 l 1
316.026367188 281.28125 m 1
 337.173828125 275.944335938 l 1
 359.436523438 297.70703125 l 1
 368.19140625 329.975585938 l 1
 352.484375 382.213867188 l 1
 297.067382812 414.94140625 l 1
 177.165039062 446.959960938 l 1
 138.892578125 422.829101562 l 1
 126.135742188 386.0078125 l 1
 146.376953125 340.798828125 l 1
 190.005859375 315.967773438 l 1
 316.026367188 281.28125 l 1
EndSplineSet
Validated: 1
Layer: 2
EndChar
StartChar: copyright
Encoding: 101 169 189
Width: 590
Flags: HMW
HStem: -15 70<235.5 354.5 235.5 371> 107 66<273.5 311 273.5 329> 346 66<273.5 310.5> 465 70<235.5 354.5>
VStem: 35 76<203.5 316.5 203.5 341> 162 66<234.5 285 234.5 300.5> 479 76<203.5 316.5>
LayerCount: 3
Back
SplineSet
35 260 m 4
 35 422 143 535 295 535 c 4
 447 535 555 422 555 260 c 4
 555 98 447 -15 295 -15 c 4
 143 -15 35 98 35 260 c 4
111 260 m 4
 111 147 176 55 295 55 c 4
 414 55 479 147 479 260 c 4
 479 373 414 465 295 465 c 4
 176 465 111 373 111 260 c 4
228 260 m 4
 228 209 252 173 295 173 c 4
 327 173 348 193 356 224 c 5
 421 211 l 5
 406 142 363 107 295 107 c 4
 209 107 162 179 162 260 c 4
 162 341 209 412 295 412 c 4
 363 412 406 377 421 309 c 5
 356 296 l 5
 347 326 326 346 295 346 c 4
 252 346 228 310 228 260 c 4
EndSplineSet
Fore
SplineSet
294.899414062 535 m 1
 481.892578125 458.255859375 l 1
 554.881835938 260.008789062 l 1
 481.892578125 61.76171875 l 1
 294.899414062 -14.982421875 l 1
 107.979492188 61.76171875 l 1
 35 260.008789062 l 1
 107.916992188 458.255859375 l 1
 294.899414062 535 l 1
294.899414062 54.974609375 m 1
 431.561523438 115.1171875 l 1
 478.921875 259.92578125 l 1
 431.561523438 404.80859375 l 1
 294.899414062 464.959960938 l 1
 158.26953125 404.80859375 l 1
 110.876953125 259.92578125 l 1
 158.299804688 115.1171875 l 1
 294.899414062 54.974609375 l 1
294.899414062 172.958984375 m 1
 335.229492188 188.150390625 l 1
 355.850585938 223.98828125 l 1
 411 194 l 5
 377.655273438 133.060546875 l 1
 294.732421875 106.920898438 l 1
 196.030273438 153.064453125 l 1
 161.739257812 259.92578125 l 1
 195.967773438 366.319335938 l 1
 294.732421875 411.9296875 l 1
 377.592773438 385.922851562 l 1
 410 328 l 1
 355.850585938 295.946289062 l 1
 332.235351562 332.725585938 l 1
 294.899414062 345.974609375 l 1
 245.24609375 321.7109375 l 1
 228.266601562 258.465820312 l 1
 245.30859375 197.33984375 l 1
 294.899414062 172.958984375 l 1
EndSplineSet
Validated: 1
Layer: 2
EndChar
StartChar: guillemotleft
Encoding: 102 171 163
Width: 411
Flags: HMW
HStem: 94 21G<155 231 155 155 295 371 295 295> 412 20G<155 231 231 231 295 371 371 371>
LayerCount: 3
Back
Fore
SplineSet
180 263 m 5
 318 466 l 5
 371 432 l 5
 277 263 l 5
 371 94 l 5
 318 59.5 l 5
 180 263 l 5
40 263 m 5
 177 466 l 5
 231 432 l 5
 137 263 l 5
 231 94 l 5
 180 59.5 l 5
 40 263 l 5
EndSplineSet
Validated: 1
Layer: 2
EndChar
StartChar: registered
Encoding: 103 174 190
Width: 590
Flags: HMW
HStem: -15 70<235.5 354.5 235.5 371> 123 160<192 287 192 287 255 356 255 427> 357 54<255 255 255 286> 465 70<235.5 354.5>
VStem: 35 76<203.5 316.5 203.5 341> 192 63<123 229 123 283 283 357> 335 64<310 336> 479 76<203.5 316.5>
LayerCount: 3
Back
SplineSet
35 260 m 4
 35 422 143 535 295 535 c 4
 447 535 555 422 555 260 c 4
 555 98 447 -15 295 -15 c 4
 143 -15 35 98 35 260 c 4
192 123 m 5
 192 411 l 5
 288 411 l 6
 346 411 399 393 399 327 c 4
 399 283 371 257 333 249 c 5
 364 241 379 215 392 190 c 6
 427 123 l 5
 356 123 l 5
 333 171 l 6
 313 212 299 229 262 229 c 6
 255 229 l 5
 255 123 l 5
 192 123 l 5
255 357 m 5
 255 283 l 5
 287 283 l 6
 322 283 335 298 335 322 c 4
 335 350 314 357 286 357 c 6
 255 357 l 5
111 260 m 4
 111 147 176 55 295 55 c 4
 414 55 479 147 479 260 c 4
 479 373 414 465 295 465 c 4
 176 465 111 373 111 260 c 4
EndSplineSet
Fore
SplineSet
294.982421875 535 m 1
 481.944335938 458.255859375 l 1
 554.96484375 260.008789062 l 1
 481.944335938 61.76171875 l 1
 294.982421875 -14.982421875 l 1
 107.990234375 61.76171875 l 1
 35 260.008789062 l 1
 107.990234375 458.255859375 l 1
 294.982421875 535 l 1
294.982421875 54.974609375 m 1
 431.61328125 115.1171875 l 1
 479.004882812 259.92578125 l 1
 431.612304688 404.80859375 l 1
 294.982421875 464.959960938 l 1
 158.321289062 404.80859375 l 1
 110.959960938 259.92578125 l 1
 158.352539062 115.1171875 l 1
 294.982421875 54.974609375 l 1
261.879882812 228.991210938 m 2
 254.875976562 228.991210938 l 1
 254.875976562 123.013671875 l 1
 191.83984375 123.013671875 l 1
 192.006835938 411.01171875 l 1
 287.978515625 411.01171875 l 1
 365.168945312 393.760742188 l 1
 398.958984375 327.046875 l 1
 380.208984375 274.55078125 l 1
 333.004882812 249.001953125 l 1
 369.233398438 225.864257812 l 1
 391.955078125 189.96875 l 1
 412 152 l 1
 355.850585938 122.9296875 l 1
 333.004882812 170.958007812 l 1
 303.852539062 215.358398438 l 1
 261.879882812 228.991210938 l 2
255.04296875 283.021484375 m 1
 287.061523438 283.021484375 l 1
 324.198242188 293.528320312 l 1
 335.005859375 322.043945312 l 1
 320.998046875 350.060546875 l 1
 285.977539062 357.064453125 l 1
 255.04296875 357.064453125 l 1
 255.04296875 283.021484375 l 1
EndSplineSet
Validated: 1
Layer: 2
EndChar
StartChar: degree
Encoding: 104 176 188
Width: 360
Flags: HMW
HStem: 475 62<161.5 199 161.5 216> 672 63<161.5 199>
VStem: 50 62<586 623.5 586 640.5> 247 63<586 623.5>
LayerCount: 3
Back
SplineSet
50 605 m 4
 50 676 109 735 180 735 c 4
 252 735 310 676 310 605 c 4
 310 533 252 475 180 475 c 4
 109 475 50 533 50 605 c 4
112 605 m 4
 112 567 143 537 180 537 c 4
 218 537 247 567 247 605 c 4
 247 642 218 672 180 672 c 4
 143 672 112 642 112 605 c 4
EndSplineSet
Fore
SplineSet
180.158203125 735 m 1
 272.106445312 696.611328125 l 1
 310.149414062 605.008789062 l 1
 272.168945312 513.03125 l 1
 180.158203125 475.017578125 l 1
 88.408203125 513.03125 l 1
 50 605.008789062 l 1
 88.533203125 696.611328125 l 1
 180.158203125 735 l 1
180.158203125 536.969726562 m 1
 227.831054688 556.72265625 l 1
 247.11328125 604.92578125 l 1
 227.831054688 652.327148438 l 1
 180.158203125 671.963867188 l 1
 132.296875 652.327148438 l 1
 112.202148438 604.92578125 l 1
 132.296875 556.72265625 l 1
 180.158203125 536.969726562 l 1
EndSplineSet
Validated: 1
Layer: 2
EndChar
StartChar: plusminus
Encoding: 105 177 193
Width: 556
Flags: MW
HStem: 115 75<50 506 50 506> 415 75<50 240 50 240 315 506> 660 20G<240 315 315 315>
VStem: 240 75<254 415 254 415 490 680>
LayerCount: 3
Back
Fore
SplineSet
315 415 m 1
 315 254 l 1
 240 254 l 1
 240 415 l 1
 50 415 l 1
 50 490 l 1
 240 490 l 1
 240 680 l 1
 315 680 l 1
 315 490 l 1
 506 490 l 1
 506 415 l 1
 315 415 l 1
506 115 m 1
 50 115 l 1
 50 190 l 1
 506 190 l 1
 506 115 l 1
EndSplineSet
Validated: 1
Layer: 2
EndChar
StartChar: acute
Encoding: 106 180 346
Width: 284
Flags: W
LayerCount: 3
Back
SplineSet
223 728.090820312 m 5
 149 548 l 5
 205 520 l 5
 311 682 l 5
 223 728.090820312 l 5
EndSplineSet
Fore
SplineSet
233.240234375 775.103515625 m 1
 144.379882812 561.931640625 l 1
 194.379882812 533.931640625 l 1
 323 728.090820312 l 1
 233.240234375 775.103515625 l 1
EndSplineSet
Validated: 9
Layer: 2
EndChar
StartChar: paragraph
Encoding: 107 182 200
Width: 556
Flags: HMW
HStem: -100 21G<211 291 211 211 380 380 380 463> 735 85<291 380 291 291 463 544 463 463>
VStem: 211 80<-100 416 416 416> 380 83<-100 735 -100 735>
LayerCount: 3
Back
SplineSet
291 -100 m 5
 211 -100 l 5
 211 416 l 5
 94 419 13 498 13 614 c 4
 13 753 110 820 244 820 c 6
 544 820 l 5
 544 735 l 5
 463 735 l 5
 463 -100 l 5
 380 -100 l 5
 380 735 l 5
 291 735 l 5
 291 -100 l 5
EndSplineSet
Fore
SplineSet
210.947265625 -100.028320312 m 5
 210.947265625 415.934570312 l 5
 68.1357421875 472.55078125 l 5
 13 613.96484375 l 5
 78.24609375 769.104492188 l 5
 250.422851562 820 l 5
 544.0546875 820 l 5
 544.0546875 734.951171875 l 5
 463.008789062 734.951171875 l 5
 463.008789062 -100.028320312 l 5
 380.043945312 -100.028320312 l 5
 380.043945312 735.034179688 l 5
 291.076171875 735.034179688 l 5
 291.076171875 -99.9453125 l 5
 210.947265625 -100.028320312 l 5
EndSplineSet
Validated: 1
Layer: 2
EndChar
StartChar: periodcentered
Encoding: 108 183 138
Width: 231
Flags: HMW
HStem: 212 100<70 161 70 161>
VStem: 70 91<212 312>
LayerCount: 3
Back
Fore
SplineSet
77.60546875 199.208007812 m 1
 41.4033203125 262.202148438 l 1
 77.857421875 325.056640625 l 1
 150.516601562 324.908203125 l 1
 186.71875 261.9140625 l 1
 150.26171875 199.068359375 l 1
 77.60546875 199.208007812 l 1
EndSplineSet
Validated: 1
Layer: 2
EndChar
StartChar: guillemotright
Encoding: 109 187 162
Width: 411
Flags: HMW
HStem: 94 21G<40 116 40 40 180 180 180 256> 412 20G<40 116 116 116 180 256 256 256>
LayerCount: 3
Back
SplineSet
116 432 m 5
 231 263 l 5
 116 94 l 5
 40 94 l 5
 134 263 l 5
 40 432 l 5
 116 432 l 5
256 432 m 5
 371 263 l 5
 256 94 l 5
 180 94 l 5
 274 263 l 5
 180 432 l 5
 256 432 l 5
EndSplineSet
Fore
SplineSet
231 263 m 5
 93 466 l 5
 40 432 l 5
 134 263 l 5
 40 94 l 5
 93 59.5 l 5
 231 263 l 5
371 263 m 5
 234 466 l 5
 180 432 l 5
 274 263 l 5
 180 94 l 5
 231 59.5 l 5
 371 263 l 5
EndSplineSet
Validated: 9
Layer: 2
EndChar
StartChar: questiondown
Encoding: 110 191 242
Width: 556
Flags: HMW
HStem: -215 80<242 313 242 339> 420 100<225 325 225 325>
VStem: 49 95<-54 23.5 -54 36> 225 95
LayerCount: 3
Back
SplineSet
235 344 m 5
 320 344 l 5
 320 317 l 6
 320 236 295 177 229 132 c 4
 185 102 144 54 144 -7 c 4
 144 -101 206 -135 278 -135 c 4
 348 -135 402 -91 412 6 c 5
 498 -4 l 5
 486 -136 399 -215 279 -215 c 4
 141 -215 49 -136 49 -13 c 4
 49 85 113 136 174 187 c 4
 222 227 233 260 235 317 c 6
 235 344 l 5
225 520 m 5
 325 520 l 5
 325 420 l 5
 225 420 l 5
 225 520 l 5
EndSplineSet
Fore
SplineSet
298 408 m 1
 251.76953125 408.000976562 l 1
 218.916992188 443.74609375 l 1
 218.939453125 494.549804688 l 1
 251.21875 530.900390625 l 1
 297.44921875 530.899414062 l 1
 330.609375 494.450195312 l 1
 330.529296875 443.600585938 l 1
 298 408 l 1
320.2578125 347.8046875 m 1
 320.2578125 320.333984375 l 1
 299.081054688 212.228515625 l 1
 227.384765625 131.611328125 l 1
 167.276367188 72.552734375 l 1
 140.719726562 -10.166015625 l 1
 181.48046875 -111.381835938 l 1
 277.223632812 -140.715820312 l 1
 368.5234375 -105.896484375 l 1
 413.896484375 3.1015625 l 1
 501.58203125 -7.1044921875 l 1
 431.129882812 -165.217773438 l 1
 278.07421875 -222.36328125 l 1
 108.072265625 -166.366210938 l 1
 43.5087890625 -16.2890625 l 1
 83.9716796875 103.672851562 l 1
 170.997070312 187.658203125 l 1
 219.688476562 247.447265625 l 1
 233.16796875 320.249023438 l 1
 233.16796875 347.8046875 l 1
 320.2578125 347.8046875 l 1
EndSplineSet
Validated: 1
Layer: 2
EndChar
StartChar: Aacute
Encoding: 112 193 243
Width: 675
Flags: HMW
HStem: 0 21G<10 107 107 107 562 665 665 665> 700 20G<290 387 290 290> 970 20G<336 454 454 454>
LayerCount: 3
Back
Fore
SplineSet
358 927.5 m 5
 301 790 l 5
 351 762 l 5
 432 884 l 5
 358 927.5 l 5
EndSplineSet
Refer: 90 65 N 1 0 0 1 0 0 3
Validated: 9
Layer: 2
EndChar
StartChar: Acircumflex
Encoding: 113 194 252
Width: 675
Flags: HMW
HStem: 0 21G<10 107 10 10 562 665 562 562> 175 85<205 466 205 497 173 466> 700 20G<290 387 387 387> 950 20G<300 377 377 377>
LayerCount: 3
Back
Fore
SplineSet
300 950 m 5
 184 795 l 5
 229.379882812 760.5 l 5
 338 891 l 5
 444 761.5 l 5
 490 796 l 5
 379 950 l 5
 338 950 l 5
 300 950 l 5
EndSplineSet
Refer: 90 65 N 1 0 0 1 0 0 3
Validated: 9
Layer: 2
EndChar
StartChar: Atilde
Encoding: 114 195 326
Width: 675
Flags: HMW
HStem: 0 21G<10 107 10 10 562 665 562 562> 175 85<205 466 205 497 173 466> 700 20G<290 387 387 387> 860 31 860 81<254 282.5>
LayerCount: 3
Back
SplineSet
290 720 m 1xe8
 387 720 l 1
 665 0 l 1
 562 0 l 1
 497 175 l 1
 173 175 l 1
 107 0 l 1xe8
 10 0 l 1xf0
 290 720 l 1xe8
338 611 m 1
 205 260 l 1
 466 260 l 1
 338 611 l 1
163 810 m 5
 163 901 l 5
 191 931 240 941 268 941 c 4
 327 941 365 891 414 891 c 4
 432 891 481 901 509 941 c 5
 509 850 l 5
 481 820 432 810 404 810 c 4
 345 810 307 860 258 860 c 4
 230 860 191 850 163 810 c 5
EndSplineSet
Fore
Refer: 194 126 N 1 0 0 1 75.4912 524.021 2
Refer: 90 65 N 1 0 0 1 0 0 3
Validated: 1
Layer: 2
EndChar
StartChar: Adieresis
Encoding: 115 196 238
Width: 675
Flags: HMW
HStem: 0 21G<10 107 10 10 562 665 562 562> 175 85<205 466 205 497 173 466> 700 20G<290 387 387 387> 819 101<197 287 197 287 197 387 387 477>
VStem: 197 90<819 920> 387 90<819 920>
LayerCount: 3
Back
Fore
SplineSet
455 807 m 1
 409 807 l 1
 376 843 l 1
 376 894 l 1
 409 930 l 1
 455 930 l 1
 488 894 l 1
 488 843 l 1
 455 807 l 1
266 807 m 1
 219 807 l 1
 186 843 l 1
 186 894 l 1
 219 930 l 1
 265 930 l 1
 298 894 l 1
 298 843 l 1
 266 807 l 1
290 720 m 1
 387 720 l 1
 665 0 l 1
 562 0 l 1
 497 175 l 1
 173 175 l 1
 107 0 l 1
 10 0 l 1
 290 720 l 1
338 611 m 1
 205 260 l 1
 466 260 l 1
 338 611 l 1
EndSplineSet
Validated: 1
Layer: 2
EndChar
StartChar: Aring
Encoding: 116 197 268
Width: 675
Flags: HMW
HStem: 0 21G<10 107 107 107 562 665 665 665> 700 20G<290 387 290 290> 775 62<319.5 357 319.5 374> 972 63<319.5 357>
VStem: 208 62<886 923.5 886 940.5> 405 63<886 923.5>
LayerCount: 3
Back
SplineSet
387 720 m 1
 290 720 l 1
 10 0 l 1
 107 0 l 1
 173 175 l 1
 497 175 l 1
 562 0 l 1
 665 0 l 1
 387 720 l 1
205 260 m 1
 338 611 l 1
 466 260 l 1
 205 260 l 1
208 905 m 4
 208 976 267 1035 338 1035 c 4
 410 1035 468 976 468 905 c 4
 468 833 410 775 338 775 c 4
 267 775 208 833 208 905 c 4
270 905 m 4
 270 867 301 837 338 837 c 4
 376 837 405 867 405 905 c 4
 405 942 376 972 338 972 c 4
 301 972 270 942 270 905 c 4
EndSplineSet
Fore
SplineSet
337.158203125 1035 m 1
 429.106445312 996.611328125 l 1
 467.149414062 905.008789062 l 1
 429.168945312 813.03125 l 1
 337.158203125 775.017578125 l 1
 245.408203125 813.03125 l 1
 207 905.008789062 l 1
 245.533203125 996.611328125 l 1
 337.158203125 1035 l 1
337.158203125 836.969726562 m 1
 384.831054688 856.72265625 l 1
 404.11328125 904.92578125 l 1
 384.831054688 952.327148438 l 1
 337.158203125 971.963867188 l 1
 289.296875 952.327148438 l 1
 269.202148438 904.92578125 l 1
 289.296875 856.72265625 l 1
 337.158203125 836.969726562 l 1
387 720 m 1
 290 720 l 1
 10 0 l 1
 107 0 l 1
 173 175 l 1
 497 175 l 1
 562 0 l 1
 665 0 l 1
 387 720 l 1
205 260 m 1
 338 611 l 1
 466 260 l 1
 205 260 l 1
EndSplineSet
Validated: 9
Layer: 2
EndChar
StartChar: AE
Encoding: 117 198 328
Width: 1064
Flags: HMW
HStem: 0 85<582 994 582 994> 172 85<286 487 286 487 233 487> 325 85<582 934 582 934> 635 85<582 984 582 582>
VStem: 487 95<85 172 172 172 257 325 410 580 580 580>
LayerCount: 3
Back
Fore
SplineSet
116 -15 m 1
 39 30 l 1
 477 720 l 1
 984 720 l 1
 984 635 l 1
 582 635 l 1
 582 410 l 1
 934 410 l 1
 934 325 l 1
 582 325 l 1
 582 85 l 1
 994 85 l 1
 994 0 l 1
 487 0 l 1
 487 172 l 1
 233 172 l 1
 116 -15 l 1
487 257 m 1
 487 580 l 1
 286 257 l 1
 487 257 l 1
EndSplineSet
Validated: 1
Layer: 2
EndChar
StartChar: Ccedilla
Encoding: 118 199 333
Width: 734
Flags: HMW
HStem: -242 50<373 391 373 407> -92 48<373 381 381 391> -15 80<380 383 380 380> 655 80<308 442>
VStem: 50 100<276.5 443.5 276.5 463.5> 419 48<-160 -124>
LayerCount: 3
Back
SplineSet
419 -142 m 4
 419 -106 401 -92 381 -92 c 4
 365 -92 354 -101 348 -122 c 5
 303 -105 l 5
 341 -12 l 5
 149 7 50 166 50 360 c 4
 50 567 163 735 383 735 c 4
 547 735 653 644 684 505 c 5
 587 486 l 5
 566 586 501 655 383 655 c 4
 233 655 150 527 150 360 c 4
 150 193 223 65 383 65 c 4
 491 65 558 132 587 233 c 5
 684 214 l 5
 652 79 547 -15 383 -15 c 6
 380 -15 l 5
 368 -44 l 5
 381 -44 l 6
 433 -44 467 -80 467 -142 c 4
 467 -204 433 -242 381 -242 c 4
 341 -242 313 -219 303 -179 c 5
 348 -164 l 5
 354 -184 365 -192 381 -192 c 4
 401 -192 419 -178 419 -142 c 4
EndSplineSet
Fore
SplineSet
381.220703125 -98.7021484375 m 5
 360.6171875 -106.016601562 l 4
 347.541015625 -129.362304688 l 5
 324.578125 -120.6875 l 5
 301.615234375 -112.012695312 l 5
 321.005859375 -64.59765625 l 5
 340.396484375 -17.18359375 l 5
 118.578125 105.610351562 l 4
 43.6611328125 362.219726562 l 4
 129.294921875 632.684570312 l 4
 383.26171875 744.76953125 l 4
 587.666015625 680.651367188 l 4
 690.203125 510.205078125 l 5
 640.747070312 500.466796875 l 5
 591.291015625 490.729492188 l 5
 524.368164062 615.198242188 l 4
 383.26171875 663.123046875 l 4
 207.029296875 576.551757812 l 4
 145.549804688 362.219726562 l 4
 203.203125 147.921875 l 4
 383.26171875 61.3173828125 l 4
 517.54296875 108.349609375 l 4
 591.291015625 232.69140625 l 5
 640.747070312 222.995117188 l 5
 690.203125 213.299804688 l 5
 587.186523438 44.89453125 l 4
 383.26171875 -20.244140625 l 6
 381.7734375 -20.244140625 l 5
 380.284179688 -20.244140625 l 5
 374.076171875 -35.04296875 l 5
 367.868164062 -49.8408203125 l 5
 374.500976562 -49.8408203125 l 5
 381.134765625 -49.8408203125 l 6
 444.87890625 -76.11328125 l 4
 468.8203125 -149.774414062 l 4
 444.87890625 -224.455078125 l 4
 381.134765625 -251.747070312 l 4
 329.904296875 -234.916015625 l 4
 301.444335938 -187.536132812 l 5
 324.407226562 -179.880859375 l 5
 347.370117188 -172.227539062 l 5
 360.383789062 -194.168945312 l 4
 381.049804688 -200.802734375 l 4
 408.094726562 -189.06640625 l 4
 419.83203125 -149.774414062 l 4
 408.180664062 -110.481445312 l 4
 381.220703125 -98.744140625 l 5
 381.220703125 -98.7021484375 l 5
EndSplineSet
Validated: 1
Layer: 2
EndChar
StartChar: Egrave
Encoding: 119 200 249
Width: 657
Flags: HMW
HStem: 0 85<175 587 175 587> 325 85<175 527 175 527> 635 85<175 577 175 175> 970 20G<200 318 318 318>
VStem: 80 95<85 325 410 635>
LayerCount: 3
Back
Fore
SplineSet
288 927.5 m 1
 345 790 l 1
 295 762 l 1
 214 884 l 1
 288 927.5 l 1
EndSplineSet
Refer: 94 69 N 1 0 0 1 0 0 3
Validated: 1
Layer: 2
EndChar
StartChar: Ecircumflex
Encoding: 121 202 253
Width: 657
Flags: HMW
HStem: 0 85<175 587 175 587> 325 85<175 527 175 527> 635 85<175 577 175 175> 930 20G<296 373 373 373>
VStem: 80 95<85 325 410 635>
LayerCount: 3
Back
Fore
SplineSet
282 950 m 5
 166 795 l 5
 211.379882812 760.5 l 5
 320 891 l 5
 426 761.5 l 5
 472 796 l 5
 361 950 l 5
 320 950 l 5
 282 950 l 5
EndSplineSet
Refer: 94 69 N 1 0 0 1 0 0 3
Validated: 9
Layer: 2
EndChar
StartChar: Edieresis
Encoding: 122 203 220
Width: 657
Flags: HMW
HStem: 0 85<175 587 175 587> 325 85<175 527 175 527> 635 85<175 577 175 175> 819 101<185 275 185 275 385 475>
VStem: 80 95<85 325 410 635> 185 90<819 920> 385 90<819 920>
LayerCount: 3
Back
Fore
SplineSet
453.390625 808.100585938 m 1
 407.16015625 808.1015625 l 1
 374.307617188 843.846679688 l 1
 374.330078125 894.650390625 l 1
 406.609375 931.000976562 l 1
 452.83984375 931 l 1
 486 894.55078125 l 1
 485.919921875 843.701171875 l 1
 453.390625 808.100585938 l 1
252.80078125 808.100585938 m 1
 206.5703125 808.1015625 l 1
 173.717773438 843.846679688 l 1
 173.740234375 894.650390625 l 1
 206.01953125 931.000976562 l 1
 252.25 931 l 1
 285.41015625 894.55078125 l 1
 285.330078125 843.701171875 l 1
 252.80078125 808.100585938 l 1
587 0 m 1
 80 0 l 1
 80 720 l 1
 577 720 l 1
 577 635 l 1
 175 635 l 1
 175 410 l 1
 527 410 l 1
 527 325 l 1
 175 325 l 1
 175 85 l 1
 587 85 l 1
 587 0 l 1
EndSplineSet
Validated: 1
Layer: 2
EndChar
StartChar: Igrave
Encoding: 123 204 263
Width: 255
Flags: HMW
HStem: 0 21G<80 175 80 80> 700 20G<80 175 175 175> 970 20G<-10 108 108 108>
VStem: 80 95<0 720>
LayerCount: 3
Back
Fore
SplineSet
119 927.5 m 5
 176 790 l 5
 126 762 l 5
 45 884 l 5
 119 927.5 l 5
EndSplineSet
Refer: 98 73 N 1 0 0 1 0 0 3
Validated: 1
Layer: 2
EndChar
StartChar: Iacute
Encoding: 124 205 245
Width: 255
Flags: HMW
HStem: 0 21G<80 175 175 175> 700 20G<80 175 80 80> 970 20G<146 264 264 264>
VStem: 80 95<0 720 0 720>
LayerCount: 3
Back
Fore
SplineSet
135 927.5 m 5
 78 790 l 5
 128 762 l 5
 209 884 l 5
 135 927.5 l 5
EndSplineSet
Refer: 98 73 N 1 0 0 1 0 0 3
Validated: 9
Layer: 2
EndChar
StartChar: Icircumflex
Encoding: 125 206 254
Width: 255
Flags: HMW
HStem: 0 21G<80 175 80 80> 700 20G<80 175 175 175> 930 20G<90 167 167 167>
VStem: 80 95<0 720>
LayerCount: 3
Back
Fore
SplineSet
90 950 m 5
 -26 795 l 5
 19.3798828125 760.5 l 5
 128 891 l 5
 234 761.5 l 5
 280 796 l 5
 169 950 l 5
 128 950 l 5
 90 950 l 5
EndSplineSet
Refer: 98 73 N 1 0 0 1 0 0 3
Validated: 9
Layer: 2
EndChar
StartChar: Idieresis
Encoding: 126 207 218
Width: 255
Flags: HMW
HStem: 0 21G<80 175 80 80> 700 20G<80 175 175 175> 819 101<8 98 8 98 8 158 158 248>
VStem: 8 90<819 920> 80 95<0 720> 158 90<819 920>
LayerCount: 3
Back
Fore
SplineSet
226.583007812 808.100585938 m 5
 180.352539062 808.1015625 l 5
 147.5 843.846679688 l 5
 147.522460938 894.650390625 l 5
 179.801757812 931.000976562 l 5
 226.032226562 931 l 5
 259.192382812 894.55078125 l 5
 259.112304688 843.701171875 l 5
 226.583007812 808.100585938 l 5
77.060546875 808.100585938 m 1
 30.830078125 808.1015625 l 1
 -2.0224609375 843.846679688 l 1
 -2 894.650390625 l 1
 30.279296875 931.000976562 l 1
 76.509765625 931 l 1
 109.669921875 894.55078125 l 1
 109.58984375 843.701171875 l 1
 77.060546875 808.100585938 l 1
175 0 m 1xe8
 80 0 l 1
 80 720 l 1
 175 720 l 1
 175 0 l 1xe8
EndSplineSet
Validated: 1
Layer: 2
EndChar
StartChar: Eth
Encoding: 127 208 321
Width: 799
Flags: HMW
HStem: 0 84<265 395 395 405> 325 75<20 170 20 170 265 436> 635 85<265 392 265 265>
VStem: 170 95<84 325 84 325 84 325 400 635> 651 98<269.5 465>
LayerCount: 3
Back
SplineSet
405 0 m 6
 170 0 l 5
 170 325 l 5
 20 325 l 5
 20 400 l 5
 170 400 l 5
 170 720 l 5
 394 720 l 6
 626 720 749 594 749 362 c 4
 749 137 637 0 405 0 c 6
265 325 m 5
 265 84 l 5
 395 84 l 6
 571 84 651 176 651 363 c 4
 651 567 550 635 392 635 c 6
 265 635 l 5
 265 400 l 5
 436 400 l 5
 436 325 l 5
 265 325 l 5
EndSplineSet
Fore
SplineSet
170.002929688 0.0029296875 m 2
 170.002929688 325.0234375 l 1
 20 325.0234375 l 1
 20 399.982421875 l 1
 170.002929688 399.982421875 l 1
 170.002929688 720 l 1
 392 720 l 1
 658.606445312 627.846679688 l 1
 749.168945312 361.885742188 l 1
 664.109375 96.4755859375 l 1
 405.137695312 -0.1552734375 l 1
 170.002929688 -0.1552734375 l 1
 170.002929688 0.0029296875 l 2
264.973632812 83.9677734375 m 1
 406 84 l 1
 588.97265625 153.5 l 1
 650.9453125 363.103515625 l 1
 580.717773438 575.608398438 l 1
 392 635 l 1
 265.140625 635.092773438 l 1
 265.140625 400.125 l 1
 436.239257812 400.125 l 1
 436.239257812 325.165039062 l 1
 265.140625 325.165039062 l 1
 264.973632812 84.109375 l 2
 264.973632812 83.9677734375 l 1
EndSplineSet
Validated: 1
Layer: 2
EndChar
StartChar: Ntilde
Encoding: 128 209 324
Width: 724
Flags: HMW
HStem: 0 21G<80 171 80 80 547 547 547 644> 700 20G<80 177 177 177 553 644 644 644> 810 81<419.5 448> 860 81<284 312.5>
VStem: 80 91<0 566> 553 91<154 720 0 720>
LayerCount: 3
Back
SplineSet
171 0 m 1xec
 80 0 l 1
 80 720 l 1xdc
 177 720 l 1xec
 553 154 l 1
 553 720 l 1xdc
 644 720 l 1xec
 644 0 l 1xdc
 547 0 l 1
 171 566 l 1
 171 0 l 1xec
193 810 m 5
 193 901 l 5
 221 931 270 941 298 941 c 4
 357 941 395 891 444 891 c 4
 462 891 511 901 539 941 c 5
 539 850 l 5
 511 820 462 810 434 810 c 4
 375 810 337 860 288 860 c 4
 260 860 221 850 193 810 c 5
EndSplineSet
Fore
SplineSet
193 901.060546875 m 1xdc
 245.530273438 932.287109375 l 0
 298.060546875 941 l 0
 374.782226562 915.985351562 l 0
 444.060546875 890.971679688 l 0
 487.8359375 900.9765625 l 0
 539.115234375 941 l 1
 539.115234375 895.515625 l 1
 539.115234375 850.03125 l 1
 486.584960938 818.8046875 l 0
 434.0546875 810.091796875 l 0
 357.302734375 835.10546875 l 0
 288.0546875 860.120117188 l 0
 240.52734375 850.114257812 l 0
 193 810.091796875 l 1
 193 855.576171875 l 1
 193 901.060546875 l 1xdc
171 0 m 1
 80 0 l 1
 80 720 l 1
 177 720 l 1
 553 154 l 1
 553 720 l 1
 644 720 l 1
 644 0 l 1
 547 0 l 1
 171 566 l 1
 171 0 l 1
EndSplineSet
Validated: 1
Layer: 2
EndChar
StartChar: Ograve
Encoding: 129 210 250
Width: 785
Flags: HMW
HStem: -15 80<313 467.5 313 502.5> 655 80<318 467.5> 970 20G<250 368 368 368>
VStem: 50 100<276.5 443.5 276.5 463.5> 635 100<276.5 443.5>
LayerCount: 3
Back
SplineSet
50 360 m 4
 50 567 173 735 393 735 c 4
 612 735 735 567 735 360 c 4
 735 153 612 -15 393 -15 c 4
 173 -15 50 153 50 360 c 4
150 360 m 4
 150 193 233 65 393 65 c 4
 542 65 635 193 635 360 c 4
 635 527 542 655 393 655 c 4
 243 655 150 527 150 360 c 4
368 990 m 5
 444 803 l 5
 373 803 l 5
 250 990 l 5
 368 990 l 5
EndSplineSet
Fore
SplineSet
371 927.5 m 5
 428 790 l 5
 378 762 l 5
 297 884 l 5
 371 927.5 l 5
EndSplineSet
Refer: 104 79 N 1 0 0 1 0 0 3
Validated: 1
Layer: 2
EndChar
StartChar: Oacute
Encoding: 130 211 246
Width: 785
Flags: HMW
HStem: -15 80<313 467.5 313 502.5> 655 80<318 467.5> 970 20G<416 534 534 534>
VStem: 50 100<276.5 443.5 276.5 463.5> 635 100<276.5 443.5>
LayerCount: 3
Back
SplineSet
50 360 m 4
 50 567 173 735 393 735 c 4
 612 735 735 567 735 360 c 4
 735 153 612 -15 393 -15 c 4
 173 -15 50 153 50 360 c 4
150 360 m 4
 150 193 233 65 393 65 c 4
 542 65 635 193 635 360 c 4
 635 527 542 655 393 655 c 4
 243 655 150 527 150 360 c 4
340 803 m 5
 416 990 l 5
 534 990 l 5
 411 803 l 5
 340 803 l 5
EndSplineSet
Fore
SplineSet
404 927.5 m 1
 347 790 l 1
 397 762 l 1
 478 884 l 1
 404 927.5 l 1
EndSplineSet
Refer: 104 79 N 1 0 0 1 0 0 3
Validated: 9
Layer: 2
EndChar
StartChar: Otilde
Encoding: 132 213 326
Width: 785
Flags: HMW
HStem: -15 80<313 467.5 313 502.5> 655 80<318 467.5> 860 31 860 81<304 332.5>
VStem: 50 100<276.5 443.5 276.5 463.5> 635 100<276.5 443.5>
LayerCount: 3
Back
SplineSet
50 360 m 4xdc
 50 567 173 735 393 735 c 4
 612 735 735 567 735 360 c 4
 735 153 612 -15 393 -15 c 4
 173 -15 50 153 50 360 c 4xdc
150 360 m 4xec
 150 193 233 65 393 65 c 4
 542 65 635 193 635 360 c 4
 635 527 542 655 393 655 c 4xdc
 243 655 150 527 150 360 c 4xec
213 810 m 5
 213 901 l 5
 241 931 290 941 318 941 c 4
 377 941 415 891 464 891 c 4
 482 891 531 901 559 941 c 5
 559 850 l 5
 531 820 482 810 454 810 c 4
 395 810 357 860 308 860 c 4
 280 860 241 850 213 810 c 5
EndSplineSet
Fore
Refer: 194 126 N 1 0 0 1 129.947 531.521 2
Refer: 104 79 N 1 0 0 1 0 0 3
Validated: 1
Layer: 2
EndChar
StartChar: Odieresis
Encoding: 133 214 238
Width: 785
Flags: HMW
HStem: -15 80<313 467.5 313 502.5> 655 80<318 467.5> 819 101<239 329 239 329 459 549>
VStem: 50 100<276.5 443.5 276.5 463.5> 329 130<819 920 819 920> 549 186 635 100<276.5 443.5>
LayerCount: 3
Back
SplineSet
50 360 m 4xfc
 50 567 173 735 393 735 c 4
 612 735 735 567 735 360 c 4
 735 153 612 -15 393 -15 c 4
 173 -15 50 153 50 360 c 4xfc
150 360 m 4
 150 193 233 65 393 65 c 4
 542 65 635 193 635 360 c 4
 635 527 542 655 393 655 c 4
 243 655 150 527 150 360 c 4
329 819 m 5
 239 819 l 5xfa
 239 920 l 5
 329 920 l 5
 329 819 l 5
549 819 m 5
 459 819 l 5
 459 920 l 5
 549 920 l 5
 549 819 l 5
EndSplineSet
Fore
SplineSet
527.720703125 808.100585938 m 1
 481.490234375 808.1015625 l 1
 448.637695312 843.846679688 l 1
 448.66015625 894.650390625 l 1
 480.939453125 931.000976562 l 1
 527.169921875 931 l 1
 560.330078125 894.55078125 l 1
 560.25 843.701171875 l 1
 527.720703125 808.100585938 l 1
307.380859375 808.100585938 m 5
 261.150390625 808.1015625 l 5
 228.297851562 843.846679688 l 5
 228.3203125 894.650390625 l 5
 260.599609375 931.000976562 l 5
 306.830078125 931 l 5
 339.990234375 894.55078125 l 5
 339.91015625 843.701171875 l 5
 307.380859375 808.100585938 l 5
393.030273438 735.060546875 m 0
 646.196289062 625.171875 l 0
 735.143554688 360.01171875 l 0
 646.196289062 94.92578125 l 0
 393.030273438 -14.9541015625 l 0
 138.999023438 94.92578125 l 0
 50 360.01171875 l 0
 138.999023438 625.171875 l 0
 393.030273438 735.060546875 l 0
393.030273438 65.0087890625 m 0
 569.861328125 149.8828125 l 0
 635.002929688 360.01171875 l 0
 569.861328125 570.140625 l 0
 393.030273438 655.014648438 l 0
 215.219726562 570.140625 l 0
 149.974609375 360.01171875 l 0
 211.499023438 149.908203125 l 0
 393.030273438 65.0087890625 l 0
EndSplineSet
Validated: 1
Layer: 2
EndChar
StartChar: multiply
Encoding: 134 215 306
Width: 556
Flags: MW
HStem: 199 21G<148 148 408 408> 546 20G<148 148 408 408>
LayerCount: 3
Back
Fore
SplineSet
278 329 m 1
 148 199 l 1
 95 252 l 1
 225 382 l 1
 95 513 l 1
 148 566 l 1
 278 435 l 1
 408 566 l 1
 461 513 l 1
 331 382 l 1
 461 252 l 1
 408 199 l 1
 278 329 l 1
EndSplineSet
Validated: 1
Layer: 2
EndChar
StartChar: Oslash
Encoding: 135 216 317
Width: 785
Flags: HMW
HStem: -15 80<361 467.5 361 502.5> 655 80<318 422.5>
VStem: 50 100<326 443.5 326 463.5> 635 100<276.5 394>
LayerCount: 3
Back
SplineSet
714 687 m 5
 654 615 l 5
 707 548 735 458 735 360 c 4
 735 153 612 -15 393 -15 c 4
 307 -15 237 10 182 53 c 5
 125 -15 l 5
 67 33 l 5
 129 107 l 5
 77 173 50 262 50 360 c 4
 50 567 173 735 393 735 c 4
 476 735 546 710 600 668 c 5
 656 735 l 5
 714 687 l 5
635 360 m 4
 635 428 619 490 590 540 c 5
 238 120 l 5
 277 85 329 65 393 65 c 4
 542 65 635 193 635 360 c 4
150 360 m 4
 150 292 164 230 191 181 c 5
 542 599 l 5
 503 635 452 655 393 655 c 4
 243 655 150 527 150 360 c 4
EndSplineSet
Fore
SplineSet
654.013671875 614.014648438 m 1
 714.422851562 498.114257812 l 1
 735.060546875 358.951171875 l 1
 646.11328125 93.865234375 l 1
 392.947265625 -16.013671875 l 1
 275.870117188 1.86328125 l 1
 181.9921875 51.94140625 l 1
 124.875976562 -16.013671875 l 1
 67.009765625 32.013671875 l 1
 128.87890625 105.97265625 l 1
 69.9599609375 220.48828125 l 1
 50 358.951171875 l 1
 139.020507812 624.112304688 l 1
 392.947265625 734 l 1
 507.3046875 716.248046875 l 1
 599.899414062 667.044921875 l 1
 655.931640625 734 l 1
 713.880859375 685.97265625 l 1
 654.013671875 614.014648438 l 1
190.998046875 180.015625 m 1
 541.94921875 598.004882812 l 1
 474.962890625 639.487304688 l 1
 393.030273438 653.954101562 l 1
 215.219726562 569.080078125 l 1
 149.973632812 358.951171875 l 1
 160.29296875 262.354492188 l 1
 190.998046875 180.015625 l 1
589.9765625 538.971679688 m 1
 237.94140625 118.98046875 l 1
 306.084960938 78.33203125 l 1
 392.86328125 63.9482421875 l 1
 569.694335938 148.822265625 l 1
 634.8359375 358.951171875 l 1
 623.319335938 455.748046875 l 1
 589.9765625 538.971679688 l 1
EndSplineSet
Validated: 1
Layer: 2
EndChar
StartChar: Ugrave
Encoding: 136 217 252
Width: 723
Flags: HMW
HStem: -15 85<342.5 475.5 342.5 506.5> 700 20G<126 221 221 221 594 689 689 689> 970 20G<256 374 374 374>
VStem: 126 95<302 720> 594 95<297 302 302 720>
LayerCount: 3
Back
SplineSet
548 297 m 6
 548 720 l 5
 643 720 l 5
 643 302 l 6
 643 117 559 -15 362 -15 c 4
 167 -15 80 117 80 302 c 6
 80 720 l 5
 175 720 l 5
 175 297 l 6
 175 159 230 70 363 70 c 4
 496 70 548 159 548 297 c 6
328 990 m 5
 404 803 l 5
 333 803 l 5
 210 990 l 5
 328 990 l 5
EndSplineSet
Fore
SplineSet
353 927.5 m 1
 410 790 l 1
 360 762 l 1
 279 884 l 1
 353 927.5 l 1
EndSplineSet
Refer: 110 85 N 1 0 0 1 0 0 3
Validated: 5
Layer: 2
EndChar
StartChar: Uacute
Encoding: 137 218 247
Width: 723
Flags: HMW
HStem: -15 85<296.5 429.5 296.5 460.5> 700 20G<80 175 80 80 548 643 548 548> 970 20G<376 494 494 494>
VStem: 80 95<297 302 302 720> 548 95<228 720 302 720 302 720>
LayerCount: 3
Back
SplineSet
548 720 m 5
 548 297 l 6
 548 159 496 70 363 70 c 4
 230 70 175 159 175 297 c 6
 175 720 l 5
 80 720 l 5
 80 302 l 6
 80 117 167 -15 362 -15 c 4
 559 -15 643 117 643 302 c 6
 643 720 l 5
 548 720 l 5
300 803 m 5
 376 990 l 5
 494 990 l 5
 371 803 l 5
 300 803 l 5
EndSplineSet
Fore
SplineSet
358 927.5 m 5
 301 790 l 5
 351 762 l 5
 432 884 l 5
 358 927.5 l 5
EndSplineSet
Refer: 110 85 N 1 0 0 1 0 0 3
Validated: 5
Layer: 2
EndChar
StartChar: Ucircumflex
Encoding: 138 219 256
Width: 723
Flags: HMW
HStem: -15 85<342.5 475.5 342.5 506.5> 700 20G<126 221 221 221 594 689 689 689> 930 20G<369 446 446 446>
VStem: 126 95<302 720> 594 95<297 302 302 720>
LayerCount: 3
Back
SplineSet
548 297 m 6
 548 720 l 5
 643 720 l 5
 643 302 l 6
 643 117 559 -15 362 -15 c 4
 167 -15 80 117 80 302 c 6
 80 720 l 5
 175 720 l 5
 175 297 l 6
 175 159 230 70 363 70 c 4
 496 70 548 159 548 297 c 6
323 950 m 5
 400 950 l 5
 549 770 l 5
 458 770 l 5
 361 891 l 5
 262 770 l 5
 174 770 l 5
 323 950 l 5
EndSplineSet
Fore
SplineSet
322 950 m 5
 206 795 l 5
 251.379882812 760.5 l 5
 360 891 l 5
 466 761.5 l 5
 512 796 l 5
 401 950 l 5
 360 950 l 5
 322 950 l 5
EndSplineSet
Refer: 110 85 N 1 0 0 1 0 0 3
Validated: 5
Layer: 2
EndChar
StartChar: Udieresis
Encoding: 139 220 239
Width: 723
Flags: HMW
HStem: -15 85<296.5 429.5 296.5 460.5> 700 20G<80 175 175 175 548 643 643 643> 819 101<211 301 211 301 421 511>
VStem: 80 95<302 720> 211 90<819 920> 421 90<819 920> 548 95<297 302 302 720>
LayerCount: 3
Back
SplineSet
548 297 m 6
 548 720 l 5
 643 720 l 5
 643 302 l 6
 643 117 559 -15 362 -15 c 4
 167 -15 80 117 80 302 c 6
 80 720 l 5
 175 720 l 5
 175 297 l 6
 175 159 230 70 363 70 c 4
 496 70 548 159 548 297 c 6
301 819 m 5
 211 819 l 5
 211 920 l 5
 301 920 l 5
 301 819 l 5
511 819 m 5
 421 819 l 5
 421 920 l 5
 511 920 l 5
 511 819 l 5
EndSplineSet
Fore
SplineSet
489.390625 808.100585938 m 1
 443.16015625 808.1015625 l 1
 410.307617188 843.846679688 l 1
 410.330078125 894.650390625 l 1
 442.609375 931.000976562 l 1
 488.83984375 931 l 1
 522 894.55078125 l 1
 521.919921875 843.701171875 l 1
 489.390625 808.100585938 l 1
279.30078125 808.100585938 m 1
 233.0703125 808.1015625 l 1
 200.217773438 843.846679688 l 1
 200.240234375 894.650390625 l 1
 232.51953125 931.000976562 l 1
 278.75 931 l 1
 311.91015625 894.55078125 l 1
 311.830078125 843.701171875 l 1
 279.30078125 808.100585938 l 1
547.935546875 720.051757812 m 1
 642.990234375 720.051757812 l 1
 642.990234375 302.061523438 l 1
 576.34765625 74.1728515625 l 1
 361.995117188 -14.9541015625 l 1
 147.862304688 74.1728515625 l 1
 80 302.061523438 l 1
 80 720.051757812 l 1
 174.971679688 720.051757812 l 1
 174.971679688 297.05859375 l 1
 219.12109375 131.7890625 l 1
 363.079101562 70.01171875 l 1
 505.462890625 131.755859375 l 1
 548.102539062 297.05859375 l 1
 547.935546875 720.051757812 l 1
EndSplineSet
Validated: 1
Layer: 2
EndChar
StartChar: Yacute
Encoding: 140 221 247
Width: 675
Flags: HMW
HStem: 0 21G<290 385 385 385> 700 20G<10 125 10 10 555 665 555 555> 970 20G<356 474 474 474>
VStem: 290 95<0 303 0 303>
LayerCount: 3
Back
SplineSet
290 0 m 5
 385 0 l 5
 385 303 l 5
 665 720 l 5
 555 720 l 5
 342 383 l 5
 125 720 l 5
 10 720 l 5
 290 303 l 5
 290 0 l 5
280 803 m 5
 356 990 l 5
 474 990 l 5
 351 803 l 5
 280 803 l 5
EndSplineSet
Fore
Validated: 1
Layer: 2
EndChar
StartChar: Thorn
Encoding: 141 222 318
Width: 657
Flags: HMW
HStem: 0 21G<80 175 80 80> 150 85<175 338 175 340> 495 85<175 330 175 330 330 338> 700 20G<80 175 175 175>
VStem: 80 95<0 150 235 495 580 720> 509 98<322.5 420>
LayerCount: 3
Back
SplineSet
175 0 m 5
 80 0 l 5
 80 720 l 5
 175 720 l 5
 175 580 l 5
 330 580 l 6
 475 580 607 534 607 369 c 4
 607 224 517 150 338 150 c 6
 175 150 l 5
 175 0 l 5
175 495 m 5
 175 235 l 5
 340 235 l 6
 453 235 509 279 509 366 c 4
 509 474 433 495 338 495 c 6
 175 495 l 5
EndSplineSet
Fore
SplineSet
80 0.0029296875 m 5
 80 720 l 5
 174.971679688 720 l 5
 174.971679688 580.002929688 l 5
 329.9765625 580.002929688 l 5
 522.775390625 536.377929688 l 5
 606.885742188 369.048828125 l 5
 539.483398438 205.154296875 l 5
 337.814453125 150.005859375 l 5
 174.8046875 150.005859375 l 5
 174.8046875 0.0029296875 l 5
 80 0.0029296875 l 5
174.971679688 234.971679688 m 5
 339.982421875 234.971679688 l 5
 466.784179688 267.857421875 l 5
 508.913085938 365.962890625 l 5
 459.05078125 470.948242188 l 5
 337.8984375 494.954101562 l 5
 174.887695312 494.954101562 l 5
 174.971679688 234.971679688 l 5
EndSplineSet
Validated: 1
Layer: 2
EndChar
StartChar: germandbls
Encoding: 142 223 330
Width: 623
Flags: HMW
HStem: -15 75<378 431.5 378 455> 0 21G<88 175 88 88> 643 78<251.5 322.5>
VStem: 88 87<0 511 511 513 0 581> 230 86<363.5 428 363.5 449> 384 85<546.5 596> 498 90<111 155>
LayerCount: 3
Back
SplineSet
225 150 m 5xbe
 312 163 l 5
 320 108 345 60 411 60 c 4
 452 60 498 87 498 135 c 4
 498 175 481 209 427 220 c 6
 360 234 l 6
 290 249 230 295 230 381 c 4
 230 517 384 509 384 584 c 4
 384 608 356 643 289 643 c 4
 214 643 175 600 175 513 c 6xbe
 175 0 l 5
 88 0 l 5
 88 511 l 6
 88 651 178 721 288 721 c 4
 416 721 469 658 469 584 c 4
 469 464 316 475 316 381 c 4
 316 346 349 328 380 321 c 6
 460 303 l 6
 526 288 588 240 588 143 c 4x7e
 588 38 502 -15 408 -15 c 4
 291 -15 233 45 225 150 c 5xbe
EndSplineSet
Fore
SplineSet
312.12890625 162.9296875 m 1x3e
 339.89453125 90.8046875 l 1
 411.185546875 59.9541015625 l 1
 470.021484375 79.45703125 l 1
 498.15234375 134.913085938 l 1
 482.893554688 188.286132812 l 1
 427.111328125 219.961914062 l 1
 359.989257812 233.970703125 l 1
 268.759765625 280.830078125 l 1
 229.998046875 380.971679688 l 1
 307.000976562 505.342773438 l 1
 384.002929688 584.004882812 l 1
 361.615234375 622.526367188 l 1
 288.94921875 643.038085938 l 1
 203.84765625 610.653320312 l 1
 174.966796875 513.046875 l 1
 174.966796875 0.0029296875 l 1
 88 0.0029296875 l 1
 88 510.962890625 l 1
 146.732421875 668.478515625 l 1
 287.948242188 721 l 1
 426.423828125 680.2265625 l 1
 468.96875 583.920898438 l 1
 392.466796875 472.682617188 l 1
 315.963867188 380.887695312 l 1
 336.350585938 340.40625 l 1
 380.000976562 320.936523438 l 1
 459.963867188 302.926757812 l 1
 548.72265625 253.690429688 l 1
 587.954101562 142.91796875 l 1
 533.223632812 24.5498046875 l 1
 408.017578125 -15.08984375 l 1
 275.639648438 28.0185546875 l 1
 224.995117188 149.921875 l 1
 312.12890625 162.9296875 l 1x3e
EndSplineSet
Validated: 1
Layer: 2
EndChar
StartChar: aacute
Encoding: 144 225 231
Width: 545
Flags: HMW
HStem: -15 72<236 277> 0 21G<442 533 533 533> 463 72<262.5 329.5> 770 20G<300 418 418 418>
VStem: 69 94<108 176.5 108 193> 415 90<140 263 140 140 332 334 334 352 332 332>
LayerCount: 3
Back
SplineSet
516 64 m 5xbc
 519 39 522 14 537 0 c 5
 628 0 l 5x7c
 610 19 600 53 600 106 c 6
 600 334 l 6
 600 465 538 535 399 535 c 4
 299 535 206 498 180 378 c 5
 265 359 l 5
 283 427 325 463 390 463 c 4
 459 463 510 433 510 352 c 6
 510 332 l 5
 484 320 423 310 368 305 c 4
 252 294 164 249 164 137 c 4
 164 31 245 -15 341 -15 c 4
 403 -15 464 6 516 64 c 5xbc
510 263 m 5
 510 140 l 5
 483 105 422 57 355 57 c 4xbc
 307 57 258 75 258 141 c 4
 258 212 323 224 378 233 c 4
 429 241 487 252 510 263 c 5
319 603 m 5
 395 790 l 5
 513 790 l 5
 390 603 l 5
 319 603 l 5
EndSplineSet
Fore
Refer: 345 180 N 1 0 0 1 65.9688 75 2
Refer: 64 97 N 1 0 0 1 0 0 3
Validated: 5
Layer: 2
EndChar
StartChar: acircumflex
Encoding: 145 226 261
Width: 545
Flags: HMW
HStem: -15 72<203 244> 0 21G<409 500 409 409> 463 72<229.5 296.5> 740 20G<219 296 296 296>
VStem: 36 94<108 176.5 108 193> 382 90<140 263 263 263 332 334>
LayerCount: 3
Back
SplineSet
387 64 m 5xbc
 335 6 274 -15 212 -15 c 4
 116 -15 35 31 35 137 c 4
 35 249 123 294 239 305 c 4
 294 310 355 320 381 332 c 5
 381 352 l 6
 381 433 330 463 261 463 c 4
 196 463 154 427 136 359 c 5
 51 378 l 5
 77 498 170 535 270 535 c 4
 409 535 471 465 471 334 c 6
 471 106 l 6
 471 53 481 19 499 0 c 5
 408 0 l 5x7c
 393 14 390 39 387 64 c 5xbc
381 140 m 5
 381 263 l 5
 358 252 300 241 249 233 c 4
 194 224 129 212 129 141 c 4
 129 75 178 57 226 57 c 4
 293 57 354 105 381 140 c 5
218 760 m 5
 295 760 l 5
 414 600 l 5
 323 600 l 5
 256 701 l 5
 187 600 l 5
 99 600 l 5xbc
 218 760 l 5
EndSplineSet
Fore
Refer: 170 94 N 1 0 0 1 -7.03125 125 2
Refer: 64 97 N 1 0 0 1 0 0 3
Validated: 5
Layer: 2
EndChar
StartChar: atilde
Encoding: 146 227 324
Width: 545
Flags: HMW
HStem: -15 72<203 244> 0 21G<409 500 409 409> 463 72<229.5 296.5> 610 75<318.5 347> 660 75<193 221.5>
VStem: 36 94<108 176.5 108 193> 382 90<140 263 263 263 332 334>
LayerCount: 3
Back
SplineSet
387 64 m 5xae
 335 6 274 -15 212 -15 c 4xb6
 116 -15 35 31 35 137 c 4xae
 35 249 123 294 239 305 c 4
 294 310 355 320 381 332 c 5xb6
 381 352 l 6xae
 381 433 330 463 261 463 c 4xb6
 196 463 154 427 136 359 c 5
 51 378 l 5
 77 498 170 535 270 535 c 4
 409 535 471 465 471 334 c 6
 471 106 l 6
 471 53 481 19 499 0 c 5
 408 0 l 5
 393 14 390 39 387 64 c 5xae
381 140 m 5
 381 263 l 5
 358 252 300 241 249 233 c 4
 194 224 129 212 129 141 c 4
 129 75 178 57 226 57 c 4
 293 57 354 105 381 140 c 5
111 610 m 5
 111 695 l 5
 139 725 178 735 206 735 c 4
 265 735 293 685 342 685 c 4
 360 685 399 695 427 735 c 5
 427 650 l 5
 399 620 360 610 332 610 c 4
 273 610 245 660 196 660 c 4x76
 168 660 139 650 111 610 c 5
EndSplineSet
Fore
SplineSet
112.966796875 695.060546875 m 5x2e
 160.494140625 726.287109375 l 5
 208.021484375 735 l 5
 279.8125 709.985351562 l 5
 344.099609375 684.971679688 l 5
 382.872070312 694.9765625 l 5
 429.1484375 735 l 5
 429.1484375 650.034179688 l 5
 381.611328125 618.766601562 l 5
 334.009765625 610.01171875 l 5
 262.291992188 635.026367188 l 5
 198.015625 660.040039062 l 5
 155.491210938 650.034179688 l 5
 112.966796875 610.01171875 l 5
 112.966796875 695.060546875 l 5x2e
EndSplineSet
Refer: 64 97 N 1 0 0 1 0 0 3
Validated: 5
Layer: 2
EndChar
StartChar: adieresis
Encoding: 147 228 225
Width: 544
Flags: HMW
HStem: -15 72<202 243> 0 21G<408 499 408 408> 463 72<228.5 295.5> 620 100<133 224 133 224 133 313 313 404>
VStem: 35 94<108 176.5 108 193> 133 91<620 720> 313 91<620 720> 381 90<140 263 263 263 332 334>
LayerCount: 3
Back
SplineSet
387 64 m 5xbd
 335 6 274 -15 212 -15 c 4
 116 -15 35 31 35 137 c 4
 35 249 123 294 239 305 c 4
 294 310 355 320 381 332 c 5
 381 352 l 6
 381 433 330 463 261 463 c 4
 196 463 154 427 136 359 c 5
 51 378 l 5x7d
 77 498 170 535 270 535 c 4
 409 535 471 465 471 334 c 6
 471 106 l 6
 471 53 481 19 499 0 c 5
 408 0 l 5
 393 14 390 39 387 64 c 5xbd
381 140 m 5
 381 263 l 5
 358 252 300 241 249 233 c 4
 194 224 129 212 129 141 c 4
 129 75 178 57 226 57 c 4
 293 57 354 105 381 140 c 5
224 620 m 5
 133 620 l 5
 133 720 l 5
 224 720 l 5
 224 620 l 5
404 620 m 5
 313 620 l 5
 313 720 l 5
 404 720 l 5xbe
 404 620 l 5
EndSplineSet
Fore
SplineSet
381.83984375 607.5 m 1
 335.609375 607.500976562 l 1
 302.756835938 643.24609375 l 1
 302.779296875 694.049804688 l 1
 335.05859375 730.400390625 l 1
 381.2890625 730.399414062 l 1
 414.44921875 693.950195312 l 1
 414.369140625 643.100585938 l 1
 381.83984375 607.5 l 1
202 607.5 m 1
 155.76953125 607.500976562 l 1
 122.916992188 643.24609375 l 1
 122.939453125 694.049804688 l 1
 155.21875 730.400390625 l 1
 201.44921875 730.399414062 l 1
 234.609375 693.950195312 l 1
 234.529296875 643.100585938 l 1
 202 607.5 l 1
87.55078125 21.2236328125 m 1
 35 136.998046875 l 1
 93.5546875 258.868164062 l 1
 239.034179688 305.01171875 l 1
 320.9140625 315.892578125 l 1
 381.032226562 332.02734375 l 1
 381.032226562 352.0390625 l 1
 346.940429688 437.920898438 l 1
 261.129882812 463.01953125 l 1
 181.032226562 436.51171875 l 1
 136.141601562 359.04296875 l 1
 51.0087890625 378.053710938 l 1
 132.754882812 501.549804688 l 1
 269.96875 535.060546875 l 1
 422.639648438 483.697265625 l 1
 471 334.028320312 l 1
 471 106.064453125 l 1x3d
 478.254882812 40.318359375 l 1
 499.016601562 0.0869140625 l 1
 407.963867188 0.0869140625 l 1
 392.966796875 27.9775390625 l 1
 387.038085938 64.123046875 l 1
 303.28125 2.7626953125 l 1
 212.020507812 -15.005859375 l 1
 87.55078125 21.2236328125 l 1
325.583984375 246.853515625 m 1
 249.040039062 232.970703125 l 1
 168.483398438 210.20703125 l 1
 129.137695312 140.916992188 l 1
 159.603515625 74.1708984375 l 1
 226.026367188 56.9521484375 l 1
 318.569335938 85.34375 l 1
 381.032226562 140 l 1
 381.032226562 262.987304688 l 1
 325.583984375 246.853515625 l 1
EndSplineSet
Validated: 1
Layer: 2
EndChar
StartChar: aring
Encoding: 148 229 270
Width: 545
Flags: HMW
HStem: -15 72<203 244> 0 21G<409 500 500 500> 463 72<229.5 296.5> 605 62<239.5 277 239.5 294> 667 135<239.5 277> 802 63<239.5 277>
VStem: 36 94<108 176.5 108 193> 190 135<716 753.5> 382 90<140 263 140 140 332 334 334 352 332 332>
LayerCount: 3
Back
SplineSet
387 64 m 5xab80
 390 39 393 14 408 0 c 5
 499 0 l 5x6b80
 481 19 471 53 471 106 c 6
 471 334 l 6
 471 465 409 535 270 535 c 4
 170 535 77 498 51 378 c 5
 136 359 l 5
 154 427 196 463 261 463 c 4
 330 463 381 433 381 352 c 6
 381 332 l 5
 355 320 294 310 239 305 c 4
 123 294 35 249 35 137 c 4
 35 31 116 -15 212 -15 c 4
 274 -15 335 6 387 64 c 5xab80
381 263 m 5
 381 140 l 5
 354 105 293 57 226 57 c 4xb780
 178 57 129 75 129 141 c 4
 129 212 194 224 249 233 c 4
 300 241 358 252 381 263 c 5
127 735 m 4
 127 806 186 865 257 865 c 4
 329 865 387 806 387 735 c 4
 387 663 329 605 257 605 c 4
 186 605 127 663 127 735 c 4
189 735 m 4
 189 697 220 667 257 667 c 4
 295 667 324 697 324 735 c 4
 324 772 295 802 257 802 c 4
 220 802 189 772 189 735 c 4
EndSplineSet
Fore
Refer: 188 176 N 1 0 0 1 90.894 119.982 2
Refer: 64 97 N 1 0 0 1 0 0 3
Validated: 5
Layer: 2
EndChar
StartChar: ae
Encoding: 149 230 328
Width: 890
Flags: HMW
HStem: -15 75<577 643.5 577 665.5> 237 72<464 749 464 844 461 749> 463 72<228.5 295.5>
VStem: 35 94<108 176.5 108 193> 371 90<237 237 237 263> 749 96<309 309>
LayerCount: 3
Back
SplineSet
844 237 m 5
 461 237 l 5
 469 113 540 60 614 60 c 4
 673 60 735 98 753 176 c 5
 781 170 810 164 838 158 c 5
 808 42 722 -15 609 -15 c 4
 534 -15 472 13 431 64 c 5
 375 11 311 -15 242 -15 c 4
 126 -15 35 25 35 137 c 4
 35 249 123 294 239 305 c 4
 294 310 345 320 371 332 c 5
 371 352 l 6
 371 433 330 463 261 463 c 4
 196 463 154 427 136 359 c 5
 108 365 79 372 51 378 c 5
 77 498 170 535 270 535 c 4
 355 535 401 508 432 458 c 5
 474 508 535 535 609 535 c 4
 766 535 845 421 845 270 c 4
 845 267 845 244 844 237 c 5
396 122 m 5
 378 162 371 208 371 263 c 5
 348 252 300 241 249 233 c 4
 194 224 129 212 129 141 c 4
 129 75 188 57 246 57 c 4
 314 57 356 81 396 122 c 5
609 460 m 4
 547 460 480 415 464 309 c 5
 749 309 l 5
 745 397 693 460 609 460 c 4
EndSplineSet
Fore
SplineSet
461.247070312 237.536132812 m 1
 514.115234375 99.833984375 l 1
 617.310546875 56.9775390625 l 1
 703.912109375 86.310546875 l 1
 759.2578125 175.28125 l 1
 845.921875 156.91015625 l 1
 760.884765625 24.3095703125 l 1
 612.377929688 -19.56640625 l 1
 508.56640625 1.185546875 l 1
 430.713867188 60.974609375 l 1
 339.349609375 0.419921875 l 1
 237.908203125 -19.56640625 l 1
 88.009765625 15.0908203125 l 1
 26.90234375 135.477539062 l 1
 86.5419921875 259.819335938 l 1
 369.564453125 334.407226562 l 1
 369.564453125 354.818359375 l 1
 339.850585938 442.418945312 l 1
 257.383789062 468.018554688 l 1
 175.65234375 440.981445312 l 1
 129.896484375 361.962890625 l 1
 43.0615234375 381.353515625 l 1
 126.515625 507.319335938 l 1
 266.484375 541.500976562 l 1
 369.765625 521.352539062 l 1
 431.649414062 463.000976562 l 1
 509.681640625 521.38671875 l 1
 612.208007812 541.500976562 l 1
 792.607421875 464.115234375 l 1
 851.646484375 271.215820312 l 1
 851.833007812 237.536132812 l 1
 461.247070312 237.536132812 l 1
369.478515625 264.071289062 m 1
 162.799804688 210.235351562 l 1
 122.666992188 139.559570312 l 1
 160.120117188 71.4775390625 l 1
 241.90625 53.916015625 l 1
 329.1015625 71.3935546875 l 1
 394.993164062 120.25390625 l 1
 375.34765625 186.421875 l 1
 369.478515625 264.071289062 l 1
464.30859375 311.018554688 m 1
 755.004882812 311.018554688 l 1
 714.192382812 421.67578125 l 1
 612.208007812 465.041015625 l 1
 520.716796875 428.564453125 l 1
 464.30859375 311.018554688 l 1
EndSplineSet
Validated: 1
Layer: 2
EndChar
StartChar: ccedilla
Encoding: 150 231 331
Width: 524
Flags: HMW
HStem: -200 41<255 270 255 283.5> -75 40<255 262 262 270> -15 75<259 273 259 259> 460 75<233.5 303.5>
VStem: 35 90<189 331 189 346> 293 40<-132 -102>
LayerCount: 3
Back
SplineSet
293 -117 m 4
 293 -87 278 -75 262 -75 c 4
 248 -75 239 -83 234 -100 c 5
 197 -86 l 5
 228 -11 l 5
 110 8 35 106 35 260 c 4
 35 432 129 535 273 535 c 4
 385 535 461 471 489 362 c 5
 402 342 l 5
 383 425 334 460 273 460 c 4
 194 460 125 402 125 260 c 4
 125 118 194 60 273 60 c 4
 334 60 383 95 402 177 c 5
 489 157 l 5
 461 48 385 -15 273 -15 c 6
 259 -15 l 5
 251 -35 l 5
 262 -35 l 6
 305 -35 333 -65 333 -117 c 4
 333 -169 305 -200 262 -200 c 4
 228 -200 205 -181 197 -148 c 5
 234 -135 l 5
 239 -152 248 -159 262 -159 c 4
 278 -159 293 -147 293 -117 c 4
EndSplineSet
Fore
SplineSet
250.481445312 -38.9599609375 m 5
 261.79296875 -38.9599609375 l 5
 314.5546875 -60.89453125 l 5
 334.338867188 -122.5625 l 5
 314.5546875 -184.784179688 l 5
 261.79296875 -207.271484375 l 5
 218.725585938 -193.365234375 l 5
 195.625 -154.201171875 l 5
 233.216796875 -140.93359375 l 5
 244.090820312 -159.686523438 l 5
 261.79296875 -165.384765625 l 5
 283.661132812 -155.442382812 l 5
 293.345703125 -122.60546875 l 5
 283.735351562 -89.724609375 l 5
 261.876953125 -79.740234375 l 5
 244.177734375 -86.0341796875 l 5
 233.301757812 -105.297851562 l 5
 195.709960938 -91.009765625 l 5
 227.262695312 -14.55078125 l 5
 83.732421875 72.0205078125 l 5
 30.4599609375 261.858398438 l 5
 96.7451171875 467.897460938 l 5
 273.189453125 542.349609375 l 5
 415.487304688 495.793945312 l 5
 493.55078125 365.873046875 l 5
 404.759765625 345.4609375 l 5
 355.016601562 437.44140625 l 5
 273.189453125 465.889648438 l 5
 167.473632812 418.186523438 l 5
 122.227539062 261.858398438 l 5
 167.473632812 105.572265625 l 5
 273.189453125 57.9111328125 l 5
 354.952148438 86.1904296875 l 5
 404.759765625 177.234375 l 5
 493.55078125 156.823242188 l 5
 415.487304688 27.455078125 l 5
 273.189453125 -18.5478515625 l 5
 258.81640625 -18.5478515625 l 5
 250.481445312 -38.9599609375 l 5
EndSplineSet
Validated: 1
Layer: 2
EndChar
StartChar: egrave
Encoding: 151 232 233
Width: 544
Flags: HMW
HStem: -15 75<240.5 308.5 240.5 329.5> 60 177<240.5 308.5> 237 72<128 413 128 508 125 413> 309 151<242 315 242 413 242 413> 460 75<242 315> 770 20G<130 248 248 248>
VStem: 35 90<237 237 237 346> 413 96<309 309>
LayerCount: 3
Back
SplineSet
508 237 m 5x97
 125 237 l 5x4f
 133 112 203 60 278 60 c 4
 339 60 399 98 417 176 c 5
 502 158 l 5
 472 42 386 -15 273 -15 c 4
 129 -15 35 88 35 260 c 4
 35 432 129 535 273 535 c 4
 430 535 509 421 509 270 c 4
 509 267 509 244 508 237 c 5x97
273 460 m 4
 211 460 144 415 128 309 c 5
 413 309 l 5
 409 397 357 460 273 460 c 4
248 790 m 5
 324 603 l 5
 253 603 l 5
 130 790 l 5
 248 790 l 5
EndSplineSet
Fore
Refer: 195 96 N 1 0 0 1 74.4697 62 2
Refer: 68 101 N 1 0 0 1 0 0 3
Validated: 5
Layer: 2
EndChar
StartChar: eacute
Encoding: 152 233 230
Width: 544
Flags: HMW
HStem: -15 75<240.5 308.5 240.5 329.5> 237 72<128 413 128 508 125 413> 460 75<242 315> 770 20G<286 404 404 404>
VStem: 35 90<237 237 237 346> 413 96<309 309>
LayerCount: 3
Back
SplineSet
508 237 m 5
 125 237 l 5
 133 112 203 60 278 60 c 4
 339 60 399 98 417 176 c 5
 502 158 l 5
 472 42 386 -15 273 -15 c 4
 129 -15 35 88 35 260 c 4
 35 432 129 535 273 535 c 4
 430 535 509 421 509 270 c 4
 509 267 509 244 508 237 c 5
273 460 m 4
 211 460 144 415 128 309 c 5
 413 309 l 5
 409 397 357 460 273 460 c 4
210 603 m 5
 286 790 l 5
 404 790 l 5
 281 603 l 5
 210 603 l 5
EndSplineSet
Fore
Refer: 345 180 N 1 0 0 1 67.9697 75 2
Refer: 68 101 N 1 0 0 1 0 0 3
Validated: 5
Layer: 2
EndChar
StartChar: ecircumflex
Encoding: 153 234 260
Width: 544
Flags: HMW
HStem: -15 75<240.5 308.5 240.5 329.5> 60 177<240.5 308.5> 237 72<128 413 128 508 125 413> 309 151<242 315 242 413 242 413> 460 75<242 315> 535 225<236 313 236 351.5>
VStem: 35 90<237 237 237 346> 413 96<309 309>
LayerCount: 3
Back
SplineSet
508 237 m 5xa7
 125 237 l 5
 133 112 203 60 278 60 c 4x97
 339 60 399 98 417 176 c 5
 502 158 l 5
 472 42 386 -15 273 -15 c 4
 129 -15 35 88 35 260 c 4
 35 432 129 535 273 535 c 4
 430 535 509 421 509 270 c 4
 509 267 509 244 508 237 c 5xa7
273 460 m 4
 211 460 144 415 128 309 c 5x4b
 413 309 l 5
 409 397 357 460 273 460 c 4
236 760 m 5
 313 760 l 5
 432 600 l 5
 341 600 l 5xab
 274 701 l 5
 205 600 l 5
 117 600 l 5
 236 760 l 5
EndSplineSet
Fore
Refer: 170 94 N 1 0 0 1 -5.03027 125 2
Refer: 68 101 S 1 0 0 1 0 0 3
Validated: 5
Layer: 2
EndChar
StartChar: edieresis
Encoding: 154 235 220
Width: 544
Flags: HMW
HStem: -15 75<240.5 308.5 240.5 329.5> 60 177<240.5 308.5> 237 72<128 413 128 508 125 413> 309 151<242 315 242 413 242 413> 460 75<242 315> 620 100<128 219 128 219 328 419>
VStem: 35 90<237 237 237 346> 219 109<620 720 620 720> 413 96<309 309>
LayerCount: 3
Back
SplineSet
219 620 m 5x9780
 128 620 l 5
 128 720 l 5
 219 720 l 5
 219 620 l 5x9780
419 620 m 5
 328 620 l 5x4f80
 328 720 l 5
 419 720 l 5
 419 620 l 5
508 237 m 5xaf80
 125 237 l 5
 133 112 203 60 278 60 c 4
 339 60 399 98 417 176 c 5
 502 158 l 5
 472 42 386 -15 273 -15 c 4
 129 -15 35 88 35 260 c 4
 35 432 129 535 273 535 c 4
 430 535 509 421 509 270 c 4
 509 267 509 244 508 237 c 5xaf80
273 460 m 4
 211 460 144 415 128 309 c 5
 413 309 l 5
 409 397 357 460 273 460 c 4
EndSplineSet
Fore
SplineSet
397.0703125 608.249023438 m 1
 350.83984375 608.25 l 1
 317.987304688 643.995117188 l 1
 318.009765625 694.798828125 l 1
 350.2890625 731.149414062 l 1
 396.51953125 731.1484375 l 1
 429.6796875 694.69921875 l 1
 429.599609375 643.849609375 l 1
 397.0703125 608.249023438 l 1
197.23046875 608.249023438 m 1
 151 608.25 l 1
 118.147460938 643.995117188 l 1
 118.169921875 694.798828125 l 1
 150.44921875 731.149414062 l 1
 196.6796875 731.1484375 l 1
 229.83984375 694.69921875 l 1
 229.759765625 643.849609375 l 1
 197.23046875 608.249023438 l 1
EndSplineSet
Refer: 68 101 S 1 0 0 1 0 0 3
Validated: 5
Layer: 2
EndChar
StartChar: igrave
Encoding: 155 236 234
Width: 220
Flags: HMW
HStem: 0 21G<65 155 65 65> 500 20G<65 155 155 155> 770 20G<-30 88 88 88>
VStem: 65 90<0 520>
LayerCount: 3
Back
Fore
SplineSet
155 0 m 1
 65 0 l 1
 65 520 l 1
 155 520 l 1
 155 0 l 1
88 790 m 1
 164 603 l 1
 93 603 l 1
 -30 790 l 1
 88 790 l 1
EndSplineSet
Validated: 1
Layer: 2
EndChar
StartChar: iacute
Encoding: 156 237 230
Width: 220
Flags: HMW
HStem: 0 21G<65 155 155 155> 500 20G<65 155 65 65> 770 20G<136 254 254 254>
VStem: 65 90<0 520 0 520>
LayerCount: 3
Back
Fore
SplineSet
65 0 m 1
 155 0 l 1
 155 520 l 1
 65 520 l 1
 65 0 l 1
60 603 m 1
 136 790 l 1
 254 790 l 1
 131 603 l 1
 60 603 l 1
EndSplineSet
Validated: 9
Layer: 2
EndChar
StartChar: icircumflex
Encoding: 157 238 268
Width: 220
Flags: HMW
HStem: 0 21G<65 155 65 65> 500 20G<65 155 155 155> 740 20G<73 150 150 150>
VStem: 65 90<0 520>
LayerCount: 3
Back
Fore
SplineSet
155 0 m 1
 65 0 l 1
 65 520 l 1
 155 520 l 1
 155 0 l 1
73 760 m 1
 150 760 l 1
 238 642 l 1
 178 600 l 1
 111 701 l 1
 42 600 l 1
 -12 640 l 1
 73 760 l 1
EndSplineSet
Validated: 1
Layer: 2
EndChar
StartChar: idieresis
Encoding: 158 239 218
Width: 220
Flags: HMW
HStem: 0 21G<65 155 65 65> 500 20G<65 155 155 155> 619 101<-7 83 -7 83 -7 137 137 227>
VStem: -7 90<619 720> 65 90<0 520> 137 90<619 720>
LayerCount: 3
Back
Fore
SplineSet
205.672851562 608.249023438 m 5
 159.442382812 608.25 l 5
 126.58984375 643.995117188 l 5
 126.612304688 694.798828125 l 5
 158.891601562 731.149414062 l 5
 205.122070312 731.1484375 l 5
 238.282226562 694.69921875 l 5
 238.202148438 643.849609375 l 5
 205.672851562 608.249023438 l 5
61.3330078125 608.249023438 m 1
 15.1025390625 608.25 l 1
 -17.75 643.995117188 l 1
 -17.7275390625 694.798828125 l 1
 14.5517578125 731.149414062 l 1
 60.7822265625 731.1484375 l 1
 93.9423828125 694.69921875 l 1
 93.8623046875 643.849609375 l 1
 61.3330078125 608.249023438 l 1
155 0 m 1xe8
 65 0 l 1
 65 520 l 1
 155 520 l 1
 155 0 l 1xe8
EndSplineSet
Validated: 1
Layer: 2
EndChar
StartChar: eth
Encoding: 159 240 330
Width: 553
Flags: HMW
HStem: -15 75<245.5 314.5 245.5 346> 440 75<238.5 292.5 193 317.5> 758 20G<316 316>
VStem: 36 90<250 250> 432 85
LayerCount: 3
Back
SplineSet
379 742 m 5
 347 687 l 5
 470 606 522 449 517 280 c 4
 511 98 418 -15 274 -15 c 4
 155 -15 35 78 36 250 c 4
 37 422 131 515 255 515 c 4
 330 515 388 477 416 442 c 5
 408 508 369 574 307 618 c 5
 265 545 l 5
 202 581 l 5
 243 652 l 5
 211 663 177 670 139 670 c 5
 139 745 l 5
 193 745 240 736 282 720 c 5
 316 778 l 5
 379 742 l 5
126 250 m 4
 124 108 216 60 275 60 c 4
 354 60 430 108 432 250 c 4
 435 392 352 440 283 440 c 4
 194 440 129 392 126 250 c 4
EndSplineSet
Fore
SplineSet
346.934570312 686.90625 m 5
 480.000976562 516.43359375 l 5
 516.94921875 279.921875 l 5
 447.1796875 64.1650390625 l 5
 273.9765625 -15.080078125 l 5
 109.965820312 52.908203125 l 5
 36.005859375 249.905273438 l 5
 99.4912109375 446.868164062 l 5
 254.96484375 514.890625 l 5
 353.188476562 491.510742188 l 5
 416.141601562 441.931640625 l 5
 381.903320312 538.1953125 l 5
 307.078125 617.950195312 l 5
 264.970703125 544.908203125 l 5
 201.934570312 580.928710938 l 5
 242.958007812 651.969726562 l 5
 193.149414062 665.1015625 l 5
 138.8984375 670.021484375 l 5
 138.8984375 744.981445312 l 5
 214.900390625 738.477539062 l 5
 281.897460938 719.966796875 l 5
 315.916992188 778 l 5
 378.953125 741.979492188 l 5
 346.934570312 686.90625 l 5
274.9765625 59.87890625 m 5
 382.340820312 101.64453125 l 5
 431.983398438 249.905273438 l 5
 384.540039062 398.123046875 l 5
 283.064453125 439.84765625 l 5
 172.345703125 398.123046875 l 5
 125.974609375 249.905273438 l 5
 177.587890625 101.64453125 l 5
 274.9765625 59.87890625 l 5
EndSplineSet
Validated: 1
Layer: 2
EndChar
StartChar: ntilde
Encoding: 160 241 322
Width: 555
Flags: HMW
HStem: 0 21G<65 155 65 65 400 400 400 490> 459 61 459 76<275 332> 610 75<330.5 359> 660 75<205 233.5>
VStem: 65 90<0 283> 400 90<0 315 315 319 0 360>
LayerCount: 3
Back
SplineSet
155 0 m 5xd6
 65 0 l 5
 65 520 l 5xce
 146 520 l 5xd6
 146 445 l 5
 184 509 239 535 311 535 c 4xce
 455 535 490 443 490 319 c 6xd6
 490 0 l 5xce
 400 0 l 5
 400 315 l 6
 400 405 371 459 293 459 c 4
 211 459 155 397 155 283 c 6
 155 0 l 5xd6
124 610 m 5
 124 695 l 5
 152 725 191 735 219 735 c 4
 278 735 306 685 355 685 c 4
 373 685 412 695 440 735 c 5
 440 650 l 5
 412 620 373 610 345 610 c 4xb6
 286 610 258 660 209 660 c 4
 181 660 152 650 124 610 c 5
EndSplineSet
Fore
SplineSet
65 0.078125 m 1x86
 65 520.126953125 l 1
 146.046875 520.126953125 l 1
 146.046875 445.083007812 l 1
 215.794921875 514.123046875 l 1
 311.057617188 535.134765625 l 1
 454.525390625 473.608398438 l 1
 489.994140625 319.094726562 l 1
 489.994140625 0.078125 l 1
 399.942382812 0.078125 l 1
 399.942382812 315.091796875 l 1
 375.69921875 420.861328125 l 1
 293.047851562 459.091796875 l 1
 193.38671875 413.82421875 l 1
 155.134765625 283.07421875 l 1
 155.134765625 0.078125 l 1
 65 0.078125 l 1x86
124.034179688 695.060546875 m 1
 171.561523438 726.287109375 l 1
 219.088867188 735 l 1
 290.817382812 709.985351562 l 1
 355.166992188 684.971679688 l 1
 393.938476562 694.9765625 l 1
 440.215820312 735 l 1x8e
 440.215820312 650.034179688 l 1
 392.688476562 618.766601562 l 1
 345.161132812 610.01171875 l 1
 273.380859375 635.026367188 l 1
 209.166015625 660.040039062 l 1
 166.569335938 650.034179688 l 1
 124.034179688 610.01171875 l 1
 124.034179688 695.060546875 l 1
EndSplineSet
Validated: 1
Layer: 2
EndChar
StartChar: ograve
Encoding: 161 242 235
Width: 556
Flags: HMW
HStem: -15 75<238.5 317.5 238.5 350> 460 75<238.5 317.5> 770 20G<120 238 238 238>
VStem: 35 90<189 331 189 346> 431 90<189 331>
LayerCount: 3
Back
SplineSet
35 260 m 4
 35 432 134 535 278 535 c 4
 422 535 521 432 521 260 c 4
 521 88 422 -15 278 -15 c 4
 134 -15 35 88 35 260 c 4
125 260 m 4
 125 118 199 60 278 60 c 4
 357 60 431 118 431 260 c 4
 431 402 357 460 278 460 c 4
 199 460 125 402 125 260 c 4
238 790 m 5
 314 603 l 5
 243 603 l 5
 120 790 l 5
 238 790 l 5
EndSplineSet
Fore
SplineSet
277.97265625 534.936523438 m 5
 453.490234375 461.9453125 l 5
 520.9453125 259.9453125 l 5
 453.427734375 57.9462890625 l 5
 277.97265625 -15.0458984375 l 5
 102.517578125 57.9462890625 l 5
 35 259.9453125 l 5
 102.487304688 461.9453125 l 5
 277.97265625 534.936523438 l 5
313.91015625 602.975585938 m 5
 242.786132812 602.975585938 l 5
 119.798828125 790 l 5
 237.783203125 790 l 5
 313.91015625 602.975585938 l 5
277.97265625 59.9140625 m 5
 384.0859375 106.640625 l 5
 430.977539062 259.862304688 l 5
 384.0859375 413.125 l 5
 277.97265625 459.893554688 l 5
 171.860351562 413.125 l 5
 124.96875 259.862304688 l 5
 171.828125 106.640625 l 5
 277.97265625 59.9140625 l 5
EndSplineSet
Validated: 1
Layer: 2
EndChar
StartChar: oacute
Encoding: 162 243 228
Width: 556
Flags: HMW
HStem: -15 75<238.5 317.5 238.5 350> 460 75<238.5 317.5> 770 20G<296 414 414 414>
VStem: 35 90<189 331 189 346> 431 90<189 331>
LayerCount: 3
Back
SplineSet
35 260 m 4
 35 432 134 535 278 535 c 4
 422 535 521 432 521 260 c 4
 521 88 422 -15 278 -15 c 4
 134 -15 35 88 35 260 c 4
125 260 m 4
 125 118 199 60 278 60 c 4
 357 60 431 118 431 260 c 4
 431 402 357 460 278 460 c 4
 199 460 125 402 125 260 c 4
220 603 m 5
 296 790 l 5
 414 790 l 5
 291 603 l 5
 220 603 l 5
EndSplineSet
Fore
Refer: 345 180 N 1 0 0 1 72.9727 75 2
Refer: 78 111 N 1 0 0 1 0 0 3
Validated: 9
Layer: 2
EndChar
StartChar: ocircumflex
Encoding: 163 244 260
Width: 556
Flags: HMW
HStem: -15 75<238.5 317.5 238.5 350> 460 75<238.5 317.5> 535 225<240 317 240 350>
VStem: 35 90<189 331 189 346> 431 90<189 331>
LayerCount: 3
Back
SplineSet
559 260 m 4xb8
 559 432 658 535 802 535 c 4
 946 535 1045 432 1045 260 c 4
 1045 88 946 -15 802 -15 c 4
 658 -15 559 88 559 260 c 4xb8
649 260 m 4
 649 118 723 60 802 60 c 4
 881 60 955 118 955 260 c 4
 955 402 881 460 802 460 c 4
 723 460 649 402 649 260 c 4
764 760 m 5
 841 760 l 5xd8
 960 600 l 5
 869 600 l 5
 802 701 l 5
 733 600 l 5
 645 600 l 5
 764 760 l 5
EndSplineSet
Fore
SplineSet
254 829 m 5x98
 119.379882812 585.840820312 l 5
 169.379882812 557.840820312 l 5
 277.021484375 720.331054688 l 5
 384 558.840820312 l 5
 434 586.840820312 l 5
 296 829 l 5
 254 829 l 5x98
277.97265625 535.037109375 m 1
 453.490234375 462.045898438 l 1
 520.9453125 260.045898438 l 1
 453.427734375 58.046875 l 1
 277.97265625 -14.9453125 l 1
 102.517578125 58.046875 l 1
 35 260.045898438 l 1
 102.517578125 462.045898438 l 1
 277.97265625 535.037109375 l 1
277.97265625 60.0146484375 m 1
 384.0859375 106.741210938 l 1
 430.977539062 259.962890625 l 1
 384.0859375 413.225585938 l 1
 277.97265625 459.994140625 l 1
 171.891601562 413.225585938 l 1
 124.96875 259.962890625 l 1
 171.860351562 106.741210938 l 1
 277.97265625 60.0146484375 l 1
EndSplineSet
Layer: 2
EndChar
StartChar: otilde
Encoding: 164 245 323
Width: 556
Flags: HMW
HStem: -15 75<238.5 317.5 238.5 350> 460 75<238.5 317.5> 660 25 660 75<203 231.5>
VStem: 35 90<189 331 189 346> 431 90<189 331>
LayerCount: 3
Back
SplineSet
35 260 m 4xdc
 35 432 134 535 278 535 c 4
 422 535 521 432 521 260 c 4
 521 88 422 -15 278 -15 c 4
 134 -15 35 88 35 260 c 4xdc
125 260 m 4xec
 125 118 199 60 278 60 c 4
 357 60 431 118 431 260 c 4
 431 402 357 460 278 460 c 4xdc
 199 460 125 402 125 260 c 4xec
122 610 m 5
 122 695 l 5
 150 725 189 735 217 735 c 4
 276 735 304 685 353 685 c 4
 371 685 410 695 438 735 c 5
 438 650 l 5
 410 620 371 610 343 610 c 4
 284 610 256 660 207 660 c 4
 179 660 150 650 122 610 c 5
EndSplineSet
Fore
SplineSet
277.97265625 535.051757812 m 1xcc
 453.41796875 462.059570312 l 1
 520.862304688 260.060546875 l 1
 453.35546875 58.0615234375 l 1
 277.97265625 -14.9306640625 l 1
 102.487304688 58.0615234375 l 1
 35 260.060546875 l 1
 102.517578125 462.059570312 l 1
 277.97265625 535.051757812 l 1xcc
121.966796875 695.060546875 m 5
 169.494140625 726.287109375 l 5
 217.021484375 735 l 5
 288.8125 709.985351562 l 5
 353.099609375 684.971679688 l 5
 391.872070312 694.9765625 l 5
 438.1484375 735 l 5xdc
 438.1484375 650.034179688 l 5
 390.611328125 618.766601562 l 5
 343.009765625 610.01171875 l 5
 271.291992188 635.026367188 l 5
 207.015625 660.040039062 l 5
 164.491210938 650.034179688 l 5
 121.966796875 610.01171875 l 5
 121.966796875 695.060546875 l 5
277.97265625 60.029296875 m 1
 384.0546875 106.755859375 l 1
 430.977539062 259.977539062 l 1
 384.0546875 413.240234375 l 1
 277.97265625 460.008789062 l 1
 171.860351562 413.240234375 l 1
 124.96875 259.977539062 l 1
 171.860351562 106.755859375 l 1
 277.97265625 60.029296875 l 1
EndSplineSet
Validated: 1
Layer: 2
EndChar
StartChar: odieresis
Encoding: 165 246 224
Width: 556
Flags: HMW
HStem: -15 75<238.5 317.5 238.5 350> 460 75<238.5 317.5> 620 100<137 228 137 228 137 327 327 418>
VStem: 35 90<189 331 189 346> 228 99<620 720 620 720> 418 103 431 90<189 331>
LayerCount: 3
Back
SplineSet
35 260 m 4xfc
 35 432 134 535 278 535 c 4
 422 535 521 432 521 260 c 4
 521 88 422 -15 278 -15 c 4
 134 -15 35 88 35 260 c 4xfc
125 260 m 4
 125 118 199 60 278 60 c 4
 357 60 431 118 431 260 c 4
 431 402 357 460 278 460 c 4
 199 460 125 402 125 260 c 4
228 620 m 5
 137 620 l 5xfa
 137 720 l 5
 228 720 l 5
 228 620 l 5
418 620 m 5
 327 620 l 5
 327 720 l 5
 418 720 l 5
 418 620 l 5
EndSplineSet
Fore
SplineSet
396.0703125 608.249023438 m 5
 349.83984375 608.25 l 5
 316.987304688 643.995117188 l 5
 317.009765625 694.798828125 l 5
 349.2890625 731.149414062 l 5
 395.51953125 731.1484375 l 5
 428.6796875 694.69921875 l 5
 428.599609375 643.849609375 l 5
 396.0703125 608.249023438 l 5
206.48046875 608.249023438 m 1
 160.25 608.25 l 1
 127.397460938 643.995117188 l 1
 127.419921875 694.798828125 l 1
 159.69921875 731.149414062 l 1
 205.9296875 731.1484375 l 1
 239.08984375 694.69921875 l 1
 239.009765625 643.849609375 l 1
 206.48046875 608.249023438 l 1
277.97265625 534.977539062 m 1
 453.459960938 461.985351562 l 1
 520.9453125 259.985351562 l 1
 453.427734375 57.986328125 l 1
 277.97265625 -15.005859375 l 1
 102.487304688 57.986328125 l 1
 35 259.985351562 l 1
 102.487304688 461.985351562 l 1
 277.97265625 534.977539062 l 1
277.97265625 59.9541015625 m 1
 384.0546875 106.680664062 l 1
 430.977539062 259.90234375 l 1
 384.0546875 413.165039062 l 1
 277.97265625 459.93359375 l 1
 171.860351562 413.165039062 l 1
 124.96875 259.90234375 l 1
 171.860351562 106.680664062 l 1
 277.97265625 59.9541015625 l 1
EndSplineSet
Validated: 1
Layer: 2
EndChar
StartChar: divide
Encoding: 166 247 335
Width: 556
Flags: HMW
HStem: 145 100<232 323 232 323> 325 75<70 486 70 486> 480 100<232 323 232 323>
VStem: 232 91<145 245 480 580>
CounterMasks: 1 e0
LayerCount: 3
Back
Fore
SplineSet
301.23046875 133.499023438 m 1
 255 133.5 l 1
 222.147460938 169.245117188 l 1
 222.169921875 220.048828125 l 1
 254.44921875 256.399414062 l 1
 300.6796875 256.3984375 l 1
 333.83984375 219.94921875 l 1
 333.759765625 169.099609375 l 1
 301.23046875 133.499023438 l 1
301.25 468.75 m 5
 255.01953125 468.750976562 l 5
 222.166992188 504.49609375 l 5
 222.189453125 555.299804688 l 5
 254.46875 591.650390625 l 5
 300.69921875 591.649414062 l 5
 333.859375 555.200195312 l 5
 333.779296875 504.350585938 l 5
 301.25 468.75 l 5
486 325 m 1
 70 325 l 1
 70 400 l 1
 486 400 l 1
 486 325 l 1
EndSplineSet
Validated: 1
Layer: 2
EndChar
StartChar: oslash
Encoding: 167 248 316
Width: 556
Flags: HMW
HStem: -15 75<261 317.5 261 350> 460 75<238.5 294>
VStem: 35 90<239.5 331 239.5 346> 431 90<189 281>
LayerCount: 3
Back
SplineSet
515 486 m 5
 473 436 l 5
 504 391 521 331 521 260 c 4
 521 88 422 -15 278 -15 c 4
 221 -15 172 1 133 30 c 5
 95 -15 l 5
 38 34 l 5
 81 85 l 5
 51 130 35 189 35 260 c 4
 35 432 134 535 278 535 c 4
 333 535 382 519 421 491 c 5
 458 535 l 5
 515 486 l 5
431 260 m 4
 431 302 424 337 413 365 c 5
 185 93 l 5
 212 70 244 60 278 60 c 4
 357 60 431 118 431 260 c 4
125 260 m 4
 125 219 131 185 141 158 c 5
 368 428 l 5
 342 450 310 460 278 460 c 4
 199 460 125 402 125 260 c 4
EndSplineSet
Fore
SplineSet
473.001953125 436.026367188 m 5
 508.60546875 357.7734375 l 5
 520.9453125 260.008789062 l 5
 453.427734375 58.009765625 l 5
 277.97265625 -14.982421875 l 5
 198.729492188 -3.3505859375 l 5
 133.056640625 30.04296875 l 5
 94.951171875 -14.982421875 l 5
 37.91796875 33.9619140625 l 5
 81.0263671875 84.9912109375 l 5
 46.7880859375 162.744140625 l 5
 35 260.008789062 l 5
 102.517578125 462.0078125 l 5
 277.97265625 535 l 5
 355.5078125 523.493164062 l 5
 420.971679688 490.974609375 l 5
 457.993164062 535 l 5
 515.025390625 485.971679688 l 5
 473.001953125 436.026367188 l 5
140.977539062 158.033203125 m 5
 368.024414062 428.021484375 l 5
 325.25 452.286132812 l 5
 277.97265625 460.040039062 l 5
 171.860351562 413.271484375 l 5
 124.96875 260.008789062 l 5
 129.220703125 203.734375 l 5
 140.977539062 158.033203125 l 5
412.966796875 364.944335938 m 5
 185.002929688 92.99609375 l 5
 228.861328125 67.8564453125 l 5
 277.97265625 59.935546875 l 5
 384.0859375 106.662109375 l 5
 430.977539062 259.883789062 l 5
 426.099609375 317.733398438 l 5
 412.966796875 364.944335938 l 5
EndSplineSet
Validated: 1
Layer: 2
EndChar
StartChar: ugrave
Encoding: 168 249 236
Width: 555
Flags: HMW
HStem: -15 76<223 280> 0 61 500 20G<65 155 155 155 400 490 490 490> 770 20G<130 248 248 248>
VStem: 65 90<201 205 205 520> 400 90<237 520 0 520>
LayerCount: 3
Back
SplineSet
489.994140625 520.01171875 m 1x3c
 489.994140625 -0.037109375 l 1
 408.947265625 -0.037109375 l 1
 408.947265625 74.9228515625 l 1
 339.19921875 8.55078125 l 1
 243.936523438 -15.0458984375 l 1
 100.46875 46.439453125 l 1
 65 200.912109375 l 1
 65 519.928710938 l 1
 155.051757812 519.928710938 l 1
 155.051757812 204.9140625 l 1
 179.294921875 99.1787109375 l 1
 261.946289062 60.9150390625 l 1
 361.639648438 106.182617188 l 1
 399.859375 236.932617188 l 1
 399.859375 520.01171875 l 1
 489.994140625 520.01171875 l 1x3c
323.8984375 602.975585938 m 5
 252.857421875 602.975585938 l 5
 129.704101562 790 l 5
 247.771484375 790 l 5
 323.8984375 602.975585938 l 5
400 520 m 5xbc
 490 520 l 5
 490 0 l 5
 409 0 l 5
 409 75 l 5
 371 18 316 -15 244 -15 c 4
 100 -15 65 77 65 201 c 6
 65 520 l 5
 155 520 l 5
 155 205 l 6
 155 115 184 61 262 61 c 4
 344 61 400 123 400 237 c 6
 400 520 l 5xbc
248 790 m 5
 324 603 l 5
 253 603 l 5x7c
 130 790 l 5
 248 790 l 5
EndSplineSet
Fore
SplineSet
223 845 m 5x3c
 311.860351562 631.828125 l 5
 261.860351562 603.828125 l 5
 133.240234375 797.987304688 l 5
 223 845 l 5x3c
489.994140625 520.01171875 m 1
 489.994140625 -0.037109375 l 1
 408.947265625 -0.037109375 l 1
 408.947265625 74.9228515625 l 1
 339.19921875 8.55078125 l 1
 243.936523438 -15.0458984375 l 1
 100.46875 46.439453125 l 1
 65 200.912109375 l 1
 65 519.928710938 l 1
 155.051757812 519.928710938 l 1
 155.051757812 204.9140625 l 1
 179.294921875 99.1787109375 l 1
 261.946289062 60.9150390625 l 1
 361.639648438 106.182617188 l 1
 399.859375 236.932617188 l 1
 399.859375 520.01171875 l 1
 489.994140625 520.01171875 l 1
EndSplineSet
Validated: 1
Layer: 2
EndChar
StartChar: uacute
Encoding: 169 250 228
Width: 555
Flags: HMW
HStem: -15 76<220.059 277.059> 0 61 500 20G<62.0586 152.059 62.0586 62.0586 397.059 487.059 397.059 397.059> 770 20G<293.059 411.059 411.059 411.059>
VStem: 62.0586 90<139 520 205 520 205 520> 397.059 90<180 237 237 520>
LayerCount: 3
Back
SplineSet
490 520 m 5x7c
 400 520 l 5
 400 237 l 6
 400 123 344 61 262 61 c 4
 184 61 155 115 155 205 c 6
 155 520 l 5
 65 520 l 5
 65 201 l 6
 65 77 100 -15 244 -15 c 4xbc
 316 -15 371 18 409 75 c 5
 409 0 l 5
 490 0 l 5
 490 520 l 5x7c
220 603 m 5
 296 790 l 5
 414 790 l 5
 291 603 l 5
 220 603 l 5
EndSplineSet
Fore
Refer: 346 180 N 1 0 0 1 69.6108 75 2
Refer: 84 117 N 1 0 0 1 0 0 3
Validated: 9
Layer: 2
EndChar
StartChar: ucircumflex
Encoding: 170 251 259
Width: 555
Flags: HMW
HStem: -15 76<223 280> 0 61 500 20G<65 155 155 155 400 490 490 490> 740 20G<240 317 317 317>
VStem: 65 90<201 205 205 520> 400 90<237 520 0 520>
LayerCount: 3
Back
SplineSet
400 520 m 5xbc
 490 520 l 5
 490 0 l 5
 409 0 l 5
 409 75 l 5
 371 18 316 -15 244 -15 c 4
 100 -15 65 77 65 201 c 6
 65 520 l 5
 155 520 l 5
 155 205 l 6
 155 115 184 61 262 61 c 4
 344 61 400 123 400 237 c 6
 400 520 l 5xbc
240 760 m 5
 317 760 l 5
 436 600 l 5
 345 600 l 5
 278 701 l 5
 209 600 l 5x7c
 121 600 l 5
 240 760 l 5
EndSplineSet
Fore
SplineSet
254 829 m 5x98
 119.379882812 585.840820312 l 5
 169.379882812 557.840820312 l 5
 277.021484375 720.331054688 l 5
 384 558.840820312 l 5
 434 586.840820312 l 5
 296 829 l 5
 254 829 l 5x98
490.077148438 520.112304688 m 1x3c
 490.077148438 0.0634765625 l 1
 408.947265625 0.0634765625 l 1
 408.947265625 75.0234375 l 1
 339.26171875 8.6513671875 l 1
 243.936523438 -14.9453125 l 1
 100.4375 46.5400390625 l 1
 65 201.012695312 l 1
 65 520.029296875 l 1
 155.051757812 520.029296875 l 1
 155.051757812 205.014648438 l 1
 179.336914062 99.279296875 l 1
 262.030273438 61.015625 l 1
 361.72265625 106.283203125 l 1
 399.942382812 237.033203125 l 1
 399.942382812 520.112304688 l 1
 490.077148438 520.112304688 l 1x3c
EndSplineSet
Layer: 2
EndChar
StartChar: udieresis
Encoding: 171 252 224
Width: 555
Flags: HMW
HStem: -15 76<223 280> 0 61 500 20G<65 155 155 155 400 490 490 490> 620 100<137 228 137 228 137 327 327 418>
VStem: 65 90<201 205 205 520> 137 91<620 720> 327 91<620 720> 400 90<237 520 0 520>
LayerCount: 3
Back
SplineSet
400 520 m 5xb6
 490 520 l 5
 490 0 l 5
 409 0 l 5
 409 75 l 5
 371 18 316 -15 244 -15 c 4
 100 -15 65 77 65 201 c 6
 65 520 l 5
 155 520 l 5
 155 205 l 6xb9
 155 115 184 61 262 61 c 4
 344 61 400 123 400 237 c 6
 400 520 l 5xb6
228 620 m 5
 137 620 l 5
 137 720 l 5
 228 720 l 5
 228 620 l 5
418 620 m 5
 327 620 l 5
 327 720 l 5x79
 418 720 l 5
 418 620 l 5
EndSplineSet
Fore
SplineSet
395.5703125 608.249023438 m 1
 349.33984375 608.25 l 1
 316.487304688 643.995117188 l 1
 316.509765625 694.798828125 l 1
 348.7890625 731.149414062 l 1
 395.01953125 731.1484375 l 1
 428.1796875 694.69921875 l 1
 428.099609375 643.849609375 l 1
 395.5703125 608.249023438 l 1
205.73046875 608.249023438 m 1
 159.5 608.25 l 1
 126.647460938 643.995117188 l 1
 126.669921875 694.798828125 l 1
 158.94921875 731.149414062 l 1
 205.1796875 731.1484375 l 1
 238.33984375 694.69921875 l 1
 238.259765625 643.849609375 l 1
 205.73046875 608.249023438 l 1
490.077148438 520.051757812 m 1
 490.077148438 0.0029296875 l 1
 408.947265625 0.0029296875 l 1
 408.947265625 74.962890625 l 1
 339.23046875 8.591796875 l 1
 243.936523438 -15.005859375 l 1
 100.4375 46.4794921875 l 1
 65 200.952148438 l 1
 65 519.96875 l 1x38
 155.051757812 519.96875 l 1
 155.051757812 204.954101562 l 1
 179.336914062 99.21875 l 1
 262.030273438 60.955078125 l 1
 361.72265625 106.22265625 l 1
 399.942382812 236.97265625 l 1
 399.942382812 520.051757812 l 1
 490.077148438 520.051757812 l 1
EndSplineSet
Validated: 1
Layer: 2
EndChar
StartChar: yacute
Encoding: 172 253 227
Width: 500
Flags: HMW
HStem: -210 79<109.5 121.5 94.5 160.5> 500 20G<10 103 10 10 402 490 402 402> 770 20G<276 394 394 394>
LayerCount: 3
Back
SplineSet
61 -200 m 5
 80 -207 101 -210 118 -210 c 4
 203 -210 242 -147 276 -56 c 6
 490 520 l 5
 402 520 l 5
 254 115 l 5
 103 520 l 5
 10 520 l 5
 212 5 l 5
 189 -58 l 6
 167 -110 141 -131 102 -131 c 4
 87 -131 68 -128 51 -122 c 5
 61 -200 l 5
200 603 m 5
 276 790 l 5
 394 790 l 5
 271 603 l 5
 200 603 l 5
EndSplineSet
Fore
Validated: 1
Layer: 2
EndChar
StartChar: ydieresis
Encoding: 174 255 221
Width: 500
Flags: HMW
HStem: -210 79<109.5 121.5 94.5 160.5> 500 20G<10 103 103 103 402 490 490 490> 620 100<113 204 113 204 113 303 303 394>
VStem: 113 91<620 720> 303 91<620 720>
LayerCount: 3
Back
Fore
SplineSet
371.8203125 608.249023438 m 5
 325.58984375 608.25 l 5
 292.737304688 643.995117188 l 5
 292.759765625 694.798828125 l 5
 325.0390625 731.149414062 l 5
 371.26953125 731.1484375 l 5
 404.4296875 694.69921875 l 5
 404.349609375 643.849609375 l 5
 371.8203125 608.249023438 l 5
181.98046875 608.249023438 m 1
 135.75 608.25 l 1
 102.897460938 643.995117188 l 1
 102.919921875 694.798828125 l 1
 135.19921875 731.149414062 l 1
 181.4296875 731.1484375 l 1
 214.58984375 694.69921875 l 1
 214.509765625 643.849609375 l 1
 181.98046875 608.249023438 l 1
61 -200 m 1
 51 -122 l 1
 68 -128 87 -131 102 -131 c 0
 141 -131 167 -110 189 -58 c 2
 212 5 l 1
 10 520 l 1
 103 520 l 1
 254 115 l 1
 402 520 l 1
 490 520 l 1
 276 -56 l 2
 242 -147 203 -210 118 -210 c 0
 101 -210 80 -207 61 -200 c 1
EndSplineSet
Validated: 1
Layer: 2
EndChar
StartChar: Abreve
Encoding: 175 258 294
Width: 675
Flags: HMW
HStem: 0 21G<10 107 10 10 562 665 562 562> 175 85<205 466 205 497 173 466> 700 20G<290 387 387 387> 753 81<306 374 306 400> 753 167<168 400>
LayerCount: 3
Back
SplineSet
290 720 m 5xe8
 387 720 l 5
 665 0 l 5xe8
 562 0 l 5xf0
 497 175 l 5
 173 175 l 5
 107 0 l 5
 10 0 l 5
 290 720 l 5xe8
338 611 m 5
 205 260 l 5
 466 260 l 5
 338 611 l 5
446 920 m 5
 516 920 l 5
 516 835 460 753 340 753 c 4
 220 753 168 836 168 920 c 5
 238 920 l 5
 243 870 272 834 340 834 c 4
 408 834 441 870 446 920 c 5
EndSplineSet
Fore
Validated: 1
Layer: 2
EndChar
StartChar: abreve
Encoding: 176 259 283
Width: 544
Flags: HMW
HStem: -15 72<202 243> 0 21G<408 499 408 408> 463 72<228.5 295.5> 573 71<261 309 261 335> 573 147<143 335>
VStem: 35 94<108 176.5 108 193> 381 50 381 90<140 263 263 263 332 334>
LayerCount: 3
Back
SplineSet
387 64 m 5xae
 335 6 274 -15 212 -15 c 4x75
 116 -15 35 31 35 137 c 4xae
 35 249 123 294 239 305 c 4
 294 310 355 320 381 332 c 5
 381 352 l 6
 381 433 330 463 261 463 c 4
 196 463 154 427 136 359 c 5
 51 378 l 5
 77 498 170 535 270 535 c 4
 409 535 471 465 471 334 c 6
 471 106 l 6
 471 53 481 19 499 0 c 5
 408 0 l 5xb6
 393 14 390 39 387 64 c 5xae
381 140 m 5
 381 263 l 5
 358 252 300 241 249 233 c 4
 194 224 129 212 129 141 c 4
 129 75 178 57 226 57 c 4
 293 57 354 105 381 140 c 5
371 720 m 5
 431 720 l 5
 431 635 385 573 285 573 c 4
 185 573 143 636 143 720 c 5
 203 720 l 5
 208 670 237 644 285 644 c 4xb6
 333 644 366 670 371 720 c 5
EndSplineSet
Fore
Validated: 1
Layer: 2
EndChar
StartChar: Aogonek
Encoding: 177 260 339
Width: 675
Flags: HMW
HStem: -204 65<596.5 628 596.5 639> 0 21G<10 107 10 10 617.5 642 642 665> 175 85<205 466 205 497 173 466> 700 20G<290 387 387 387>
VStem: 490 66<-94 -63.5>
LayerCount: 3
Back
SplineSet
290 720 m 5
 387 720 l 5
 665 0 l 5
 642 0 l 6
 593 0 556 -34 556 -75 c 4
 556 -113 580 -139 613 -139 c 4
 643 -139 662 -127 678 -97 c 5
 720 -136 l 5
 704 -165 670 -204 608 -204 c 4
 549 -204 490 -167 490 -89 c 4
 490 -38 522 -5 558 10 c 5
 497 175 l 5
 173 175 l 5
 107 0 l 5
 10 0 l 5
 290 720 l 5
338 611 m 5
 205 260 l 5
 466 260 l 5
 338 611 l 5
EndSplineSet
Fore
Validated: 1
Layer: 2
EndChar
StartChar: aogonek
Encoding: 178 261 337
Width: 544
Flags: HMW
HStem: -204 65<426.5 458 426.5 469> -15 72<202 243> 0 57 463 72<228.5 295.5>
VStem: 35 94<108 176.5 108 193> 320 66<-94 -60.5> 381 90<140 263 263 263 332 334>
LayerCount: 3
Back
SplineSet
387 64 m 5xba
 335 6 274 -15 212 -15 c 4
 116 -15 35 31 35 137 c 4
 35 249 123 294 239 305 c 4
 294 310 355 320 381 332 c 5
 381 352 l 6
 381 433 330 463 261 463 c 4
 196 463 154 427 136 359 c 5xda
 51 378 l 5
 77 498 170 535 270 535 c 4
 409 535 471 465 471 334 c 6
 471 106 l 6
 471 53 481 19 499 0 c 5
 469 0 l 6
 424 0 386 -26 386 -75 c 4
 386 -113 410 -139 443 -139 c 4xbc
 473 -139 492 -127 508 -97 c 5
 550 -136 l 5
 534 -165 500 -204 438 -204 c 4
 379 -204 320 -167 320 -89 c 4
 320 -32 356 3 401 17 c 5
 391 30 388 51 387 64 c 5xba
381 140 m 5
 381 263 l 5
 358 252 300 241 249 233 c 4
 194 224 129 212 129 141 c 4
 129 75 178 57 226 57 c 4
 293 57 354 105 381 140 c 5
EndSplineSet
Fore
Validated: 1
Layer: 2
EndChar
StartChar: Cacute
Encoding: 179 262 292
Width: 734
Flags: HMW
HStem: -15 80<303 437 303 465> 655 80<308 442> 970 20G<386 504 504 504>
VStem: 50 100<276.5 443.5 276.5 463.5>
LayerCount: 3
Back
SplineSet
150 360 m 4
 150 193 223 65 383 65 c 4
 491 65 558 132 587 233 c 5
 684 214 l 5
 652 79 547 -15 383 -15 c 4
 163 -15 50 153 50 360 c 4
 50 567 163 735 383 735 c 4
 547 735 653 644 684 505 c 5
 587 486 l 5
 566 586 501 655 383 655 c 4
 233 655 150 527 150 360 c 4
310 803 m 5
 386 990 l 5
 504 990 l 5
 381 803 l 5
 310 803 l 5
EndSplineSet
Fore
Refer: 345 180 N 1 0 0 1 189.105 268.568 2
Refer: 92 67 N 1 0 0 1 0 0 3
Validated: 9
Layer: 2
EndChar
StartChar: cacute
Encoding: 180 263 280
Width: 524
Flags: HMW
HStem: -15 75<233.5 303.5 233.5 329> 460 75<233.5 303.5> 770 20G<276 394 394 394>
VStem: 35 90<189 331 189 346>
LayerCount: 3
Back
SplineSet
125 260 m 4
 125 118 194 60 273 60 c 4
 334 60 383 95 402 177 c 5
 489 157 l 5
 461 48 385 -15 273 -15 c 4
 129 -15 35 88 35 260 c 4
 35 432 129 535 273 535 c 4
 385 535 461 471 489 362 c 5
 402 342 l 5
 383 425 334 460 273 460 c 4
 194 460 125 402 125 260 c 4
200 603 m 5
 276 790 l 5
 394 790 l 5
 271 603 l 5
 200 603 l 5
EndSplineSet
Fore
Refer: 345 180 N 1 0 0 1 79.0049 66.5684 2
Refer: 66 99 N 1 0 0 1 0 0 3
Validated: 9
Layer: 2
EndChar
StartChar: Ccaron
Encoding: 185 268 292
Width: 734
Flags: HMW
HStem: -15 80<303 437 303 465> 655 80<308 442> 735 235<273 296 205 465>
VStem: 50 100<276.5 443.5 276.5 463.5>
LayerCount: 3
Back
SplineSet
150 360 m 4xb0
 150 193 223 65 383 65 c 4
 491 65 558 132 587 233 c 5
 684 214 l 5
 652 79 547 -15 383 -15 c 4
 163 -15 50 153 50 360 c 4
 50 567 163 735 383 735 c 4
 547 735 653 644 684 505 c 5
 587 486 l 5
 566 586 501 655 383 655 c 4
 233 655 150 527 150 360 c 4xb0
421 790 m 5
 344 790 l 5
 205 970 l 5
 296 970 l 5
 383 849 l 5
 472 970 l 5
 560 970 l 5xd0
 421 790 l 5
EndSplineSet
Fore
Refer: 170 94 N 1 0 0 -1 106.795 1552.5 2
Refer: 92 67 N 1 0 0 1 0 0 3
Validated: 17
Layer: 2
EndChar
StartChar: ccaron
Encoding: 186 269 280
Width: 524
Flags: HMW
HStem: -15 75<233.5 303.5 233.5 329> 460 75<233.5 303.5> 535 225<109 329>
VStem: 35 90<189 331 189 346>
LayerCount: 3
Back
SplineSet
125 260 m 4xb0
 125 118 194 60 273 60 c 4
 334 60 383 95 402 177 c 5
 489 157 l 5
 461 48 385 -15 273 -15 c 4
 129 -15 35 88 35 260 c 4
 35 432 129 535 273 535 c 4
 385 535 461 471 489 362 c 5
 402 342 l 5
 383 425 334 460 273 460 c 4
 194 460 125 402 125 260 c 4xb0
305 600 m 5
 228 600 l 5
 109 760 l 5
 200 760 l 5
 267 659 l 5
 336 760 l 5
 424 760 l 5xd0
 305 600 l 5
EndSplineSet
Fore
Refer: 170 94 N 1 0 0 -1 -3.30518 1350.5 2
Refer: 66 99 N 1 0 0 1 0 0 3
Validated: 17
Layer: 2
EndChar
StartChar: Dcaron
Encoding: 187 270 289
Width: 709
Flags: HMW
HStem: 0 84<175 305 305 315> 635 85<175 175 175 302> 950 20G<123 214 214 214 390 478 478 478>
VStem: 80 95<84 635 84 720 84 720> 561 98<269.5 465>
LayerCount: 3
Back
SplineSet
315 0 m 6
 80 0 l 5
 80 720 l 5
 304 720 l 6
 536 720 659 594 659 362 c 4
 659 137 547 0 315 0 c 6
175 635 m 5
 175 84 l 5
 305 84 l 6
 481 84 561 176 561 363 c 4
 561 567 460 635 302 635 c 6
 175 635 l 5
339 790 m 5
 262 790 l 5
 123 970 l 5
 214 970 l 5
 301 849 l 5
 390 970 l 5
 478 970 l 5
 339 790 l 5
EndSplineSet
Fore
Refer: 170 94 N 1 0 0 -1 97.6221 1552.5 2
Refer: 93 68 N 1 0 0 1 0 0 3
Validated: 17
Layer: 2
EndChar
StartChar: dcaron
Encoding: 188 271 312
Width: 550
Flags: HMW
HStem: -15 75<223.5 292.5> 460 75<223.5 289 186 302.5> 700 20G<395 485 485 485 550 650 650 650>
VStem: 35 90<194 326 194 341> 406 79<194 326> 550 100<620 720> 601 49<588 620>
LayerCount: 3
Back
SplineSet
395 720 m 5xfa
 485 720 l 5
 485 0 l 5
 405 0 l 5
 405 71 l 5
 375 21 327 -15 258 -15 c 4
 114 -15 35 98 35 260 c 4xfc
 35 422 114 535 258 535 c 4
 320 535 365 507 395 465 c 5
 395 720 l 5xfa
406 260 m 4
 406 392 342 460 263 460 c 4
 184 460 125 392 125 260 c 4
 125 128 184 60 263 60 c 4
 332 60 406 128 406 260 c 4
601 620 m 5
 550 620 l 5
 550 720 l 5
 650 720 l 5
 650 620 l 6
 650 549 623 502 568 478 c 5xfa
 544 516 l 5
 579 531 601 556 601 620 c 5
EndSplineSet
Fore
SplineSet
485 720 m 5x3c
 485 0 l 5
 405 0 l 5
 405 71 l 5
 343.4765625 1.533203125 l 5
 255.264648438 -22.705078125 l 5
 86.3994140625 55.5732421875 l 5
 27.7587890625 257.78515625 l 5
 86.3994140625 459.998046875 l 5
 255.264648438 538.27734375 l 5
 338.625 517.46484375 l 5
 395 465.920898438 l 5
 395 720 l 5
 485 720 l 5x3c
260.452148438 461.818359375 m 5
 159.796875 410.287109375 l 5
 119.611328125 257.78515625 l 5
 159.796875 105.327148438 l 5
 260.452148438 53.8388671875 l 5
 359.7578125 105.327148438 l 5
 406.311523438 257.78515625 l 5
 363.584960938 410.287109375 l 5
 260.452148438 461.818359375 l 5
578.3046875 721.97265625 m 1xe0
 578.3046875 721.974609375 l 1
 619.724609375 721.974609375 l 1
 649 692.6953125 l 1
 649 651.27734375 l 1
 649 622 l 1
 628.625 533.365234375 l 1
 567.037109375 480.001953125 l 1
 559.057617188 492.67578125 551.083007812 505.349609375 543.10546875 518.0234375 c 1
 584.755859375 551.626953125 l 1
 600.138671875 621.998046875 l 1
 600.138671875 621.998046875 l 1
 578.30078125 621.998046875 l 1
 549.025390625 651.28125 l 1
 549.025390625 692.69921875 l 1
 578.3046875 721.97265625 l 1xe0
EndSplineSet
Validated: 5
Layer: 2
EndChar
StartChar: Dcroat
Encoding: 189 272 314
Width: 799
Flags: HMW
HStem: 0 84<265 395 395 405> 325 75<20 170 20 170 265 436> 635 85<265 392 265 265>
VStem: 170 95<84 325 84 325 84 325 400 635> 651 98<269.5 465>
LayerCount: 3
Back
SplineSet
405 0 m 6
 170 0 l 5
 170 325 l 5
 20 325 l 5
 20 400 l 5
 170 400 l 5
 170 720 l 5
 394 720 l 6
 626 720 749 594 749 362 c 4
 749 137 637 0 405 0 c 6
265 325 m 5
 265 84 l 5
 395 84 l 6
 571 84 651 176 651 363 c 4
 651 567 550 635 392 635 c 6
 265 635 l 5
 265 400 l 5
 436 400 l 5
 436 325 l 5
 265 325 l 5
EndSplineSet
Fore
Validated: 1
Layer: 2
EndChar
StartChar: dcroat
Encoding: 190 273 314
Width: 550
Flags: HMW
HStem: -15 75<223.5 292.5> 0 60 460 75<223.5 289 186 302.5> 577 66<320 395 320 395 485 550> 700 20G<395 485 485 485>
VStem: 35 90<194 326 194 341> 406 79<194 326>
LayerCount: 3
Back
SplineSet
395 577 m 5xbe
 320 577 l 5
 320 643 l 5
 395 643 l 5
 395 720 l 5
 485 720 l 5
 485 643 l 5
 550 643 l 5
 550 577 l 5
 485 577 l 5
 485 0 l 5
 405 0 l 5
 405 71 l 5x7e
 375 21 327 -15 258 -15 c 4
 114 -15 35 98 35 260 c 4
 35 422 114 535 258 535 c 4
 320 535 365 507 395 465 c 5
 395 577 l 5xbe
406 260 m 4
 406 392 342 460 263 460 c 4
 184 460 125 392 125 260 c 4
 125 128 184 60 263 60 c 4
 332 60 406 128 406 260 c 4
EndSplineSet
Fore
Validated: 1
Layer: 2
EndChar
StartChar: Eogonek
Encoding: 191 280 339
Width: 657
Flags: HMW
HStem: -204 65<516.5 548 516.5 559> 0 85<175 464 531.5 554 554 587> 325 85<175 527 175 527> 635 85<175 577 175 175>
VStem: 80 95<85 325 410 635> 410 66<-94 -70>
LayerCount: 3
Back
SplineSet
464 0 m 5
 80 0 l 5
 80 720 l 5
 577 720 l 5
 577 635 l 5
 175 635 l 5
 175 410 l 5
 527 410 l 5
 527 325 l 5
 175 325 l 5
 175 85 l 5
 587 85 l 5
 587 0 l 5
 554 0 l 6
 509 0 476 -36 476 -75 c 4
 476 -113 500 -139 533 -139 c 4
 563 -139 582 -127 598 -97 c 5
 640 -136 l 5
 624 -165 590 -204 528 -204 c 4
 469 -204 410 -167 410 -89 c 4
 410 -51 432 -15 464 0 c 5
464 0 m 1
 80 0 l 1
 80 720 l 1
 577 720 l 1
 577 635 l 1
 175 635 l 1
 175 410 l 1
 527 410 l 1
 527 325 l 1
 175 325 l 1
 175 85 l 1
 587 85 l 1
 587 0 l 1
 554 0 l 2
 509 0 476 -36 476 -75 c 0
 476 -113 500 -139 533 -139 c 0
 563 -139 582 -127 598 -97 c 1
 640 -136 l 1
 624 -165 590 -204 528 -204 c 0
 469 -204 410 -167 410 -89 c 0
 410 -51 432 -15 464 0 c 1
EndSplineSet
Fore
Validated: 1
Layer: 2
EndChar
StartChar: eogonek
Encoding: 192 281 337
Width: 544
Flags: HMW
HStem: -204 65<376.5 408 376.5 419> -15 75<240.5 277.5> 237 72<128 413 128 508 125 413> 460 75<242 315>
VStem: 35 90<237 237 237 346> 270 66<-94 -73.5> 413 96<309 309>
LayerCount: 3
Back
SplineSet
508 237 m 5
 125 237 l 5
 133 112 203 60 278 60 c 4
 339 60 399 98 417 176 c 5
 445 170 474 164 502 158 c 5
 482 81 443 50 387 10 c 4
 357 -12 336 -32 336 -75 c 4
 336 -113 360 -139 393 -139 c 4
 423 -139 442 -127 458 -97 c 5
 472 -110 486 -123 500 -136 c 5
 484 -165 450 -204 388 -204 c 4
 329 -204 270 -167 270 -89 c 4
 270 -58 283 -30 302 -13 c 5
 293 -14 282 -15 273 -15 c 4
 129 -15 35 88 35 260 c 4
 35 432 129 535 273 535 c 4
 430 535 509 421 509 270 c 4
 509 267 509 244 508 237 c 5
273 460 m 4
 211 460 144 415 128 309 c 5
 413 309 l 5
 409 397 357 460 273 460 c 4
508 237 m 1
 125 237 l 1
 133 112 203 60 278 60 c 0
 339 60 399 98 417 176 c 1
 445 170 474 164 502 158 c 1
 482 81 443 50 387 10 c 0
 357 -12 336 -32 336 -75 c 0
 336 -113 360 -139 393 -139 c 0
 423 -139 442 -127 458 -97 c 1
 472 -110 486 -123 500 -136 c 1
 484 -165 450 -204 388 -204 c 0
 329 -204 270 -167 270 -89 c 0
 270 -58 283 -30 302 -13 c 1
 293 -14 282 -15 273 -15 c 0
 129 -15 35 88 35 260 c 0
 35 432 129 535 273 535 c 0
 430 535 509 421 509 270 c 0
 509 267 509 244 508 237 c 1
273 460 m 0
 211 460 144 415 128 309 c 1
 413 309 l 1
 409 397 357 460 273 460 c 0
EndSplineSet
Fore
Validated: 1
Layer: 2
EndChar
StartChar: ecaron
Encoding: 194 283 278
Width: 544
Flags: HMW
HStem: -15 75<240.5 308.5 240.5 329.5> 60 177<240.5 308.5> 237 72<128 413 128 508 125 413> 309 151<242 315 242 413 242 413> 460 75<242 315> 535 225<201 205 341 351.5>
VStem: 35 90<237 237 237 346> 413 96<309 309>
LayerCount: 3
Back
SplineSet
508 237 m 5xa7
 125 237 l 5
 133 112 203 60 278 60 c 4x97
 339 60 399 98 417 176 c 5
 502 158 l 5
 472 42 386 -15 273 -15 c 4
 129 -15 35 88 35 260 c 4
 35 432 129 535 273 535 c 4
 430 535 509 421 509 270 c 4
 509 267 509 244 508 237 c 5xa7
273 460 m 4
 211 460 144 415 128 309 c 5x4b
 413 309 l 5
 409 397 357 460 273 460 c 4
310 600 m 5
 233 600 l 5
 114 760 l 5
 205 760 l 5xab
 272 659 l 5
 341 760 l 5
 429 760 l 5
 310 600 l 5
508 237 m 1xa7
 125 237 l 1
 133 112 203 60 278 60 c 0x97
 339 60 399 98 417 176 c 1
 502 158 l 1
 472 42 386 -15 273 -15 c 0
 129 -15 35 88 35 260 c 0
 35 432 129 535 273 535 c 0
 430 535 509 421 509 270 c 0
 509 267 509 244 508 237 c 1xa7
273 460 m 0
 211 460 144 415 128 309 c 1x4b
 413 309 l 1
 409 397 357 460 273 460 c 0
310 600 m 1
 233 600 l 1
 114 760 l 1
 205 760 l 1xab
 272 659 l 1
 341 760 l 1
 429 760 l 1
 310 600 l 1
EndSplineSet
Fore
Validated: 1
Layer: 2
EndChar
StartChar: Lacute
Encoding: 196 313 293
Width: 608
Flags: HMW
HStem: 0 85<175 578 175 578 175 578> 700 20G<80 175 80 80> 970 20G<176 294 294 294>
VStem: 80 95<0 720 85 720 85 720>
LayerCount: 3
Back
SplineSet
80 0 m 5
 578 0 l 5
 578 85 l 5
 175 85 l 5
 175 720 l 5
 80 720 l 5
 80 0 l 5
100 803 m 5
 176 990 l 5
 294 990 l 5
 171 803 l 5
 100 803 l 5
EndSplineSet
Fore
Validated: 1
Layer: 2
EndChar
StartChar: lacute
Encoding: 197 314 282
Width: 220
Flags: HMW
HStem: 0 21G<65 155 155 155> 970 20G<136 254 254 254>
VStem: 65 90<0 735 0 695>
LayerCount: 3
Back
SplineSet
65 0 m 5
 155 0 l 5
 155 735 l 5
 65 695 l 5
 65 0 l 5
60 803 m 5
 136 990 l 5
 254 990 l 5
 131 803 l 5
 60 803 l 5
EndSplineSet
Fore
Validated: 1
Layer: 2
EndChar
StartChar: Lcaron
Encoding: 198 317 298
Width: 608
Flags: HMW
HStem: 0 85<175 578 175 578> 700 20G<80 175 175 175> 950 20G<-47 44 44 44 220 308 308 308>
VStem: 80 95<85 720 85 720 85 720>
LayerCount: 3
Back
SplineSet
578 0 m 5
 80 0 l 5
 80 720 l 5
 175 720 l 5
 175 85 l 5
 578 85 l 5
 578 0 l 5
169 790 m 5
 92 790 l 5
 -47 970 l 5
 44 970 l 5
 131 849 l 5
 220 970 l 5
 308 970 l 5
 169 790 l 5
EndSplineSet
Fore
Validated: 1
Layer: 2
EndChar
StartChar: lcaron
Encoding: 199 318 310
Width: 320
Flags: HMW
HStem: 0 21G<65 155 65 65> 700 20G<220 320 320 320>
VStem: 65 90<0 695 695 695> 220 100<620 720> 271 49<588 620>
LayerCount: 3
Back
Fore
SplineSet
249.3046875 720.27734375 m 1xe0
 249.3046875 720.279296875 l 1
 290.724609375 720.279296875 l 1
 320 691 l 1
 320 649.58203125 l 1
 320 620.3046875 l 1
 299.625 531.669921875 l 1
 238.037109375 478.306640625 l 1
 230.057617188 490.98046875 222.083007812 503.654296875 214.10546875 516.328125 c 1
 255.755859375 549.931640625 l 1
 271.138671875 620.302734375 l 1
 271.138671875 620.302734375 l 1
 249.30078125 620.302734375 l 1
 220.025390625 649.5859375 l 1
 220.025390625 691.00390625 l 1
 249.3046875 720.27734375 l 1xe0
155 0 m 1xe8
 65 0 l 1
 65 735 l 5
 155 735 l 1
 155 0 l 1xe8
EndSplineSet
Validated: 5
Layer: 2
EndChar
StartChar: Lslash
Encoding: 200 321 309
Width: 668
Flags: HMW
HStem: 0 85<235 638 235 638> 700 20G<140 235 235 235>
VStem: 140 95<85 333 333 333 480 720>
LayerCount: 3
Back
SplineSet
638 0 m 5
 140 0 l 5
 140 333 l 5
 58 282 l 5
 20 347 l 5
 140 421 l 5
 140 720 l 5
 235 720 l 5
 235 480 l 5
 322 535 l 5
 360 470 l 5
 235 392 l 5
 235 85 l 5
 638 85 l 5
 638 0 l 5
EndSplineSet
Fore
Validated: 1
Layer: 2
EndChar
StartChar: lslash
Encoding: 201 322 309
Width: 380
Flags: HMW
HStem: 0 21G<147 237 147 147> 715 20G<237 237>
VStem: 147 90<0 337 337 337 482 695 695 695>
LayerCount: 3
Back
SplineSet
237 0 m 5
 147 0 l 5
 147 337 l 5
 58 282 l 5
 20 347 l 5
 147 426 l 5
 147 695 l 5
 237 735 l 5
 237 482 l 5
 322 535 l 5
 360 470 l 5
 237 393 l 5
 237 0 l 5
EndSplineSet
Fore
Validated: 1
Layer: 2
EndChar
StartChar: Nacute
Encoding: 202 323 288
Width: 724
Flags: HMW
HStem: 0 21G<80 171 171 171 547 644 644 644> 700 20G<80 177 80 80 553 644 553 553> 970 20G<396 514 514 514>
VStem: 80 91<0 566 0 566 0 720> 553 91<154 720 154 154>
LayerCount: 3
Back
SplineSet
80 0 m 5
 171 0 l 5
 171 566 l 5
 547 0 l 5
 644 0 l 5
 644 720 l 5
 553 720 l 5
 553 154 l 5
 177 720 l 5
 80 720 l 5
 80 0 l 5
320 803 m 5
 396 990 l 5
 514 990 l 5
 391 803 l 5
 320 803 l 5
EndSplineSet
Fore
Validated: 1
Layer: 2
EndChar
StartChar: nacute
Encoding: 203 324 277
Width: 555
Flags: HMW
HStem: 0 21G<65 155 155 155 400 490 490 490> 459 61 515 20G<275 383> 770 20G<266 384 384 384>
VStem: 65 90<0 283 0 283 283 340 0 520> 400 90<0 315 0 319>
LayerCount: 3
Back
SplineSet
65 0 m 5xdc
 155 0 l 5
 155 283 l 6
 155 397 211 459 293 459 c 4xdc
 371 459 400 405 400 315 c 6
 400 0 l 5
 490 0 l 5
 490 319 l 6
 490 443 455 535 311 535 c 4xbc
 239 535 184 509 146 445 c 5
 146 520 l 5
 65 520 l 5
 65 0 l 5xdc
190 603 m 5
 266 790 l 5
 384 790 l 5
 261 603 l 5
 190 603 l 5
EndSplineSet
Fore
Validated: 1
Layer: 2
EndChar
StartChar: Ncaron
Encoding: 204 327 288
Width: 724
Flags: HMW
HStem: 0 21G<80 171 80 80 547 547 547 644> 700 20G<80 177 177 177 553 644 644 644> 950 20G<184 275 275 275 451 539 539 539>
VStem: 80 91<0 566> 553 91<154 720 0 720>
LayerCount: 3
Back
SplineSet
171 0 m 5
 80 0 l 5
 80 720 l 5
 177 720 l 5
 553 154 l 5
 553 720 l 5
 644 720 l 5
 644 0 l 5
 547 0 l 5
 171 566 l 5
 171 0 l 5
400 790 m 5
 323 790 l 5
 184 970 l 5
 275 970 l 5
 362 849 l 5
 451 970 l 5
 539 970 l 5
 400 790 l 5
EndSplineSet
Fore
Validated: 1
Layer: 2
EndChar
StartChar: ncaron
Encoding: 205 328 276
Width: 555
Flags: HMW
HStem: 0 21G<65 155 65 65 400 400 400 490> 459 61 459 76<275 332> 740 20G<103 194 194 194 330 418 418 418>
VStem: 65 90<0 283> 400 90<0 315 315 319 0 360>
LayerCount: 3
Back
SplineSet
155 0 m 5xbc
 65 0 l 5
 65 520 l 5
 146 520 l 5
 146 445 l 5
 184 509 239 535 311 535 c 4
 455 535 490 443 490 319 c 6
 490 0 l 5
 400 0 l 5
 400 315 l 6
 400 405 371 459 293 459 c 4
 211 459 155 397 155 283 c 6
 155 0 l 5xbc
299 600 m 5
 222 600 l 5
 103 760 l 5
 194 760 l 5
 261 659 l 5
 330 760 l 5xdc
 418 760 l 5
 299 600 l 5
EndSplineSet
Fore
Validated: 1
Layer: 2
EndChar
StartChar: Ohungarumlaut
Encoding: 206 336 274
Width: 785
Flags: HMW
HStem: -15 80<313 467.5 313 502.5> 655 80<318 467.5> 970 20G<306 424 424 424 526 644 644 644>
VStem: 50 100<276.5 443.5 276.5 463.5> 635 100<276.5 443.5>
LayerCount: 3
Back
SplineSet
50 360 m 4
 50 567 173 735 393 735 c 4
 612 735 735 567 735 360 c 4
 735 153 612 -15 393 -15 c 4
 173 -15 50 153 50 360 c 4
150 360 m 4
 150 193 233 65 393 65 c 4
 542 65 635 193 635 360 c 4
 635 527 542 655 393 655 c 4
 243 655 150 527 150 360 c 4
230 803 m 5
 306 990 l 5
 424 990 l 5
 301 803 l 5
 230 803 l 5
450 803 m 5
 526 990 l 5
 644 990 l 5
 521 803 l 5
 450 803 l 5
EndSplineSet
Fore
Validated: 1
Layer: 2
EndChar
StartChar: ohungarumlaut
Encoding: 207 337 276
Width: 556
Flags: HMW
HStem: -15 75<238.5 317.5 238.5 350> 460 75<238.5 317.5> 603 187<122 316 122 316 312 316 198 383 312 312>
VStem: 35 90<189 331 189 346> 431 90<189 331>
LayerCount: 3
Back
SplineSet
35 260 m 4
 35 432 134 535 278 535 c 4
 422 535 521 432 521 260 c 4
 521 88 422 -15 278 -15 c 4
 134 -15 35 88 35 260 c 4
125 260 m 4
 125 118 199 60 278 60 c 4
 357 60 431 118 431 260 c 4
 431 402 357 460 278 460 c 4
 199 460 125 402 125 260 c 4
122 603 m 5
 198 790 l 5
 316 790 l 5
 193 603 l 5
 122 603 l 5
312 603 m 5
 388 790 l 5
 506 790 l 5
 383 603 l 5
 312 603 l 5
EndSplineSet
Fore
Validated: 1
Layer: 2
EndChar
StartChar: OE
Encoding: 208 338 319
Width: 1031
Flags: HMW
HStem: 0 85<579 961 579 961> 325 85<579 901 579 901> 635 85<405 407 407 484 579 951 579 579>
VStem: 50 98<269.5 465 269.5 478> 484 95<85 325 410 635>
LayerCount: 3
Back
SplineSet
961 0 m 5
 394 0 l 6
 162 0 50 137 50 362 c 4
 50 594 173 720 405 720 c 6
 951 720 l 5
 951 635 l 5
 579 635 l 5
 579 410 l 5
 901 410 l 5
 901 325 l 5
 579 325 l 5
 579 85 l 5
 961 85 l 5
 961 0 l 5
484 84 m 5
 484 635 l 5
 407 635 l 6
 249 635 148 567 148 363 c 4
 148 176 228 84 404 84 c 6
 484 84 l 5
EndSplineSet
Fore
SplineSet
135.028320312 96.6337890625 m 1
 50 362.043945312 l 1
 140.53125 628.005859375 l 1
 405.037109375 720 l 1
 951.017578125 720 l 1
 951.017578125 634.951171875 l 1
 579.053710938 634.951171875 l 1
 579.053710938 409.98828125 l 1
 900.98828125 409.98828125 l 1
 900.98828125 324.939453125 l 1
 579.053710938 324.939453125 l 1
 579.053710938 84.96875 l 1
 961.0234375 84.96875 l 1
 961.0234375 -0.080078125 l 1
 394.03125 -0.080078125 l 2
 394.03125 -0.0380859375 l 0
 135.028320312 96.6337890625 l 1
484.083007812 634.951171875 m 1
 407.038085938 634.951171875 l 1
 218.3046875 575.466796875 l 1
 148.139648438 362.961914062 l 1
 210.123046875 153.333007812 l 1
 404.120117188 83.9677734375 l 1
 484.083007812 83.9677734375 l 1
 484.083007812 634.951171875 l 1
EndSplineSet
Validated: 1
Layer: 2
EndChar
StartChar: oe
Encoding: 209 339 319
Width: 940
Flags: HMW
HStem: -15 75<238.5 317.5 238.5 320.5 636.5 704.5> 237 72<524 809 524 904 521 809> 460 75<238.5 317.5 638 711>
VStem: 35 90<189 331 189 346> 431 90<237 237 237 331> 809 96<309 309>
LayerCount: 3
Back
SplineSet
35 260 m 4
 35 432 134 535 278 535 c 4
 363 535 432 499 475 414 c 5
 516 499 584 535 669 535 c 4
 826 535 905 421 905 270 c 4
 905 267 905 244 904 237 c 5
 521 237 l 5
 529 112 599 60 674 60 c 4
 735 60 795 98 813 176 c 5
 898 158 l 5
 868 42 782 -15 669 -15 c 4
 584 -15 516 21 475 106 c 5
 432 21 363 -15 278 -15 c 4
 134 -15 35 88 35 260 c 4
125 260 m 4
 125 118 199 60 278 60 c 4
 357 60 431 118 431 260 c 4
 431 402 357 460 278 460 c 4
 199 460 125 402 125 260 c 4
669 460 m 4
 607 460 540 415 524 309 c 5
 809 309 l 5
 805 397 753 460 669 460 c 4
EndSplineSet
Fore
SplineSet
390.759765625 511.294921875 m 1
 475.107421875 417.094726562 l 1
 557.178710938 511.329101562 l 1
 672.9296875 540.500976562 l 1
 853.372070312 463.115234375 l 1
 913 274 l 1
 912.508789062 236.536132812 l 1
 521.879882812 236.536132812 l 1
 574.270507812 98.451171875 l 1
 677.944335938 55.9775390625 l 1
 765.256835938 85.310546875 l 1
 819.720703125 174.28125 l 1
 891.259765625 132.500976562 l 1
 821.442382812 23.3095703125 l 1
 672.92578125 -20.56640625 l 1
 557.111328125 8.6396484375 l 1
 475.102539062 102.838867188 l 1
 390.627929688 8.60546875 l 1
 274.131835938 -20.56640625 l 1
 95.1357421875 53.884765625 l 1
 26.2998046875 259.924804688 l 1
 95.16796875 466.006835938 l 1
 274.131835938 540.500976562 l 1
 390.759765625 511.294921875 l 1
274.135742188 55.9775390625 m 1
 382.372070312 103.638671875 l 1
 430.201171875 259.924804688 l 1
 382.372070312 416.252929688 l 1
 274.135742188 463.95703125 l 1
 165.901367188 416.252929688 l 1
 118.072265625 259.924804688 l 1
 165.869140625 103.638671875 l 1
 274.135742188 55.9775390625 l 1
525.116210938 310.018554688 m 1
 815.897460938 310.018554688 l 1
 775.04296875 420.67578125 l 1
 673.015625 464.041015625 l 1
 581.493164062 427.564453125 l 1
 525.116210938 310.018554688 l 1
EndSplineSet
Validated: 1
Layer: 2
EndChar
StartChar: Racute
Encoding: 210 340 295
Width: 677
Flags: HMW
HStem: 0 21G<80 175 175 175 553 667 667 667> 290 85<175 268 268 323.5> 635 85<175 320> 970 20G<306 424 424 424>
VStem: 80 95<0 290 375 635 0 290> 499 98<462.5 555>
LayerCount: 3
Back
SplineSet
80 720 m 5
 80 0 l 5
 175 0 l 5
 175 290 l 5
 268 290 l 6
 379 290 430 220 485 121 c 6
 553 0 l 5
 667 0 l 5
 570 167 l 6
 534 229 488 294 415 315 c 5
 536 336 597 399 597 509 c 4
 597 669 465 720 320 720 c 6
 80 720 l 5
175 375 m 5
 175 635 l 5
 328 635 l 6
 423 635 499 604 499 506 c 4
 499 419 443 375 330 375 c 6
 175 375 l 5
230 803 m 5
 306 990 l 5
 424 990 l 5
 301 803 l 5
 230 803 l 5
EndSplineSet
Fore
Validated: 1
Layer: 2
EndChar
StartChar: racute
Encoding: 211 341 284
Width: 385
Flags: HMW
HStem: 0 21G<65 155 155 155> 450 70 515 20G<255.5 308> 770 20G<216 334 334 334>
VStem: 65 90<0 281 0 281 281 331.5 0 520>
LayerCount: 3
Back
SplineSet
65 0 m 5xd8
 155 0 l 5
 155 281 l 6
 155 382 198 450 284 450 c 4xd8
 315 450 333 442 353 428 c 5
 380 507 l 5
 356 526 328 535 288 535 c 4xb8
 223 535 179 500 146 430 c 5
 146 520 l 5
 65 520 l 5
 65 0 l 5xd8
140 603 m 5
 216 790 l 5
 334 790 l 5
 211 603 l 5
 140 603 l 5
EndSplineSet
Fore
Validated: 1
Layer: 2
EndChar
StartChar: Rcaron
Encoding: 212 344 287
Width: 677
Flags: HMW
HStem: 0 21G<80 80 80 175 553 553 553 667> 290 85<175 268 175 330> 635 85<175 175 175 320 320 328> 950 20G<153 244 244 244 420 508 508 508>
VStem: 80 95<0 290 0 375 375 635> 499 98<462.5 555>
LayerCount: 3
Back
SplineSet
80 0 m 5
 80 720 l 5
 320 720 l 6
 465 720 597 669 597 509 c 4
 597 399 536 336 415 315 c 5
 488 294 534 229 570 167 c 6
 667 0 l 5
 553 0 l 5
 485 121 l 6
 430 220 379 290 268 290 c 6
 175 290 l 5
 175 0 l 5
 80 0 l 5
175 635 m 5
 175 375 l 5
 330 375 l 6
 443 375 499 419 499 506 c 4
 499 604 423 635 328 635 c 6
 175 635 l 5
369 790 m 5
 292 790 l 5
 153 970 l 5
 244 970 l 5
 331 849 l 5
 420 970 l 5
 508 970 l 5
 369 790 l 5
EndSplineSet
Fore
Validated: 1
Layer: 2
EndChar
StartChar: rcaron
Encoding: 213 345 270
Width: 385
Flags: HMW
HStem: 0 21G<65 155 65 65> 450 70 450 85<255.5 299.5> 740 20G<51 142 142 142 278 366 366 366>
VStem: 65 90<0 281>
LayerCount: 3
Back
SplineSet
155 0 m 5xb8
 65 0 l 5
 65 520 l 5
 146 520 l 5
 146 430 l 5
 179 500 223 535 288 535 c 4
 328 535 356 526 380 507 c 5
 353 428 l 5
 333 442 315 450 284 450 c 4
 198 450 155 382 155 281 c 6
 155 0 l 5xb8
247 600 m 5
 170 600 l 5
 51 760 l 5
 142 760 l 5
 209 659 l 5
 278 760 l 5xd8
 366 760 l 5
 247 600 l 5
155 0 m 5xb8
 65 0 l 5
 65 520 l 5
 146 520 l 5
 146 430 l 5
 179 500 223 535 288 535 c 4
 328 535 356 526 380 507 c 5
 353 428 l 5
 333 442 315 450 284 450 c 4
 198 450 155 382 155 281 c 6
 155 0 l 5xb8
247 600 m 5
 170 600 l 5
 51 760 l 5
 142 760 l 5
 209 659 l 5
 278 760 l 5xd8
 366 760 l 5
 247 600 l 5
EndSplineSet
Fore
Validated: 1
Layer: 2
EndChar
StartChar: Sacute
Encoding: 214 346 305
Width: 665
Flags: HMW
HStem: -15 80<289.5 398 289.5 413.5> 510 225 655 80<290.5 381.5> 970 20G<336 454 454 454>
VStem: 50 94<230 238> 77 92<518.5 579 518.5 599.5> 513 102<155.5 217>
LayerCount: 3
Back
SplineSet
50 230 m 5xda
 61 67 169 -15 350 -15 c 4
 477 -15 615 52 615 199 c 4
 615 309 543 362 438 392 c 4
 369 411 263 441 230 454 c 4
 189 469 169 500 169 537 c 4
 169 621 253 655 328 655 c 4
 435 655 488 599 497 507 c 5
 593 514 l 5
 583 664 484 735 324 735 c 4
 203 735 77 668 77 531 c 4xb6
 77 463 96 401 225 359 c 4
 268 345 396 315 434 300 c 4
 490 278 513 240 513 194 c 4
 513 117 450 65 346 65 c 4
 233 65 152 123 144 238 c 5
 50 230 l 5xda
260 803 m 5
 336 990 l 5
 454 990 l 5
 331 803 l 5
 260 803 l 5
EndSplineSet
Fore
Validated: 1
Layer: 2
EndChar
StartChar: sacute
Encoding: 215 347 302
Width: 493
Flags: HMW
HStem: -15 75<208 276.5 208 300> 460 75<201.5 272.5> 770 20G<246 364 364 364>
VStem: 40 86<373.5 412 373.5 435.5> 368 90<106 155>
LayerCount: 3
Back
SplineSet
35 150 m 5
 43 45 121 -15 248 -15 c 4
 352 -15 458 28 458 143 c 4
 458 240 395 275 330 293 c 6
 190 331 l 6
 159 339 126 356 126 391 c 4
 126 433 164 460 239 460 c 4
 306 460 344 430 352 373 c 5
 438 385 l 5
 430 474 365 535 241 535 c 4
 134 535 40 490 40 381 c 4
 40 295 101 263 170 244 c 6
 297 210 l 6
 350 196 368 175 368 135 c 4
 368 77 302 60 251 60 c 4
 165 60 130 108 122 163 c 5
 35 150 l 5
170 603 m 5
 246 790 l 5
 364 790 l 5
 241 603 l 5
 170 603 l 5
EndSplineSet
Fore
Validated: 1
Layer: 2
EndChar
StartChar: Scaron
Encoding: 216 352 264
Width: 665
Flags: HMW
HStem: -15 80<289.5 398 289.5 413.5> 510 225 655 80<290.5 381.5> 950 20G<153 244 244 244 420 508 508 508>
VStem: 50 94<230 238> 77 92<518.5 579 518.5 599.5> 513 102<155.5 217>
LayerCount: 3
Back
SplineSet
50 230 m 5xda
 144 238 l 5
 152 123 233 65 346 65 c 4
 450 65 513 117 513 194 c 4
 513 240 490 278 434 300 c 4
 396 315 268 345 225 359 c 4
 96 401 77 463 77 531 c 4
 77 668 203 735 324 735 c 4
 484 735 583 664 593 514 c 5
 497 507 l 5
 488 599 435 655 328 655 c 4
 253 655 169 621 169 537 c 4
 169 500 189 469 230 454 c 4xb6
 263 441 369 411 438 392 c 4
 543 362 615 309 615 199 c 4
 615 52 477 -15 350 -15 c 4
 169 -15 61 67 50 230 c 5xda
369 790 m 5
 292 790 l 5
 153 970 l 5
 244 970 l 5
 331 849 l 5
 420 970 l 5
 508 970 l 5xda
 369 790 l 5
EndSplineSet
Fore
Validated: 1
Layer: 2
EndChar
